{
.appVersion = "1357";
DisplayStrings = (
A,
"Ð/Dcroat",
"/ldot",
",/quotesinglbase/quotedblbase/quotedblleft/quotedblright/quoteleft/quoteright"
);
classes = (
{
automatic = 1;

glyphs = (
{
color = 4;
glyphname = A;
lastChange = "2021-11-11 09:43:54 +0000";
layers = (
{
anchors = (
{
name = bottom;
position = "{328, 0}";
},
{
name = ogonek;
position = "{602, 0}";
},
{
name = top;
position = "{432, 745}";
}
);
layerId = "9D27F576-B54C-4464-AC1E-5B62749637F3";
paths = (
{
closed = 1;
nodes = (
"149 0 LINE",
"220 152 LINE",
"492 152 LINE",
"520 0 LINE",
"683 0 LINE",
"535 745 LINE",
"329 745 LINE",
"-27 0 LINE"
);
},
{
closed = 1;
nodes = (
"444 632 LINE",
"403 637 LINE",
"467 287 LINE",
"282 287 LINE"
);
}
);
width = 732;
},
{
anchors = (
{
name = bottom;
position = "{288, 0}";
},
{
name = ogonek;
position = "{563, 0}";
},
{
name = top;
position = "{393, 745}";
}
);
layerId = "F445EC8D-29E3-46C7-99DD-9E4BBA6B70C5";
paths = (
{
closed = 1;
nodes = (
"61 0 LINE",
"151 182 LINE",
"483 182 LINE",
"522 0 LINE",
"603 0 LINE",
"435 745 LINE",
"349 745 LINE",
"-27 0 LINE"
);
},
{
closed = 1;
nodes = (
"399 682 LINE",
"375 685 LINE",
"467 257 LINE",
"188 257 LINE"
);
}
);
width = 652;
},
{
anchors = (
{
name = bottom;
position = "{285, 0}";
},
{
name = ogonek;
position = "{558, 0}";
},
{
name = top;
position = "{390, 745}";
}
);
layerId = "1C1CFC13-4213-4775-A214-C31251F9A91A";
paths = (
{
closed = 1;
nodes = (
"43 0 LINE",
"143 197 LINE",
"487 197 LINE",
"531 0 LINE",
"585 0 LINE",
"413 745 LINE",
"365 745 LINE",
"-15 0 LINE"
);
},
{
closed = 1;
nodes = (
"397 700 LINE",
"373 703 LINE",
"477 242 LINE",
"165 242 LINE"
);
}
);
width = 644;
}
);
leftKerningGroup = A;
rightKerningGroup = A;
unicode = 0041;
},
{
color = 4;
glyphname = AE;
lastChange = "2021-11-11 09:41:25 +0000";
layers = (
{
anchors = (
{
name = bottom;
position = "{459, 0}";
},
{
name = top;
position = "{563, 745}";
}
);
layerId = "9D27F576-B54C-4464-AC1E-5B62749637F3";
paths = (
{
closed = 1;
nodes = (
"150 0 LINE",
"221 152 LINE",
"453 152 LINE",
"432 0 LINE",
"932 0 LINE",
"952 135 LINE",
"606 135 LINE",
"630 306 LINE",
"956 306 LINE",
"975 441 LINE",
"649 441 LINE",
"672 610 LINE",
"1018 610 LINE",
"1037 745 LINE",
"329 745 LINE",
"-27 0 LINE"
);
},
{
closed = 1;
nodes = (
"434 610 LINE",
"517 610 LINE",
"472 287 LINE",
"283 287 LINE"
);
}
);
width = 993;
},
{
anchors = (
{
name = bottom;
position = "{455, 0}";
},
{
name = top;
position = "{560, 745}";
}
);
layerId = "F445EC8D-29E3-46C7-99DD-9E4BBA6B70C5";
paths = (
{
closed = 1;
nodes = (
"61 0 LINE",
"151 182 LINE",
"448 182 LINE",
"423 0 LINE",
"903 0 LINE",
"913 75 LINE",
"513 75 LINE",
"550 336 LINE",
"930 336 LINE",
"940 411 LINE",
"560 411 LINE",
"597 670 LINE",
"997 670 LINE",
"1007 745 LINE",
"349 745 LINE",
"-27 0 LINE"
);
},
{
closed = 1;
nodes = (
"393 670 LINE",
"517 670 LINE",
"459 257 LINE",
"188 257 LINE"
);
}
);
width = 985;
},
{
anchors = (
{
name = bottom;
position = "{457, 0}";
},
{
name = top;
position = "{562, 745}";
}
);
layerId = "1C1CFC13-4213-4775-A214-C31251F9A91A";
paths = (
{
closed = 1;
nodes = (
"43 0 LINE",
"142 197 LINE",
"462 197 LINE",
"435 0 LINE",
"895 0 LINE",
"901 45 LINE",
"491 45 LINE",
"534 351 LINE",
"924 351 LINE",
"930 396 LINE",
"540 396 LINE",
"583 700 LINE",
"993 700 LINE",
"999 745 LINE",
"365 745 LINE",
"-15 0 LINE"
);
},
{
closed = 1;
nodes = (
"397 700 LINE",
"533 700 LINE",
"469 242 LINE",
"165 242 LINE"
);
}
);
width = 987;
}
);
leftKerningGroup = A;
leftMetricsKey = "=A";
rightKerningGroup = E;
rightMetricsKey = "=E";
unicode = 00C6;
},
{
color = 4;
glyphname = B;
lastChange = "2021-11-11 09:41:25 +0000";
layers = (
{
anchors = (
{
name = bottom;
position = "{310, 0}";
},
{
name = top;
position = "{414, 745}";
}
);
layerId = "9D27F576-B54C-4464-AC1E-5B62749637F3";
paths = (
{
closed = 1;
nodes = (
"356 0 LINE SMOOTH",
"542 0 OFFCURVE",
"658 98 OFFCURVE",
"658 260 CURVE SMOOTH",
"658 328 OFFCURVE",
"630 391 OFFCURVE",
"541 431 CURVE",
"552 374 LINE",
"623 415 OFFCURVE",
"658 476 OFFCURVE",
"658 557 CURVE SMOOTH",
"658 675 OFFCURVE",
"577 745 OFFCURVE",
"434 745 CURVE SMOOTH",
"132 745 LINE",
"28 0 LINE"
);
},
{
closed = 1;
nodes = (
"229 330 LINE",
"409 330 LINE SMOOTH",
"466 330 OFFCURVE",
"502 296 OFFCURVE",
"502 245 CURVE SMOOTH",
"502 181 OFFCURVE",
"455 135 OFFCURVE",
"388 135 CURVE SMOOTH",
"202 135 LINE"
);
},
{
closed = 1;
nodes = (
"269 615 LINE",
"432 615 LINE SMOOTH",
"476 615 OFFCURVE",
"503 589 OFFCURVE",
"503 550 CURVE SMOOTH",
"503 500 OFFCURVE",
"467 465 OFFCURVE",
"416 465 CURVE SMOOTH",
"248 465 LINE"
);
}
);
width = 696;
},
{
anchors = (
{
name = bottom;
position = "{312, 0}";
},
{
name = top;
position = "{417, 745}";
}
);
layerId = "F445EC8D-29E3-46C7-99DD-9E4BBA6B70C5";
paths = (
{
closed = 1;
nodes = (
"378 0 LINE SMOOTH",
"531 0 OFFCURVE",
"638 98 OFFCURVE",
"638 239 CURVE SMOOTH",
"638 315 OFFCURVE",
"594 383 OFFCURVE",
"517 412 CURVE",
"519 390 LINE",
"597 422 OFFCURVE",
"644 492 OFFCURVE",
"644 573 CURVE SMOOTH",
"644 678 OFFCURVE",
"572 745 OFFCURVE",
"455 745 CURVE SMOOTH",
"155 745 LINE",
"51 0 LINE"
);
},
{
closed = 1;
nodes = (
"181 358 LINE",
"416 358 LINE SMOOTH",
"503 358 OFFCURVE",
"558 309 OFFCURVE",
"558 234 CURVE SMOOTH",
"558 139 OFFCURVE",
"488 75 OFFCURVE",
"386 75 CURVE SMOOTH",
"141 75 LINE"
);
},
{
closed = 1;
nodes = (
"225 670 LINE",
"441 670 LINE SMOOTH",
"516 670 OFFCURVE",
"563 634 OFFCURVE",
"563 570 CURVE SMOOTH",
"563 490 OFFCURVE",
"501 430 OFFCURVE",
"416 430 CURVE SMOOTH",
"191 430 LINE"
);
}
);
width = 700;
},
{
anchors = (
{
name = bottom;
position = "{314, 0}";
},
{
name = top;
position = "{419, 745}";
}
);
layerId = "1C1CFC13-4213-4775-A214-C31251F9A91A";
paths = (
{
closed = 1;
nodes = (
"377 0 LINE SMOOTH",
"528 0 OFFCURVE",
"629 93 OFFCURVE",
"629 231 CURVE SMOOTH",
"629 318 OFFCURVE",
"575 386 OFFCURVE",
"489 404 CURVE",
"490 389 LINE",
"578 411 OFFCURVE",
"636 490 OFFCURVE",
"636 579 CURVE SMOOTH",
"636 675 OFFCURVE",
"566 745 OFFCURVE",
"455 745 CURVE SMOOTH",
"167 745 LINE",
"63 0 LINE"
);
},
{
closed = 1;
nodes = (
"165 370 LINE",
"417 370 LINE SMOOTH",
"516 370 OFFCURVE",
"579 315 OFFCURVE",
"579 228 CURVE SMOOTH",
"579 119 OFFCURVE",
"496 45 OFFCURVE",
"373 45 CURVE SMOOTH",
"119 45 LINE"
);
},
{
closed = 1;
nodes = (
"211 700 LINE",
"445 700 LINE SMOOTH",
"535 700 OFFCURVE",
"586 652 OFFCURVE",
"586 577 CURVE SMOOTH",
"586 481 OFFCURVE",
"516 415 OFFCURVE",
"415 415 CURVE SMOOTH",
"171 415 LINE"
);
}
);
width = 702;
}
);
leftKerningGroup = I;
rightKerningGroup = B;
unicode = 0042;
},
{
color = 4;
glyphname = C;
lastChange = "2021-11-11 10:23:20 +0000";
layers = (
{
anchors = (
{
name = bottom;
position = "{414, 0}";
},
{
name = top;
position = "{460, 745}";
}
);
layerId = "9D27F576-B54C-4464-AC1E-5B62749637F3";
paths = (
{
closed = 1;
nodes = (
"572 -12 OFFCURVE",
"696 75 OFFCURVE",
"743 185 CURVE",
"609 255 LINE",
"578 183 OFFCURVE",
"508 128 OFFCURVE",
"412 128 CURVE SMOOTH",
"292 128 OFFCURVE",
"214 214 OFFCURVE",
"214 348 CURVE SMOOTH",
"214 502 OFFCURVE",
"316 617 OFFCURVE",
"454 617 CURVE SMOOTH",
"546 617 OFFCURVE",
"606 566 OFFCURVE",
"627 494 CURVE",
"768 556 LINE",
"736 666 OFFCURVE",
"622 757 OFFCURVE",
"459 757 CURVE SMOOTH",
"228 757 OFFCURVE",
"59 573 OFFCURVE",
"59 349 CURVE SMOOTH",
"59 139 OFFCURVE",
"207 -12 OFFCURVE",
"413 -12 CURVE SMOOTH"
);
}
);
width = 788;
},
{
anchors = (
{
name = bottom;
position = "{417, 0}";
},
{
name = top;
position = "{465, 745}";
}
);
layerId = "F445EC8D-29E3-46C7-99DD-9E4BBA6B70C5";
paths = (
{
closed = 1;
nodes = (
"570 -12 OFFCURVE",
"685 79 OFFCURVE",
"728 172 CURVE",
"655 207 LINE",
"611 120 OFFCURVE",
"528 63 OFFCURVE",
"418 63 CURVE SMOOTH",
"265 63 OFFCURVE",
"161 173 OFFCURVE",
"161 342 CURVE SMOOTH",
"161 536 OFFCURVE",
"290 682 OFFCURVE",
"465 682 CURVE SMOOTH",
"574 682 OFFCURVE",
"647 626 OFFCURVE",
"679 539 CURVE",
"756 570 LINE",
"725 662 OFFCURVE",
"624 757 OFFCURVE",
"466 757 CURVE SMOOTH",
"246 757 OFFCURVE",
"81 573 OFFCURVE",
"81 342 CURVE SMOOTH",
"81 121 OFFCURVE",
"231 -12 OFFCURVE",
"417 -12 CURVE SMOOTH"
);
}
);
width = 796;
},
{
anchors = (
{
name = bottom;
position = "{418, 0}";
},
{
name = top;
position = "{470, 745}";
}
);
layerId = "1C1CFC13-4213-4775-A214-C31251F9A91A";
paths = (
{
closed = 1;
nodes = (
"568 -12 OFFCURVE",
"681 81 OFFCURVE",
"724 168 CURVE",
"678 191 LINE",
"627 98 OFFCURVE",
"535 36 OFFCURVE",
"417 36 CURVE SMOOTH",
"253 36 OFFCURVE",
"142 156 OFFCURVE",
"142 341 CURVE SMOOTH",
"142 542 OFFCURVE",
"274 709 OFFCURVE",
"468 709 CURVE SMOOTH",
"585 709 OFFCURVE",
"667 649 OFFCURVE",
"704 556 CURVE",
"752 575 LINE",
"722 661 OFFCURVE",
"620 757 OFFCURVE",
"469 757 CURVE SMOOTH",
"255 757 OFFCURVE",
"92 571 OFFCURVE",
"92 339 CURVE SMOOTH",
"92 120 OFFCURVE",
"239 -12 OFFCURVE",
"418 -12 CURVE SMOOTH"
);
}
);
width = 803;
}
);
leftKerningGroup = O;
rightKerningGroup = C;
unicode = 0043;
},
{
color = 4;
glyphname = D;
lastChange = "2021-11-11 09:41:25 +0000";
layers = (
{
anchors = (
{
name = bottom;
position = "{339, 0}";
},
{
name = center;
position = "{207, 373}";
},
{
name = top;
position = "{443, 745}";
}
);
layerId = "9D27F576-B54C-4464-AC1E-5B62749637F3";
paths = (
{
closed = 1;
nodes = (
"302 0 LINE SMOOTH",
"554 0 OFFCURVE",
"723 173 OFFCURVE",
"723 408 CURVE SMOOTH",
"723 606 OFFCURVE",
"577 745 OFFCURVE",
"362 745 CURVE SMOOTH",
"132 745 LINE",
"28 0 LINE"
);
},
{
closed = 1;
nodes = (
"268 610 LINE",
"352 610 LINE SMOOTH",
"485 610 OFFCURVE",
"567 532 OFFCURVE",
"567 406 CURVE SMOOTH",
"567 246 OFFCURVE",
"458 135 OFFCURVE",
"302 135 CURVE SMOOTH",
"202 135 LINE"
);
}
);
width = 742;
},
{
anchors = (
{
name = bottom;
position = "{346, 0}";
},
{
name = center;
position = "{193, 373}";
},
{
name = top;
position = "{451, 745}";
}
);
layerId = "F445EC8D-29E3-46C7-99DD-9E4BBA6B70C5";
paths = (
{
closed = 1;
nodes = (
"314 0 LINE SMOOTH",
"563 0 OFFCURVE",
"716 172 OFFCURVE",
"716 415 CURVE SMOOTH",
"716 608 OFFCURVE",
"590 745 OFFCURVE",
"387 745 CURVE SMOOTH",
"155 745 LINE",
"51 0 LINE"
);
},
{
closed = 1;
nodes = (
"225 670 LINE",
"379 670 LINE SMOOTH",
"535 670 OFFCURVE",
"632 569 OFFCURVE",
"632 407 CURVE SMOOTH",
"632 211 OFFCURVE",
"503 75 OFFCURVE",
"317 75 CURVE SMOOTH",
"141 75 LINE"
);
}
);
width = 745;
},
{
anchors = (
{
name = bottom;
position = "{347, 0}";
},
{
name = center;
position = "{190, 373}";
},
{
name = top;
position = "{452, 745}";
}
);
layerId = "1C1CFC13-4213-4775-A214-C31251F9A91A";
paths = (
{
closed = 1;
nodes = (
"314 0 LINE SMOOTH",
"566 0 OFFCURVE",
"708 199 OFFCURVE",
"708 415 CURVE SMOOTH",
"708 618 OFFCURVE",
"579 745 OFFCURVE",
"382 745 CURVE SMOOTH",
"167 745 LINE",
"63 0 LINE"
);
},
{
closed = 1;
nodes = (
"211 700 LINE",
"376 700 LINE SMOOTH",
"553 700 OFFCURVE",
"658 591 OFFCURVE",
"658 415 CURVE SMOOTH",
"658 217 OFFCURVE",
"524 45 OFFCURVE",
"317 45 CURVE SMOOTH",
"119 45 LINE"
);
}
);
width = 746;
}
);
leftKerningGroup = I;
rightKerningGroup = O;
unicode = 0044;
},
{
color = 4;
glyphname = E;
lastChange = "2021-11-11 09:44:08 +0000";
layers = (
{
anchors = (
{
name = bottom;
position = "{279, 0}";
},
{
name = ogonek;
position = "{429, 0}";
},
{
name = top;
position = "{383, 745}";
}
);
layerId = "9D27F576-B54C-4464-AC1E-5B62749637F3";
paths = (
{
closed = 1;
nodes = (
"529 0 LINE",
"548 135 LINE",
"202 135 LINE",
"226 306 LINE",
"552 306 LINE",
"571 441 LINE",
"245 441 LINE",
"268 610 LINE",
"614 610 LINE",
"633 745 LINE",
"132 745 LINE",
"28 0 LINE"
);
}
);
width = 589;
},
{
anchors = (
{
name = bottom;
position = "{290, 0}";
},
{
name = ogonek;
position = "{431, 0}";
},
{
name = top;
position = "{395, 745}";
}
);
layerId = "F445EC8D-29E3-46C7-99DD-9E4BBA6B70C5";
paths = (
{
closed = 1;
nodes = (
"531 0 LINE",
"541 75 LINE",
"141 75 LINE",
"178 336 LINE",
"558 336 LINE",
"568 411 LINE",
"188 411 LINE",
"225 670 LINE",
"625 670 LINE",
"635 745 LINE",
"155 745 LINE",
"51 0 LINE"
);
}
);
width = 613;
},
{
anchors = (
{
name = bottom;
position = "{293, 0}";
},
{
name = ogonek;
position = "{423, 0}";
},
{
name = top;
position = "{398, 745}";
}
);
layerId = "1C1CFC13-4213-4775-A214-C31251F9A91A";
paths = (
{
closed = 1;
nodes = (
"523 0 LINE",
"529 45 LINE",
"119 45 LINE",
"162 351 LINE",
"552 351 LINE",
"558 396 LINE",
"168 396 LINE",
"211 700 LINE",
"621 700 LINE",
"627 745 LINE",
"167 745 LINE",
"63 0 LINE"
);
}
);
width = 615;
}
);
leftKerningGroup = H;
rightKerningGroup = E;
unicode = 0045;
},
{
color = 4;
glyphname = F;
lastChange = "2021-11-11 09:41:25 +0000";
layers = (
{
anchors = (
{
name = bottom;
position = "{256, 0}";
},
{
name = top;
position = "{360, 745}";
}
);
layerId = "9D27F576-B54C-4464-AC1E-5B62749637F3";
paths = (
{
closed = 1;
nodes = (
"183 0 LINE",
"223 286 LINE",
"528 286 LINE",
"547 421 LINE",
"242 421 LINE",
"268 610 LINE",
"623 610 LINE",
"642 745 LINE",
"132 745 LINE",
"28 0 LINE"
);
}
);
width = 587;
},
{
anchors = (
{
name = bottom;
position = "{253, 0}";
},
{
name = top;
position = "{358, 745}";
}
);
layerId = "F445EC8D-29E3-46C7-99DD-9E4BBA6B70C5";
paths = (
{
closed = 1;
nodes = (
"131 0 LINE",
"178 336 LINE",
"528 336 LINE",
"538 411 LINE",
"188 411 LINE",
"225 670 LINE",
"605 670 LINE",
"615 745 LINE",
"155 745 LINE",
"51 0 LINE"
);
}
);
width = 582;
},
{
anchors = (
{
name = bottom;
position = "{260, 0}";
},
{
name = top;
position = "{365, 745}";
}
);
layerId = "1C1CFC13-4213-4775-A214-C31251F9A91A";
paths = (
{
closed = 1;
nodes = (
"113 0 LINE",
"162 351 LINE",
"522 351 LINE",
"528 396 LINE",
"168 396 LINE",
"211 700 LINE",
"611 700 LINE",
"617 745 LINE",
"167 745 LINE",
"63 0 LINE"
);
}
);
width = 594;
}
);
leftKerningGroup = H;
rightKerningGroup = F;
unicode = 0046;
},
{
color = 4;
glyphname = G;
lastChange = "2021-11-11 09:41:25 +0000";
layers = (
{
anchors = (
{
name = bottom;
position = "{367, 0}";
},
{
name = top;
position = "{471, 745}";
}
);
layerId = "9D27F576-B54C-4464-AC1E-5B62749637F3";
paths = (
{
closed = 1;
nodes = (
"591 -12 OFFCURVE",
"765 99 OFFCURVE",
"786 326 CURVE SMOOTH",
"795 425 LINE",
"440 425 LINE",
"431 295 LINE",
"701 295 LINE",
"634 355 LINE",
"626 293 LINE SMOOTH",
"613 189 OFFCURVE",
"525 128 OFFCURVE",
"422 128 CURVE SMOOTH",
"298 128 OFFCURVE",
"214 216 OFFCURVE",
"214 353 CURVE SMOOTH",
"214 502 OFFCURVE",
"313 617 OFFCURVE",
"451 617 CURVE SMOOTH",
"544 617 OFFCURVE",
"605 564 OFFCURVE",
"626 492 CURVE",
"768 558 LINE",
"737 668 OFFCURVE",
"623 757 OFFCURVE",
"463 757 CURVE SMOOTH",
"232 757 OFFCURVE",
"59 573 OFFCURVE",
"59 346 CURVE SMOOTH",
"59 127 OFFCURVE",
"220 -12 OFFCURVE",
"411 -12 CURVE SMOOTH"
);
}
);
width = 809;
},
{
anchors = (
{
name = bottom;
position = "{376, 0}";
},
{
name = top;
position = "{481, 745}";
}
);
layerId = "F445EC8D-29E3-46C7-99DD-9E4BBA6B70C5";
paths = (
{
closed = 1;
nodes = (
"607 -12 OFFCURVE",
"760 128 OFFCURVE",
"779 323 CURVE SMOOTH",
"785 385 LINE",
"447 385 LINE",
"438 315 LINE",
"734 315 LINE",
"703 351 LINE",
"698 310 LINE SMOOTH",
"681 168 OFFCURVE",
"570 63 OFFCURVE",
"423 63 CURVE SMOOTH",
"267 63 OFFCURVE",
"161 174 OFFCURVE",
"161 346 CURVE SMOOTH",
"161 532 OFFCURVE",
"285 682 OFFCURVE",
"465 682 CURVE SMOOTH",
"574 682 OFFCURVE",
"651 627 OFFCURVE",
"682 536 CURVE",
"756 571 LINE",
"725 665 OFFCURVE",
"622 757 OFFCURVE",
"468 757 CURVE SMOOTH",
"256 757 OFFCURVE",
"81 581 OFFCURVE",
"81 343 CURVE SMOOTH",
"81 129 OFFCURVE",
"223 -12 OFFCURVE",
"415 -12 CURVE SMOOTH"
);
}
);
width = 827;
},
{
anchors = (
{
name = bottom;
position = "{384, 0}";
},
{
name = top;
position = "{489, 745}";
}
);
layerId = "1C1CFC13-4213-4775-A214-C31251F9A91A";
paths = (
{
closed = 1;
nodes = (
"628 -12 OFFCURVE",
"766 139 OFFCURVE",
"781 319 CURVE SMOOTH",
"785 368 LINE",
"451 368 LINE",
"448 323 LINE",
"753 323 LINE",
"734 349 LINE",
"731 319 LINE SMOOTH",
"715 157 OFFCURVE",
"591 36 OFFCURVE",
"426 36 CURVE SMOOTH",
"268 36 OFFCURVE",
"143 147 OFFCURVE",
"143 342 CURVE SMOOTH",
"143 546 OFFCURVE",
"279 709 OFFCURVE",
"475 709 CURVE SMOOTH",
"592 709 OFFCURVE",
"678 650 OFFCURVE",
"716 555 CURVE",
"764 576 LINE",
"734 663 OFFCURVE",
"632 757 OFFCURVE",
"476 757 CURVE SMOOTH",
"254 757 OFFCURVE",
"93 572 OFFCURVE",
"93 342 CURVE SMOOTH",
"93 131 OFFCURVE",
"233 -12 OFFCURVE",
"424 -12 CURVE SMOOTH"
);
}
);
width = 841;
}
);
leftKerningGroup = O;
rightKerningGroup = G;
unicode = 0047;
},
{
color = 4;
glyphname = G.ss01;
lastChange = "2021-11-11 09:41:25 +0000";
layers = (
{
anchors = (
{
name = bottom;
position = "{372, 0}";
},
{
name = top;
position = "{471, 745}";
}
);
layerId = "9D27F576-B54C-4464-AC1E-5B62749637F3";
paths = (
{
closed = 1;
nodes = (
"490 -12 OFFCURVE",
"579 20 OFFCURVE",
"643 98 CURVE",
"607 129 LINE",
"589 0 LINE",
"730 0 LINE",
"790 425 LINE",
"435 425 LINE",
"416 295 LINE",
"687 295 LINE",
"635 362 LINE",
"625 288 LINE SMOOTH",
"611 185 OFFCURVE",
"515 128 OFFCURVE",
"413 128 CURVE SMOOTH",
"288 128 OFFCURVE",
"204 216 OFFCURVE",
"204 353 CURVE SMOOTH",
"204 502 OFFCURVE",
"303 617 OFFCURVE",
"441 617 CURVE SMOOTH",
"534 617 OFFCURVE",
"595 564 OFFCURVE",
"616 492 CURVE",
"758 558 LINE",
"727 668 OFFCURVE",
"613 757 OFFCURVE",
"453 757 CURVE SMOOTH",
"221 757 OFFCURVE",
"49 571 OFFCURVE",
"49 345 CURVE SMOOTH",
"49 124 OFFCURVE",
"213 -12 OFFCURVE",
"400 -12 CURVE SMOOTH"
);
}
);
width = 800;
},
{
anchors = (
{
name = bottom;
position = "{375, 0}";
},
{
name = top;
position = "{476, 745}";
}
);
layerId = "F445EC8D-29E3-46C7-99DD-9E4BBA6B70C5";
paths = (
{
closed = 1;
nodes = (
"524 -12 OFFCURVE",
"627 44 OFFCURVE",
"688 133 CURVE",
"673 150 LINE",
"652 0 LINE",
"723 0 LINE",
"776 385 LINE",
"437 385 LINE",
"428 315 LINE",
"724 315 LINE",
"702 351 LINE",
"696 306 LINE SMOOTH",
"677 165 OFFCURVE",
"560 63 OFFCURVE",
"413 63 CURVE SMOOTH",
"265 63 OFFCURVE",
"151 165 OFFCURVE",
"151 345 CURVE SMOOTH",
"151 535 OFFCURVE",
"277 682 OFFCURVE",
"456 682 CURVE SMOOTH",
"564 682 OFFCURVE",
"641 627 OFFCURVE",
"672 536 CURVE",
"746 571 LINE",
"715 665 OFFCURVE",
"612 757 OFFCURVE",
"458 757 CURVE SMOOTH",
"243 757 OFFCURVE",
"71 581 OFFCURVE",
"71 345 CURVE SMOOTH",
"71 124 OFFCURVE",
"221 -12 OFFCURVE",
"404 -12 CURVE SMOOTH"
);
}
);
width = 811;
},
{
anchors = (
{
name = bottom;
position = "{377, 0}";
},
{
name = top;
position = "{476, 745}";
}
);
layerId = "1C1CFC13-4213-4775-A214-C31251F9A91A";
paths = (
{
closed = 1;
nodes = (
"539 -12 OFFCURVE",
"653 63 OFFCURVE",
"708 170 CURVE",
"695 185 LINE",
"669 0 LINE",
"719 0 LINE",
"771 368 LINE",
"437 368 LINE",
"430 323 LINE",
"741 323 LINE",
"716 359 LINE",
"711 319 LINE SMOOTH",
"691 157 OFFCURVE",
"568 36 OFFCURVE",
"411 36 CURVE SMOOTH",
"243 36 OFFCURVE",
"127 157 OFFCURVE",
"127 340 CURVE SMOOTH",
"127 552 OFFCURVE",
"268 709 OFFCURVE",
"459 709 CURVE SMOOTH",
"576 709 OFFCURVE",
"662 650 OFFCURVE",
"700 555 CURVE",
"748 576 LINE",
"718 663 OFFCURVE",
"615 757 OFFCURVE",
"462 757 CURVE SMOOTH",
"242 757 OFFCURVE",
"77 578 OFFCURVE",
"77 340 CURVE SMOOTH",
"77 134 OFFCURVE",
"217 -12 OFFCURVE",
"407 -12 CURVE SMOOTH"
);
}
);
width = 811;
},
{
associatedMasterId = "1C1CFC13-4213-4775-A214-C31251F9A91A";
layerId = "166F4FCC-9E13-4215-8637-87FEE999D628";
name = "Nov 30 20, 17:49";
paths = (
{
closed = 1;
nodes = (
"521 -12 OFFCURVE",
"631 62 OFFCURVE",
"686 168 CURVE",
"676 185 LINE",
"651 0 LINE",
"701 0 LINE",
"752 368 LINE",
"418 368 LINE",
"411 323 LINE",
"721 323 LINE",
"695 358 LINE",
"690 320 LINE SMOOTH",
"669 159 OFFCURVE",
"548 36 OFFCURVE",
"389 36 CURVE SMOOTH",
"227 36 OFFCURVE",
"108 149 OFFCURVE",
"108 338 CURVE SMOOTH",
"108 542 OFFCURVE",
"244 709 OFFCURVE",
"443 709 CURVE SMOOTH",
"561 709 OFFCURVE",
"645 650 OFFCURVE",
"682 557 CURVE",
"730 574 LINE",
"700 660 OFFCURVE",
"595 757 OFFCURVE",
"440 757 CURVE SMOOTH",
"219 757 OFFCURVE",
"58 569 OFFCURVE",
"58 338 CURVE SMOOTH",
"58 133 OFFCURVE",
"191 -12 OFFCURVE",
"389 -12 CURVE SMOOTH"
);
}
);
width = 795;
}
);
leftKerningGroup = O;
rightKerningGroup = G;
},
{
color = 4;
glyphname = G.ss03;
lastChange = "2021-11-11 09:41:25 +0000";
layers = (
{
anchors = (
{
name = bottom;
position = "{387, 0}";
},
{
name = top;
position = "{491, 745}";
}
);
layerId = "9D27F576-B54C-4464-AC1E-5B62749637F3";
paths = (
{
closed = 1;
nodes = (
"551 -12 OFFCURVE",
"689 44 OFFCURVE",
"768 177 CURVE",
"803 425 LINE",
"449 425 LINE",
"431 295 LINE",
"697 295 LINE",
"642 352 LINE",
"613 155 LINE",
"644 263 LINE",
"616 178 OFFCURVE",
"522 128 OFFCURVE",
"429 128 CURVE SMOOTH",
"309 128 OFFCURVE",
"214 209 OFFCURVE",
"214 354 CURVE SMOOTH",
"214 499 OFFCURVE",
"310 617 OFFCURVE",
"451 617 CURVE SMOOTH",
"544 617 OFFCURVE",
"605 564 OFFCURVE",
"626 492 CURVE",
"768 558 LINE",
"737 668 OFFCURVE",
"623 757 OFFCURVE",
"463 757 CURVE SMOOTH",
"235 757 OFFCURVE",
"59 579 OFFCURVE",
"59 347 CURVE SMOOTH",
"59 138 OFFCURVE",
"203 -12 OFFCURVE",
"419 -12 CURVE SMOOTH"
);
}
);
width = 810;
},
{
anchors = (
{
name = bottom;
position = "{388, 0}";
},
{
name = top;
position = "{493, 745}";
}
);
layerId = "F445EC8D-29E3-46C7-99DD-9E4BBA6B70C5";
paths = (
{
closed = 1;
nodes = (
"564 -12 OFFCURVE",
"685 56 OFFCURVE",
"753 167 CURVE",
"783 385 LINE",
"453 385 LINE",
"443 315 LINE",
"724 315 LINE",
"703 351 LINE",
"675 149 LINE",
"690 206 LINE",
"642 119 OFFCURVE",
"546 63 OFFCURVE",
"432 63 CURVE SMOOTH",
"278 63 OFFCURVE",
"161 165 OFFCURVE",
"161 346 CURVE SMOOTH",
"161 532 OFFCURVE",
"285 682 OFFCURVE",
"465 682 CURVE SMOOTH",
"574 682 OFFCURVE",
"651 627 OFFCURVE",
"682 536 CURVE",
"756 571 LINE",
"725 665 OFFCURVE",
"622 757 OFFCURVE",
"466 757 CURVE SMOOTH",
"244 757 OFFCURVE",
"81 571 OFFCURVE",
"81 343 CURVE SMOOTH",
"81 127 OFFCURVE",
"227 -12 OFFCURVE",
"425 -12 CURVE SMOOTH"
);
}
);
width = 808;
},
{
anchors = (
{
name = bottom;
position = "{386, 0}";
},
{
name = top;
position = "{491, 745}";
}
);
layerId = "1C1CFC13-4213-4775-A214-C31251F9A91A";
paths = (
{
closed = 1;
nodes = (
"579 -12 OFFCURVE",
"697 62 OFFCURVE",
"754 174 CURVE",
"782 368 LINE",
"459 368 LINE",
"452 323 LINE",
"757 323 LINE",
"732 359 LINE",
"703 151 LINE",
"717 208 LINE",
"676 104 OFFCURVE",
"566 36 OFFCURVE",
"437 36 CURVE SMOOTH",
"263 36 OFFCURVE",
"143 157 OFFCURVE",
"143 341 CURVE SMOOTH",
"143 551 OFFCURVE",
"284 709 OFFCURVE",
"475 709 CURVE SMOOTH",
"599 709 OFFCURVE",
"680 644 OFFCURVE",
"716 555 CURVE",
"764 576 LINE",
"734 663 OFFCURVE",
"631 757 OFFCURVE",
"478 757 CURVE SMOOTH",
"257 757 OFFCURVE",
"93 576 OFFCURVE",
"93 341 CURVE SMOOTH",
"93 132 OFFCURVE",
"239 -12 OFFCURVE",
"433 -12 CURVE SMOOTH"
);
}
);
width = 798;
}
);
leftKerningGroup = O;
leftMetricsKey = "=O";
rightKerningGroup = G;
},
{
color = 4;
glyphname = H;
lastChange = "2021-11-11 09:41:25 +0000";
layers = (
{
anchors = (
{
name = bottom;
position = "{328, 0}";
},
{
name = center;
position = "{411, 595}";
},
{
name = top;
position = "{432, 745}";
}
);
layerId = "9D27F576-B54C-4464-AC1E-5B62749637F3";
paths = (
{
closed = 1;
nodes = (
"183 0 LINE",
"223 288 LINE",
"513 288 LINE",
"473 0 LINE",
"628 0 LINE",
"732 745 LINE",
"577 745 LINE",
"532 423 LINE",
"242 423 LINE",
"287 745 LINE",
"132 745 LINE",
"28 0 LINE"
);
}
);
width = 732;
},
{
anchors = (
{
name = bottom;
position = "{331, 0}";
},
{
name = center;
position = "{414, 595}";
},
{
name = top;
position = "{436, 745}";
}
);
layerId = "F445EC8D-29E3-46C7-99DD-9E4BBA6B70C5";
paths = (
{
closed = 1;
nodes = (
"131 0 LINE",
"178 335 LINE",
"578 335 LINE",
"531 0 LINE",
"611 0 LINE",
"715 745 LINE",
"635 745 LINE",
"588 410 LINE",
"188 410 LINE",
"235 745 LINE",
"155 745 LINE",
"51 0 LINE"
);
}
);
width = 737;
},
{
anchors = (
{
name = bottom;
position = "{333, 0}";
},
{
name = center;
position = "{416, 595}";
},
{
name = top;
position = "{438, 745}";
}
);
layerId = "1C1CFC13-4213-4775-A214-C31251F9A91A";
paths = (
{
closed = 1;
nodes = (
"113 0 LINE",
"163 357 LINE",
"603 357 LINE",
"553 0 LINE",
"603 0 LINE",
"707 745 LINE",
"657 745 LINE",
"609 402 LINE",
"169 402 LINE",
"217 745 LINE",
"167 745 LINE",
"63 0 LINE"
);
}
);
width = 739;
}
);
leftKerningGroup = H;
rightKerningGroup = H;
unicode = 0048;
},
{
color = 4;
glyphname = I;
lastChange = "2021-11-11 09:44:25 +0000";
layers = (
{
anchors = (
{
name = bottom;
position = "{106, 0}";
},
{
name = ogonek;
position = "{133, 0}";
},
{
name = top;
position = "{210, 745}";
}
);
layerId = "9D27F576-B54C-4464-AC1E-5B62749637F3";
paths = (
{
closed = 1;
nodes = (
"183 0 LINE",
"287 745 LINE",
"132 745 LINE",
"28 0 LINE"
);
}
);
width = 287;
},
{
anchors = (
{
name = bottom;
position = "{91, 0}";
},
{
name = ogonek;
position = "{101, 0}";
},
{
name = top;
position = "{196, 745}";
}
);
layerId = "F445EC8D-29E3-46C7-99DD-9E4BBA6B70C5";
paths = (
{
closed = 1;
nodes = (
"131 0 LINE",
"235 745 LINE",
"155 745 LINE",
"51 0 LINE"
);
}
);
width = 257;
},
{
anchors = (
{
name = bottom;
position = "{88, 0}";
},
{
name = ogonek;
position = "{93, 0}";
},
{
name = top;
position = "{193, 745}";
}
);
layerId = "1C1CFC13-4213-4775-A214-C31251F9A91A";
paths = (
{
closed = 1;
nodes = (
"113 0 LINE",
"217 745 LINE",
"167 745 LINE",
"63 0 LINE"
);
}
);
width = 249;
}
);
leftKerningGroup = H;
rightKerningGroup = H;
unicode = 0049;
},
{
color = 4;
glyphname = I.ss01;
lastChange = "2021-11-11 09:45:45 +0000";
layers = (
{
anchors = (
{
name = bottom;
position = "{222, 0}";
},
{
name = ogonek;
position = "{242, 0}";
},
{
name = top;
position = "{327, 745}";
}
);
layerId = "9D27F576-B54C-4464-AC1E-5B62749637F3";
paths = (
{
closed = 1;
nodes = (
"420 0 LINE",
"439 135 LINE",
"320 135 LINE",
"386 610 LINE",
"505 610 LINE",
"524 745 LINE",
"129 745 LINE",
"110 610 LINE",
"230 610 LINE",
"164 135 LINE",
"44 135 LINE",
"25 0 LINE"
);
}
);
width = 520;
},
{
anchors = (
{
name = bottom;
position = "{144, 0}";
},
{
name = ogonek;
position = "{165, 0}";
},
{
name = top;
position = "{249, 745}";
}
);
layerId = "F445EC8D-29E3-46C7-99DD-9E4BBA6B70C5";
paths = (
{
closed = 1;
nodes = (
"285 0 LINE",
"294 70 LINE",
"195 70 LINE",
"281 675 LINE",
"380 675 LINE",
"389 745 LINE",
"109 745 LINE",
"100 675 LINE",
"200 675 LINE",
"114 70 LINE",
"14 70 LINE",
"5 0 LINE"
);
}
);
width = 365;
},
{
anchors = (
{
name = bottom;
position = "{146, 0}";
},
{
name = ogonek;
position = "{166, 0}";
},
{
name = top;
position = "{251, 745}";
}
);
layerId = "1C1CFC13-4213-4775-A214-C31251F9A91A";
paths = (
{
closed = 1;
nodes = (
"271 0 LINE",
"277 45 LINE",
"177 45 LINE",
"269 700 LINE",
"369 700 LINE",
"375 745 LINE",
"125 745 LINE",
"119 700 LINE",
"219 700 LINE",
"127 45 LINE",
"27 45 LINE",
"21 0 LINE"
);
}
);
width = 365;
}
);
leftKerningGroup = H;
rightKerningGroup = H;
},
{
color = 4;
glyphname = J;
lastChange = "2021-11-11 09:41:25 +0000";
layers = (
{
anchors = (
{
name = bottom;
position = "{171, 0}";
},
{
name = top;
position = "{322, 745}";
}
);
layerId = "9D27F576-B54C-4464-AC1E-5B62749637F3";
paths = (
{
closed = 1;
nodes = (
"60 0 LINE SMOOTH",
"216 0 OFFCURVE",
"308 96 OFFCURVE",
"324 210 CURVE SMOOTH",
"399 745 LINE",
"244 745 LINE",
"172 233 LINE SMOOTH",
"164 177 OFFCURVE",
"119 140 OFFCURVE",
"59 140 CURVE SMOOTH",
"14 140 LINE",
"-5 0 LINE"
);
}
);
width = 396;
},
{
anchors = (
{
name = bottom;
position = "{165, 0}";
},
{
name = top;
position = "{322, 745}";
}
);
layerId = "F445EC8D-29E3-46C7-99DD-9E4BBA6B70C5";
paths = (
{
closed = 1;
nodes = (
"58 0 LINE SMOOTH",
"180 0 OFFCURVE",
"269 79 OFFCURVE",
"286 205 CURVE SMOOTH",
"362 745 LINE",
"282 745 LINE",
"206 205 LINE SMOOTH",
"196 128 OFFCURVE",
"138 80 OFFCURVE",
"59 80 CURVE SMOOTH",
"29 80 LINE",
"18 0 LINE"
);
}
);
width = 383;
},
{
anchors = (
{
name = bottom;
position = "{164, 0}";
},
{
name = top;
position = "{324, 745}";
}
);
layerId = "1C1CFC13-4213-4775-A214-C31251F9A91A";
paths = (
{
closed = 1;
nodes = (
"67 0 LINE SMOOTH",
"179 0 OFFCURVE",
"255 72 OFFCURVE",
"271 191 CURVE SMOOTH",
"349 745 LINE",
"299 745 LINE",
"222 194 LINE SMOOTH",
"209 99 OFFCURVE",
"158 50 OFFCURVE",
"74 50 CURVE SMOOTH",
"36 50 LINE",
"29 0 LINE"
);
}
);
width = 380;
}
);
leftKerningGroup = J;
rightKerningGroup = J;
unicode = 004A;
},
{
color = 4;
glyphname = J.ss03;
lastChange = "2021-11-11 09:41:25 +0000";
layers = (
{
anchors = (
{
name = bottom;
position = "{293, 0}";
},
{
name = top;
position = "{551, 745}";
}
);
layerId = "9D27F576-B54C-4464-AC1E-5B62749637F3";
paths = (
{
closed = 1;
nodes = (
"428 -12 OFFCURVE",
"536 93 OFFCURVE",
"557 241 CURVE SMOOTH",
"628 745 LINE",
"473 745 LINE",
"404 249 LINE SMOOTH",
"394 176 OFFCURVE",
"342 128 OFFCURVE",
"267 128 CURVE SMOOTH",
"207 128 OFFCURVE",
"167 159 OFFCURVE",
"159 224 CURVE",
"12 193 LINE",
"20 68 OFFCURVE",
"115 -12 OFFCURVE",
"262 -12 CURVE SMOOTH"
);
}
);
width = 625;
},
{
anchors = (
{
name = bottom;
position = "{258, 0}";
},
{
name = top;
position = "{517, 745}";
}
);
layerId = "F445EC8D-29E3-46C7-99DD-9E4BBA6B70C5";
paths = (
{
closed = 1;
nodes = (
"376 -12 OFFCURVE",
"464 79 OFFCURVE",
"480 193 CURVE SMOOTH",
"557 745 LINE",
"476 745 LINE",
"400 197 LINE SMOOTH",
"389 120 OFFCURVE",
"330 63 OFFCURVE",
"245 63 CURVE SMOOTH",
"172 63 OFFCURVE",
"119 107 OFFCURVE",
"107 183 CURVE",
"31 165 LINE",
"43 60 OFFCURVE",
"123 -12 OFFCURVE",
"242 -12 CURVE SMOOTH"
);
}
);
width = 579;
},
{
anchors = (
{
name = bottom;
position = "{238, 0}";
},
{
name = top;
position = "{497, 745}";
}
);
layerId = "1C1CFC13-4213-4775-A214-C31251F9A91A";
paths = (
{
closed = 1;
nodes = (
"345 -12 OFFCURVE",
"427 68 OFFCURVE",
"443 183 CURVE SMOOTH",
"522 745 LINE",
"472 745 LINE",
"395 197 LINE SMOOTH",
"380 93 OFFCURVE",
"316 33 OFFCURVE",
"227 33 CURVE SMOOTH",
"146 33 OFFCURVE",
"90 82 OFFCURVE",
"76 164 CURVE",
"30 153 LINE",
"44 52 OFFCURVE",
"119 -12 OFFCURVE",
"222 -12 CURVE SMOOTH"
);
}
);
width = 553;
}
);
leftKerningGroup = J.ss03;
rightKerningGroup = J;
rightMetricsKey = "=J";
},
{
color = 4;
glyphname = K;
lastChange = "2021-11-11 09:41:25 +0000";
layers = (
{
anchors = (
{
name = bottom;
position = "{306, 0}";
},
{
name = top;
position = "{410, 745}";
}
);
layerId = "9D27F576-B54C-4464-AC1E-5B62749637F3";
paths = (
{
closed = 1;
nodes = (
"183 0 LINE",
"211 204 LINE",
"326 322 LINE",
"467 0 LINE",
"638 0 LINE",
"416 499 LINE",
"391 389 LINE",
"736 745 LINE",
"542 745 LINE",
"194 387 LINE",
"235 372 LINE",
"287 745 LINE",
"132 745 LINE",
"28 0 LINE"
);
}
);
width = 687;
},
{
anchors = (
{
name = bottom;
position = "{290, 0}";
},
{
name = top;
position = "{395, 745}";
}
);
layerId = "F445EC8D-29E3-46C7-99DD-9E4BBA6B70C5";
paths = (
{
closed = 1;
nodes = (
"131 0 LINE",
"162 225 LINE",
"311 371 LINE",
"516 0 LINE",
"606 0 LINE",
"355 460 LINE",
"343 403 LINE",
"692 745 LINE",
"589 745 LINE",
"154 319 LINE",
"174 310 LINE",
"235 745 LINE",
"155 745 LINE",
"51 0 LINE"
);
}
);
width = 655;
},
{
anchors = (
{
name = bottom;
position = "{289, 0}";
},
{
name = top;
position = "{394, 745}";
}
);
layerId = "1C1CFC13-4213-4775-A214-C31251F9A91A";
paths = (
{
closed = 1;
nodes = (
"113 0 LINE",
"147 241 LINE",
"303 392 LINE",
"535 0 LINE",
"593 0 LINE",
"331 444 LINE",
"324 409 LINE",
"674 745 LINE",
"607 745 LINE",
"132 294 LINE",
"153 285 LINE",
"217 745 LINE",
"167 745 LINE",
"63 0 LINE"
);
}
);
width = 652;
}
);
leftKerningGroup = H;
rightKerningGroup = K;
unicode = 004B;
},
{
color = 4;
glyphname = K.ss01;
lastChange = "2021-11-11 09:41:25 +0000";
layers = (
{
anchors = (
{
name = bottom;
position = "{312, 0}";
},
{
name = top;
position = "{416, 745}";
}
);
layerId = "9D27F576-B54C-4464-AC1E-5B62749637F3";
paths = (
{
closed = 1;
nodes = (
"632 0 LINE",
"408 374 LINE",
"699 745 LINE",
"509 745 LINE",
"242 408 LINE",
"239 358 LINE",
"449 0 LINE"
);
},
{
closed = 1;
nodes = (
"177 0 LINE",
"281 745 LINE",
"126 745 LINE",
"22 0 LINE"
);
},
{
closed = 1;
nodes = (
"352 303 LINE",
"372 443 LINE",
"168 443 LINE",
"148 303 LINE"
);
}
);
width = 671;
},
{
anchors = (
{
name = bottom;
position = "{303, 0}";
},
{
name = top;
position = "{408, 745}";
}
);
layerId = "F445EC8D-29E3-46C7-99DD-9E4BBA6B70C5";
paths = (
{
closed = 1;
nodes = (
"603 0 LINE",
"379 374 LINE",
"670 745 LINE",
"574 745 LINE",
"299 399 LINE",
"300 346 LINE",
"512 0 LINE"
);
},
{
closed = 1;
nodes = (
"123 0 LINE",
"227 745 LINE",
"147 745 LINE",
"43 0 LINE"
);
},
{
closed = 1;
nodes = (
"336 335 LINE",
"346 410 LINE",
"142 410 LINE",
"132 335 LINE"
);
}
);
width = 652;
},
{
anchors = (
{
name = bottom;
position = "{305, 0}";
},
{
name = top;
position = "{410, 745}";
}
);
layerId = "1C1CFC13-4213-4775-A214-C31251F9A91A";
paths = (
{
closed = 1;
nodes = (
"586 0 LINE",
"362 374 LINE",
"653 745 LINE",
"593 745 LINE",
"309 388 LINE",
"309 366 LINE",
"527 0 LINE"
);
},
{
closed = 1;
nodes = (
"106 0 LINE",
"210 745 LINE",
"160 745 LINE",
"56 0 LINE"
);
},
{
closed = 1;
nodes = (
"334 350 LINE",
"340 395 LINE",
"136 395 LINE",
"130 350 LINE"
);
}
);
width = 652;
}
);
leftKerningGroup = H;
rightKerningGroup = K;
},
{
color = 4;
glyphname = K.ss03;
lastChange = "2021-11-11 09:41:25 +0000";
layers = (
{
anchors = (
{
name = bottom;
position = "{318, 0}";
},
{
name = top;
position = "{422, 745}";
}
);
layerId = "9D27F576-B54C-4464-AC1E-5B62749637F3";
paths = (
{
closed = 1;
nodes = (
"662 -6 LINE",
"680 124 LINE",
"645 124 LINE SMOOTH",
"597 124 OFFCURVE",
"570 150 OFFCURVE",
"541 215 CURVE SMOOTH",
"416 499 LINE",
"392 389 LINE",
"737 745 LINE",
"543 745 LINE",
"194 387 LINE",
"235 372 LINE",
"288 745 LINE",
"133 745 LINE",
"28 0 LINE",
"183 0 LINE",
"212 204 LINE",
"326 322 LINE",
"397 160 LINE SMOOTH",
"458 17 OFFCURVE",
"502 -6 OFFCURVE",
"620 -6 CURVE SMOOTH"
);
}
);
width = 712;
},
{
anchors = (
{
name = bottom;
position = "{304, 0}";
},
{
name = top;
position = "{409, 745}";
}
);
layerId = "F445EC8D-29E3-46C7-99DD-9E4BBA6B70C5";
paths = (
{
closed = 1;
nodes = (
"634 -6 LINE",
"644 64 LINE",
"631 64 LINE SMOOTH",
"575 64 OFFCURVE",
"556 91 OFFCURVE",
"526 147 CURVE SMOOTH",
"355 460 LINE",
"343 403 LINE",
"692 745 LINE",
"589 745 LINE",
"154 319 LINE",
"174 310 LINE",
"235 745 LINE",
"155 745 LINE",
"50 0 LINE",
"130 0 LINE",
"162 225 LINE",
"311 371 LINE",
"436 142 LINE SMOOTH",
"509 8 OFFCURVE",
"540 -6 OFFCURVE",
"621 -6 CURVE SMOOTH"
);
}
);
width = 684;
},
{
anchors = (
{
name = bottom;
position = "{306, 0}";
},
{
name = top;
position = "{411, 745}";
}
);
layerId = "1C1CFC13-4213-4775-A214-C31251F9A91A";
paths = (
{
closed = 1;
nodes = (
"626 -6 LINE",
"633 39 LINE",
"619 39 LINE SMOOTH",
"568 39 OFFCURVE",
"555 60 OFFCURVE",
"520 120 CURVE SMOOTH",
"330 444 LINE",
"324 409 LINE",
"674 745 LINE",
"604 745 LINE",
"131 294 LINE",
"152 285 LINE",
"217 745 LINE",
"167 745 LINE",
"62 0 LINE",
"112 0 LINE",
"146 241 LINE",
"302 391 LINE",
"462 120 LINE SMOOTH",
"524 15 OFFCURVE",
"537 -6 OFFCURVE",
"611 -6 CURVE SMOOTH"
);
}
);
width = 686;
}
);
leftKerningGroup = H;
leftMetricsKey = "=K";
rightKerningGroup = K;
rightMetricsKey = "=K";
},
{
color = 4;
glyphname = L;
lastChange = "2021-11-11 09:59:06 +0000";
layers = (
{
anchors = (
{
name = bottom;
position = "{263, 0}";
},
{
name = center;
position = "{157, 373}";
},
{
name = dot;
position = "{393, 372}";
},
{
name = top;
position = "{210, 745}";
},
{
name = topright;
position = "{417, 546}";
}
);
layerId = "9D27F576-B54C-4464-AC1E-5B62749637F3";
paths = (
{
closed = 1;
nodes = (
"498 0 LINE",
"517 135 LINE",
"202 135 LINE",
"287 745 LINE",
"132 745 LINE",
"28 0 LINE"
);
}
);
width = 547;
},
{
anchors = (
{
name = bottom;
position = "{256, 0}";
},
{
name = center;
position = "{143, 373}";
},
{
name = dot;
position = "{348, 372}";
},
{
name = top;
position = "{195, 745}";
},
{
name = topright;
position = "{371, 536}";
}
);
layerId = "F445EC8D-29E3-46C7-99DD-9E4BBA6B70C5";
paths = (
{
closed = 1;
nodes = (
"461 0 LINE",
"471 75 LINE",
"141 75 LINE",
"235 745 LINE",
"155 745 LINE",
"51 0 LINE"
);
}
);
width = 532;
},
{
anchors = (
{
name = bottom;
position = "{258, 0}";
},
{
name = center;
position = "{140, 373}";
},
{
name = dot;
position = "{335, 372}";
},
{
name = top;
position = "{192, 745}";
},
{
name = topright;
position = "{357, 526}";
}
);
layerId = "1C1CFC13-4213-4775-A214-C31251F9A91A";
paths = (
{
closed = 1;
nodes = (
"453 0 LINE",
"459 45 LINE",
"119 45 LINE",
"217 745 LINE",
"167 745 LINE",
"63 0 LINE"
);
}
);
width = 534;
}
);
leftKerningGroup = H;
rightKerningGroup = L;
unicode = 004C;
},
{
color = 4;
glyphname = M;
lastChange = "2021-11-11 09:41:25 +0000";
layers = (
{
anchors = (
{
name = bottom;
position = "{418, 0}";
},
{
name = top;
position = "{522, 745}";
}
);
guideLines = (
{
position = "{253, 501}";
}
);
layerId = "9D27F576-B54C-4464-AC1E-5B62749637F3";
paths = (
{
closed = 1;
nodes = (
"183 0 LINE",
"262 569 LINE",
"198 595 LINE",
"434 190 LINE",
"454 190 LINE",
"777 553 LINE",
"732 569 LINE",
"653 0 LINE",
"808 0 LINE",
"912 745 LINE",
"757 745 LINE",
"415 367 LINE",
"511 360 LINE",
"282 745 LINE",
"132 745 LINE",
"28 0 LINE"
);
}
);
width = 912;
},
{
anchors = (
{
name = bottom;
position = "{381, 0}";
},
{
name = top;
position = "{486, 745}";
}
);
layerId = "F445EC8D-29E3-46C7-99DD-9E4BBA6B70C5";
paths = (
{
closed = 1;
nodes = (
"131 0 LINE",
"220 637 LINE",
"198 627 LINE",
"411 230 LINE",
"415 230 LINE",
"750 627 LINE",
"720 637 LINE",
"631 0 LINE",
"711 0 LINE",
"815 745 LINE",
"745 745 LINE",
"403 339 LINE",
"444 339 LINE",
"225 745 LINE",
"155 745 LINE",
"51 0 LINE"
);
}
);
width = 837;
},
{
anchors = (
{
name = bottom;
position = "{373, 0}";
},
{
name = top;
position = "{478, 745}";
}
);
layerId = "1C1CFC13-4213-4775-A214-C31251F9A91A";
paths = (
{
closed = 1;
nodes = (
"113 0 LINE",
"206 662 LINE",
"200 654 LINE",
"406 246 LINE",
"408 246 LINE",
"736 654 LINE",
"726 662 LINE",
"633 0 LINE",
"683 0 LINE",
"787 745 LINE",
"747 745 LINE",
"409 323 LINE",
"421 323 LINE",
"207 745 LINE",
"167 745 LINE",
"63 0 LINE"
);
}
);
width = 819;
}
);
leftKerningGroup = H;
rightKerningGroup = H;
unicode = 004D;
},
{
color = 4;
glyphname = N;
lastChange = "2021-11-11 09:41:25 +0000";
layers = (
{
anchors = (
{
name = bottom;
position = "{333, 0}";
},
{
name = top;
position = "{437, 745}";
}
);
layerId = "9D27F576-B54C-4464-AC1E-5B62749637F3";
paths = (
{
closed = 1;
nodes = (
"183 0 LINE",
"259 546 LINE",
"208 531 LINE",
"518 0 LINE",
"638 0 LINE",
"742 745 LINE",
"587 745 LINE",
"511 203 LINE",
"568 218 LINE",
"251 745 LINE",
"132 745 LINE",
"28 0 LINE"
);
}
);
width = 742;
},
{
anchors = (
{
name = bottom;
position = "{331, 0}";
},
{
name = top;
position = "{436, 745}";
}
);
layerId = "F445EC8D-29E3-46C7-99DD-9E4BBA6B70C5";
paths = (
{
closed = 1;
nodes = (
"131 0 LINE",
"219 631 LINE",
"197 631 LINE",
"541 0 LINE",
"611 0 LINE",
"715 745 LINE",
"635 745 LINE",
"547 118 LINE",
"569 118 LINE",
"225 745 LINE",
"155 745 LINE",
"51 0 LINE"
);
}
);
width = 737;
},
{
anchors = (
{
name = bottom;
position = "{333, 0}";
},
{
name = top;
position = "{438, 745}";
}
);
layerId = "1C1CFC13-4213-4775-A214-C31251F9A91A";
paths = (
{
closed = 1;
nodes = (
"113 0 LINE",
"207 671 LINE",
"191 671 LINE",
"563 0 LINE",
"603 0 LINE",
"707 745 LINE",
"657 745 LINE",
"564 78 LINE",
"577 78 LINE",
"207 745 LINE",
"167 745 LINE",
"63 0 LINE"
);
}
);
width = 739;
}
);
leftKerningGroup = H;
rightKerningGroup = H;
unicode = 004E;
},
{
color = 4;
glyphname = Eng;
lastChange = "2021-11-11 09:41:25 +0000";
layers = (
{
layerId = "9D27F576-B54C-4464-AC1E-5B62749637F3";
paths = (
{
closed = 1;
nodes = (
"527 -222 OFFCURVE",
"617 -149 OFFCURVE",
"635 -20 CURVE SMOOTH",
"742 745 LINE",
"587 745 LINE",
"514 225 LINE",
"558 234 LINE",
"251 745 LINE",
"132 745 LINE",
"28 0 LINE",
"183 0 LINE",
"256 530 LINE",
"213 521 LINE",
"528 -16 LINE",
"504 109 LINE",
"485 -20 LINE SMOOTH",
"478 -67 OFFCURVE",
"446 -92 OFFCURVE",
"389 -92 CURVE SMOOTH",
"377 -92 OFFCURVE",
"366 -91 OFFCURVE",
"356 -89 CURVE",
"338 -217 LINE",
"350 -220 OFFCURVE",
"371 -222 OFFCURVE",
"391 -222 CURVE SMOOTH"
);
}
);
width = 742;
},
{
layerId = "F445EC8D-29E3-46C7-99DD-9E4BBA6B70C5";
paths = (
{
closed = 1;
nodes = (
"499 -220 OFFCURVE",
"588 -161 OFFCURVE",
"604 -50 CURVE SMOOTH",
"715 745 LINE",
"635 745 LINE",
"546 114 LINE",
"568 118 LINE",
"225 745 LINE",
"155 745 LINE",
"51 0 LINE",
"131 0 LINE",
"220 635 LINE",
"198 631 LINE",
"550 -18 LINE",
"539 50 LINE",
"523 -50 LINE SMOOTH",
"512 -117 OFFCURVE",
"471 -145 OFFCURVE",
"417 -145 CURVE SMOOTH",
"404 -145 OFFCURVE",
"389 -144 OFFCURVE",
"375 -142 CURVE",
"365 -216 LINE",
"374 -219 OFFCURVE",
"395 -220 OFFCURVE",
"404 -220 CURVE SMOOTH"
);
}
);
width = 737;
},
{
layerId = "1C1CFC13-4213-4775-A214-C31251F9A91A";
paths = (
{
closed = 1;
nodes = (
"507 -220 OFFCURVE",
"581 -165 OFFCURVE",
"595 -62 CURVE SMOOTH",
"707 745 LINE",
"657 745 LINE",
"562 61 LINE",
"584 66 LINE",
"207 745 LINE",
"167 745 LINE",
"63 0 LINE",
"113 0 LINE",
"209 684 LINE",
"187 679 LINE",
"572 -17 LINE",
"560 50 LINE",
"544 -62 LINE SMOOTH",
"533 -136 OFFCURVE",
"489 -175 OFFCURVE",
"420 -175 CURVE SMOOTH",
"409 -175 OFFCURVE",
"395 -174 OFFCURVE",
"384 -172 CURVE",
"378 -215 LINE",
"387 -218 OFFCURVE",
"400 -220 OFFCURVE",
"416 -220 CURVE SMOOTH"
);
}
);
width = 740;
}
);
leftKerningGroup = H;
leftMetricsKey = "=N";
rightKerningGroup = H;
rightMetricsKey = "=N";
unicode = 014A;
},
{
color = 4;
glyphname = O;
lastChange = "2021-11-11 09:46:05 +0000";
layers = (
{
anchors = (
{
name = bottom;
position = "{403, 0}";
},
{
name = center;
position = "{455, 373}";
},
{
name = ogonek;
position = "{423, 0}";
},
{
name = top;
position = "{507, 745}";
},
{
name = topright;
position = "{928, 745}";
}
);
layerId = "9D27F576-B54C-4464-AC1E-5B62749637F3";
paths = (
{
closed = 1;
nodes = (
"666 -12 OFFCURVE",
"851 166 OFFCURVE",
"851 398 CURVE SMOOTH",
"851 604 OFFCURVE",
"694 757 OFFCURVE",
"476 757 CURVE SMOOTH",
"242 757 OFFCURVE",
"59 580 OFFCURVE",
"59 349 CURVE SMOOTH",
"59 142 OFFCURVE",
"217 -12 OFFCURVE",
"434 -12 CURVE SMOOTH"
);
},
{
closed = 1;
nodes = (
"306 128 OFFCURVE",
"214 218 OFFCURVE",
"214 349 CURVE SMOOTH",
"214 505 OFFCURVE",
"331 617 OFFCURVE",
"476 617 CURVE SMOOTH",
"604 617 OFFCURVE",
"696 528 OFFCURVE",
"696 397 CURVE SMOOTH",
"696 241 OFFCURVE",
"579 128 OFFCURVE",
"434 128 CURVE SMOOTH"
);
}
);
width = 882;
},
{
anchors = (
{
name = bottom;
position = "{403, 0}";
},
{
name = center;
position = "{456, 373}";
},
{
name = ogonek;
position = "{423, 0}";
},
{
name = top;
position = "{508, 745}";
},
{
name = topright;
position = "{928, 745}";
}
);
layerId = "F445EC8D-29E3-46C7-99DD-9E4BBA6B70C5";
paths = (
{
closed = 1;
nodes = (
"655 -12 OFFCURVE",
"829 174 OFFCURVE",
"829 400 CURVE SMOOTH",
"829 611 OFFCURVE",
"678 757 OFFCURVE",
"479 757 CURVE SMOOTH",
"253 757 OFFCURVE",
"81 572 OFFCURVE",
"81 345 CURVE SMOOTH",
"81 133 OFFCURVE",
"232 -12 OFFCURVE",
"430 -12 CURVE SMOOTH"
);
},
{
closed = 1;
nodes = (
"269 63 OFFCURVE",
"161 188 OFFCURVE",
"161 347 CURVE SMOOTH",
"161 525 OFFCURVE",
"295 682 OFFCURVE",
"479 682 CURVE SMOOTH",
"642 682 OFFCURVE",
"749 557 OFFCURVE",
"749 398 CURVE SMOOTH",
"749 220 OFFCURVE",
"614 63 OFFCURVE",
"431 63 CURVE SMOOTH"
);
}
);
width = 881;
},
{
anchors = (
{
name = bottom;
position = "{407, 0}";
},
{
name = center;
position = "{459, 373}";
},
{
name = ogonek;
position = "{427, 0}";
},
{
name = top;
position = "{512, 745}";
},
{
name = topright;
position = "{935, 745}";
}
);
layerId = "1C1CFC13-4213-4775-A214-C31251F9A91A";
paths = (
{
closed = 1;
nodes = (
"654 -12 OFFCURVE",
"825 173 OFFCURVE",
"825 403 CURVE SMOOTH",
"825 612 OFFCURVE",
"677 757 OFFCURVE",
"484 757 CURVE SMOOTH",
"264 757 OFFCURVE",
"93 573 OFFCURVE",
"93 343 CURVE SMOOTH",
"93 133 OFFCURVE",
"242 -12 OFFCURVE",
"434 -12 CURVE SMOOTH"
);
},
{
closed = 1;
nodes = (
"257 36 OFFCURVE",
"143 175 OFFCURVE",
"143 344 CURVE SMOOTH",
"143 534 OFFCURVE",
"286 709 OFFCURVE",
"484 709 CURVE SMOOTH",
"663 709 OFFCURVE",
"775 569 OFFCURVE",
"775 402 CURVE SMOOTH",
"775 207 OFFCURVE",
"630 36 OFFCURVE",
"434 36 CURVE SMOOTH"
);
}
);
width = 887;
}
);
leftKerningGroup = O;
rightKerningGroup = O;
unicode = 004F;
},
{
color = 4;
glyphname = Ohorn;
lastChange = "2021-11-11 09:41:25 +0000";
layers = (
{
anchors = (
{
name = bottom;
position = "{407, 0}";
},
{
name = center;
position = "{459, 373}";
},
{
name = top;
position = "{512, 745}";
}
);
layerId = "1C1CFC13-4213-4775-A214-C31251F9A91A";
paths = (
{
closed = 1;
nodes = (
"654 -12 OFFCURVE",
"825 173 OFFCURVE",
"825 403 CURVE SMOOTH",
"825 552 OFFCURVE",
"750 668 OFFCURVE",
"637 723 CURVE",
"628 716 LINE",
"694 716 LINE SMOOTH",
"760 716 OFFCURVE",
"804 759 OFFCURVE",
"804 825 CURVE SMOOTH",
"804 846 OFFCURVE",
"800 868 OFFCURVE",
"794 893 CURVE",
"749 893 LINE",
"754 872 OFFCURVE",
"759 850 OFFCURVE",
"759 829 CURVE SMOOTH",
"759 781 OFFCURVE",
"734 757 OFFCURVE",
"697 757 CURVE SMOOTH",
"484 757 LINE SMOOTH",
"264 757 OFFCURVE",
"93 573 OFFCURVE",
"93 343 CURVE SMOOTH",
"93 133 OFFCURVE",
"242 -12 OFFCURVE",
"434 -12 CURVE SMOOTH"
);
},
{
closed = 1;
nodes = (
"257 36 OFFCURVE",
"143 175 OFFCURVE",
"143 344 CURVE SMOOTH",
"143 534 OFFCURVE",
"286 709 OFFCURVE",
"484 709 CURVE SMOOTH",
"663 709 OFFCURVE",
"775 569 OFFCURVE",
"775 402 CURVE SMOOTH",
"775 207 OFFCURVE",
"630 36 OFFCURVE",
"434 36 CURVE SMOOTH"
);
}
);
width = 887;
},
{
anchors = (
{
name = bottom;
position = "{403, 0}";
},
{
name = center;
position = "{455, 373}";
},
{
name = top;
position = "{508, 745}";
}
);
layerId = "F445EC8D-29E3-46C7-99DD-9E4BBA6B70C5";
paths = (
{
closed = 1;
nodes = (
"655 -12 OFFCURVE",
"829 174 OFFCURVE",
"829 400 CURVE SMOOTH",
"829 527 OFFCURVE",
"775 629 OFFCURVE",
"689 692 CURVE",
"678 683 LINE",
"715 683 LINE SMOOTH",
"794 683 OFFCURVE",
"844 736 OFFCURVE",
"844 823 CURVE SMOOTH",
"844 845 OFFCURVE",
"838 867 OFFCURVE",
"829 889 CURVE",
"737 889 LINE",
"745 867 OFFCURVE",
"750 845 OFFCURVE",
"750 824 CURVE SMOOTH",
"750 770 OFFCURVE",
"719 757 OFFCURVE",
"691 757 CURVE SMOOTH",
"479 757 LINE SMOOTH",
"253 757 OFFCURVE",
"81 572 OFFCURVE",
"81 345 CURVE SMOOTH",
"81 133 OFFCURVE",
"232 -12 OFFCURVE",
"430 -12 CURVE SMOOTH"
);
},
{
closed = 1;
nodes = (
"269 63 OFFCURVE",
"161 188 OFFCURVE",
"161 347 CURVE SMOOTH",
"161 525 OFFCURVE",
"295 682 OFFCURVE",
"479 682 CURVE SMOOTH",
"642 682 OFFCURVE",
"749 557 OFFCURVE",
"749 398 CURVE SMOOTH",
"749 220 OFFCURVE",
"614 63 OFFCURVE",
"431 63 CURVE SMOOTH"
);
}
);
width = 881;
},
{
anchors = (
{
name = bottom;
position = "{403, 0}";
},
{
name = center;
position = "{456, 373}";
},
{
name = top;
position = "{507, 745}";
}
);
layerId = "9D27F576-B54C-4464-AC1E-5B62749637F3";
paths = (
{
closed = 1;
nodes = (
"666 -12 OFFCURVE",
"851 166 OFFCURVE",
"851 398 CURVE SMOOTH",
"851 518 OFFCURVE",
"798 619 OFFCURVE",
"712 683 CURVE",
"676 654 LINE",
"759 654 LINE SMOOTH",
"823 654 OFFCURVE",
"863 718 OFFCURVE",
"863 818 CURVE SMOOTH",
"863 839 OFFCURVE",
"858 862 OFFCURVE",
"851 882 CURVE",
"725 882 LINE",
"730 861 OFFCURVE",
"735 839 OFFCURVE",
"735 820 CURVE SMOOTH",
"735 760 OFFCURVE",
"699 757 OFFCURVE",
"680 757 CURVE SMOOTH",
"476 757 LINE SMOOTH",
"242 757 OFFCURVE",
"59 580 OFFCURVE",
"59 349 CURVE SMOOTH",
"59 142 OFFCURVE",
"217 -12 OFFCURVE",
"434 -12 CURVE SMOOTH"
);
},
{
closed = 1;
nodes = (
"306 128 OFFCURVE",
"214 218 OFFCURVE",
"214 349 CURVE SMOOTH",
"214 505 OFFCURVE",
"331 617 OFFCURVE",
"476 617 CURVE SMOOTH",
"604 617 OFFCURVE",
"696 528 OFFCURVE",
"696 397 CURVE SMOOTH",
"696 241 OFFCURVE",
"579 128 OFFCURVE",
"434 128 CURVE SMOOTH"
);
}
);
width = 882;
}
);
leftKerningGroup = O;
leftMetricsKey = "=O";
rightKerningGroup = O;
rightMetricsKey = "=O";
unicode = 01A0;
},
{
color = 4;
glyphname = OE;
lastChange = "2021-11-11 09:41:25 +0000";
layers = (
{
layerId = "9D27F576-B54C-4464-AC1E-5B62749637F3";
paths = (
{
closed = 1;
nodes = (
"534 -12 OFFCURVE",
"624 21 OFFCURVE",
"696 87 CURVE",
"669 119 LINE",
"653 0 LINE",
"1153 0 LINE",
"1173 135 LINE",
"828 135 LINE",
"852 306 LINE",
"1177 306 LINE",
"1196 441 LINE",
"871 441 LINE",
"894 610 LINE",
"1239 610 LINE",
"1258 745 LINE",
"757 745 LINE",
"736 588 LINE",
"774 614 LINE",
"706 712 OFFCURVE",
"602 757 OFFCURVE",
"476 757 CURVE SMOOTH",
"242 757 OFFCURVE",
"59 580 OFFCURVE",
"59 349 CURVE SMOOTH",
"59 142 OFFCURVE",
"217 -12 OFFCURVE",
"434 -12 CURVE SMOOTH"
);
},
{
closed = 1;
nodes = (
"306 128 OFFCURVE",
"214 218 OFFCURVE",
"214 349 CURVE SMOOTH",
"214 505 OFFCURVE",
"331 617 OFFCURVE",
"476 617 CURVE SMOOTH",
"604 617 OFFCURVE",
"696 528 OFFCURVE",
"696 397 CURVE SMOOTH",
"696 241 OFFCURVE",
"579 128 OFFCURVE",
"434 128 CURVE SMOOTH"
);
}
);
width = 1214;
},
{
layerId = "F445EC8D-29E3-46C7-99DD-9E4BBA6B70C5";
paths = (
{
closed = 1;
nodes = (
"555 -12 OFFCURVE",
"663 39 OFFCURVE",
"735 139 CURVE",
"725 152 LINE",
"704 0 LINE",
"1184 0 LINE",
"1194 75 LINE",
"795 75 LINE",
"832 336 LINE",
"1211 336 LINE",
"1221 411 LINE",
"842 411 LINE",
"879 670 LINE",
"1278 670 LINE",
"1288 745 LINE",
"808 745 LINE",
"780 545 LINE",
"796 554 LINE",
"740 686 OFFCURVE",
"623 757 OFFCURVE",
"479 757 CURVE SMOOTH",
"253 757 OFFCURVE",
"81 572 OFFCURVE",
"81 345 CURVE SMOOTH",
"81 133 OFFCURVE",
"232 -12 OFFCURVE",
"430 -12 CURVE SMOOTH"
);
},
{
closed = 1;
nodes = (
"269 63 OFFCURVE",
"161 188 OFFCURVE",
"161 347 CURVE SMOOTH",
"161 525 OFFCURVE",
"295 682 OFFCURVE",
"479 682 CURVE SMOOTH",
"642 682 OFFCURVE",
"749 557 OFFCURVE",
"749 398 CURVE SMOOTH",
"749 220 OFFCURVE",
"614 63 OFFCURVE",
"431 63 CURVE SMOOTH"
);
}
);
width = 1266;
},
{
layerId = "1C1CFC13-4213-4775-A214-C31251F9A91A";
paths = (
{
closed = 1;
nodes = (
"574 -12 OFFCURVE",
"696 64 OFFCURVE",
"764 178 CURVE",
"756 194 LINE",
"729 0 LINE",
"1189 0 LINE",
"1195 45 LINE",
"786 45 LINE",
"829 351 LINE",
"1218 351 LINE",
"1224 396 LINE",
"835 396 LINE",
"878 700 LINE",
"1287 700 LINE",
"1293 745 LINE",
"833 745 LINE",
"799 498 LINE",
"812 510 LINE",
"770 660 OFFCURVE",
"642 757 OFFCURVE",
"484 757 CURVE SMOOTH",
"264 757 OFFCURVE",
"93 573 OFFCURVE",
"93 343 CURVE SMOOTH",
"93 133 OFFCURVE",
"242 -12 OFFCURVE",
"434 -12 CURVE SMOOTH"
);
},
{
closed = 1;
nodes = (
"257 36 OFFCURVE",
"143 175 OFFCURVE",
"143 344 CURVE SMOOTH",
"143 534 OFFCURVE",
"286 709 OFFCURVE",
"484 709 CURVE SMOOTH",
"663 709 OFFCURVE",
"775 569 OFFCURVE",
"775 402 CURVE SMOOTH",
"775 207 OFFCURVE",
"630 36 OFFCURVE",
"434 36 CURVE SMOOTH"
);
}
);
width = 1281;
}
);
leftKerningGroup = O;
leftMetricsKey = "=O";
rightKerningGroup = E;
rightMetricsKey = "=E";
unicode = 0152;
},
{
color = 4;
glyphname = P;
lastChange = "2021-11-11 09:41:25 +0000";
layers = (
{
anchors = (
{
name = bottom;
position = "{287, 0}";
},
{
name = top;
position = "{391, 745}";
}
);
layerId = "9D27F576-B54C-4464-AC1E-5B62749637F3";
paths = (
{
closed = 1;
nodes = (
"183 0 LINE",
"221 270 LINE",
"363 270 LINE SMOOTH",
"537 270 OFFCURVE",
"648 371 OFFCURVE",
"648 520 CURVE SMOOTH",
"648 668 OFFCURVE",
"550 745 OFFCURVE",
"407 745 CURVE SMOOTH",
"132 745 LINE",
"28 0 LINE"
);
},
{
closed = 1;
nodes = (
"268 610 LINE",
"394 610 LINE SMOOTH",
"454 610 OFFCURVE",
"492 575 OFFCURVE",
"492 520 CURVE SMOOTH",
"492 453 OFFCURVE",
"442 405 OFFCURVE",
"373 405 CURVE SMOOTH",
"240 405 LINE"
);
}
);
width = 649;
},
{
anchors = (
{
name = bottom;
position = "{283, 0}";
},
{
name = top;
position = "{388, 745}";
}
);
layerId = "F445EC8D-29E3-46C7-99DD-9E4BBA6B70C5";
paths = (
{
closed = 1;
nodes = (
"131 0 LINE",
"171 290 LINE",
"359 290 LINE SMOOTH",
"516 290 OFFCURVE",
"621 391 OFFCURVE",
"621 528 CURVE SMOOTH",
"621 660 OFFCURVE",
"535 745 OFFCURVE",
"399 745 CURVE SMOOTH",
"155 745 LINE",
"51 0 LINE"
);
},
{
closed = 1;
nodes = (
"225 670 LINE",
"395 670 LINE SMOOTH",
"484 670 OFFCURVE",
"541 618 OFFCURVE",
"541 530 CURVE SMOOTH",
"541 434 OFFCURVE",
"468 365 OFFCURVE",
"363 365 CURVE SMOOTH",
"182 365 LINE"
);
}
);
width = 642;
},
{
anchors = (
{
name = bottom;
position = "{284, 0}";
},
{
name = top;
position = "{389, 745}";
}
);
layerId = "1C1CFC13-4213-4775-A214-C31251F9A91A";
paths = (
{
closed = 1;
nodes = (
"113 0 LINE",
"155 300 LINE",
"353 300 LINE SMOOTH",
"509 300 OFFCURVE",
"613 408 OFFCURVE",
"613 542 CURVE SMOOTH",
"613 669 OFFCURVE",
"521 745 OFFCURVE",
"399 745 CURVE SMOOTH",
"167 745 LINE",
"63 0 LINE"
);
},
{
closed = 1;
nodes = (
"211 700 LINE",
"395 700 LINE SMOOTH",
"496 700 OFFCURVE",
"563 638 OFFCURVE",
"563 542 CURVE SMOOTH",
"563 436 OFFCURVE",
"480 345 OFFCURVE",
"357 345 CURVE SMOOTH",
"161 345 LINE"
);
}
);
width = 642;
}
);
leftKerningGroup = H;
rightKerningGroup = P;
unicode = 0050;
},
{
color = 4;
glyphname = Thorn;
lastChange = "2021-11-11 09:41:25 +0000";
layers = (
{
layerId = "9D27F576-B54C-4464-AC1E-5B62749637F3";
paths = (
{
closed = 1;
nodes = (
"177 0 LINE",
"196 135 LINE",
"357 135 LINE SMOOTH",
"531 135 OFFCURVE",
"642 236 OFFCURVE",
"642 385 CURVE SMOOTH",
"642 533 OFFCURVE",
"544 610 OFFCURVE",
"401 610 CURVE SMOOTH",
"262 610 LINE",
"281 745 LINE",
"126 745 LINE",
"22 0 LINE"
);
},
{
closed = 1;
nodes = (
"243 475 LINE",
"388 475 LINE SMOOTH",
"448 475 OFFCURVE",
"486 440 OFFCURVE",
"486 385 CURVE SMOOTH",
"486 318 OFFCURVE",
"436 270 OFFCURVE",
"367 270 CURVE SMOOTH",
"215 270 LINE"
);
}
);
width = 674;
},
{
layerId = "F445EC8D-29E3-46C7-99DD-9E4BBA6B70C5";
paths = (
{
closed = 1;
nodes = (
"123 0 LINE",
"143 145 LINE",
"351 145 LINE SMOOTH",
"508 145 OFFCURVE",
"613 246 OFFCURVE",
"613 383 CURVE SMOOTH",
"613 515 OFFCURVE",
"527 600 OFFCURVE",
"391 600 CURVE SMOOTH",
"207 600 LINE",
"227 745 LINE",
"147 745 LINE",
"43 0 LINE"
);
},
{
closed = 1;
nodes = (
"196 525 LINE",
"387 525 LINE SMOOTH",
"476 525 OFFCURVE",
"533 473 OFFCURVE",
"533 385 CURVE SMOOTH",
"533 289 OFFCURVE",
"460 220 OFFCURVE",
"355 220 CURVE SMOOTH",
"154 220 LINE"
);
}
);
width = 654;
},
{
layerId = "1C1CFC13-4213-4775-A214-C31251F9A91A";
paths = (
{
closed = 1;
nodes = (
"109 0 LINE",
"130 150 LINE",
"349 150 LINE SMOOTH",
"499 150 OFFCURVE",
"609 252 OFFCURVE",
"609 395 CURVE SMOOTH",
"609 512 OFFCURVE",
"524 595 OFFCURVE",
"395 595 CURVE SMOOTH",
"192 595 LINE",
"213 745 LINE",
"163 745 LINE",
"59 0 LINE"
);
},
{
closed = 1;
nodes = (
"186 550 LINE",
"391 550 LINE SMOOTH",
"492 550 OFFCURVE",
"559 488 OFFCURVE",
"559 395 CURVE SMOOTH",
"559 281 OFFCURVE",
"471 195 OFFCURVE",
"353 195 CURVE SMOOTH",
"136 195 LINE"
);
}
);
width = 653;
}
);
leftKerningGroup = H;
rightKerningGroup = P;
unicode = 00DE;
},
{
color = 4;
glyphname = Q;
lastChange = "2021-11-11 09:41:25 +0000";
layers = (
{
anchors = (
{
name = bottom;
position = "{403, 0}";
},
{
name = top;
position = "{507, 745}";
}
);
layerId = "9D27F576-B54C-4464-AC1E-5B62749637F3";
paths = (
{
closed = 1;
nodes = (
"666 -12 OFFCURVE",
"851 166 OFFCURVE",
"851 398 CURVE SMOOTH",
"851 604 OFFCURVE",
"694 757 OFFCURVE",
"476 757 CURVE SMOOTH",
"242 757 OFFCURVE",
"59 580 OFFCURVE",
"59 349 CURVE SMOOTH",
"59 142 OFFCURVE",
"217 -12 OFFCURVE",
"434 -12 CURVE SMOOTH"
);
},
{
closed = 1;
nodes = (
"306 128 OFFCURVE",
"214 218 OFFCURVE",
"214 349 CURVE SMOOTH",
"214 505 OFFCURVE",
"331 617 OFFCURVE",
"476 617 CURVE SMOOTH",
"604 617 OFFCURVE",
"696 528 OFFCURVE",
"696 397 CURVE SMOOTH",
"696 241 OFFCURVE",
"579 128 OFFCURVE",
"434 128 CURVE SMOOTH"
);
},
{
closed = 1;
nodes = (
"709 -90 LINE",
"539 298 LINE",
"387 298 LINE",
"554 -90 LINE"
);
}
);
width = 882;
},
{
anchors = (
{
name = bottom;
position = "{403, 0}";
},
{
name = top;
position = "{508, 745}";
}
);
layerId = "F445EC8D-29E3-46C7-99DD-9E4BBA6B70C5";
paths = (
{
closed = 1;
nodes = (
"655 -12 OFFCURVE",
"829 174 OFFCURVE",
"829 400 CURVE SMOOTH",
"829 611 OFFCURVE",
"678 757 OFFCURVE",
"479 757 CURVE SMOOTH",
"253 757 OFFCURVE",
"81 572 OFFCURVE",
"81 345 CURVE SMOOTH",
"81 133 OFFCURVE",
"232 -12 OFFCURVE",
"430 -12 CURVE SMOOTH"
);
},
{
closed = 1;
nodes = (
"269 63 OFFCURVE",
"161 188 OFFCURVE",
"161 347 CURVE SMOOTH",
"161 525 OFFCURVE",
"295 682 OFFCURVE",
"479 682 CURVE SMOOTH",
"642 682 OFFCURVE",
"749 557 OFFCURVE",
"749 398 CURVE SMOOTH",
"749 220 OFFCURVE",
"614 63 OFFCURVE",
"431 63 CURVE SMOOTH"
);
},
{
closed = 1;
nodes = (
"694 -90 LINE",
"484 298 LINE",
"399 298 LINE",
"609 -90 LINE"
);
}
);
width = 881;
},
{
anchors = (
{
name = bottom;
position = "{407, 0}";
},
{
name = top;
position = "{512, 745}";
}
);
layerId = "1C1CFC13-4213-4775-A214-C31251F9A91A";
paths = (
{
closed = 1;
nodes = (
"654 -12 OFFCURVE",
"825 173 OFFCURVE",
"825 403 CURVE SMOOTH",
"825 612 OFFCURVE",
"677 757 OFFCURVE",
"484 757 CURVE SMOOTH",
"264 757 OFFCURVE",
"93 573 OFFCURVE",
"93 343 CURVE SMOOTH",
"93 133 OFFCURVE",
"242 -12 OFFCURVE",
"434 -12 CURVE SMOOTH"
);
},
{
closed = 1;
nodes = (
"257 36 OFFCURVE",
"143 175 OFFCURVE",
"143 344 CURVE SMOOTH",
"143 534 OFFCURVE",
"286 709 OFFCURVE",
"484 709 CURVE SMOOTH",
"663 709 OFFCURVE",
"775 569 OFFCURVE",
"775 402 CURVE SMOOTH",
"775 207 OFFCURVE",
"630 36 OFFCURVE",
"434 36 CURVE SMOOTH"
);
},
{
closed = 1;
nodes = (
"684 -90 LINE",
"489 298 LINE",
"433 298 LINE",
"628 -90 LINE"
);
}
);
width = 887;
}
);
leftKerningGroup = O;
rightKerningGroup = O;
unicode = 0051;
},
{
color = 4;
glyphname = Q.ss03;
lastChange = "2021-11-11 09:41:25 +0000";
layers = (
{
layerId = "9D27F576-B54C-4464-AC1E-5B62749637F3";
paths = (
{
closed = 1;
nodes = (
"666 -12 OFFCURVE",
"851 166 OFFCURVE",
"851 398 CURVE SMOOTH",
"851 604 OFFCURVE",
"694 757 OFFCURVE",
"476 757 CURVE SMOOTH",
"242 757 OFFCURVE",
"59 580 OFFCURVE",
"59 349 CURVE SMOOTH",
"59 142 OFFCURVE",
"217 -12 OFFCURVE",
"434 -12 CURVE SMOOTH"
);
},
{
closed = 1;
nodes = (
"306 128 OFFCURVE",
"214 218 OFFCURVE",
"214 349 CURVE SMOOTH",
"214 505 OFFCURVE",
"331 617 OFFCURVE",
"476 617 CURVE SMOOTH",
"604 617 OFFCURVE",
"696 528 OFFCURVE",
"696 397 CURVE SMOOTH",
"696 241 OFFCURVE",
"579 128 OFFCURVE",
"434 128 CURVE SMOOTH"
);
},
{
closed = 1;
nodes = (
"694 -180 LINE",
"712 -50 LINE",
"539 -50 LINE SMOOTH",
"496 -50 OFFCURVE",
"476 -40 OFFCURVE",
"481 0 CURVE SMOOTH",
"490 67 LINE",
"340 67 LINE",
"328 -19 LINE SMOOTH",
"312 -132 OFFCURVE",
"365 -180 OFFCURVE",
"508 -180 CURVE SMOOTH"
);
}
);
width = 882;
},
{
layerId = "F445EC8D-29E3-46C7-99DD-9E4BBA6B70C5";
paths = (
{
closed = 1;
nodes = (
"655 -12 OFFCURVE",
"829 174 OFFCURVE",
"829 400 CURVE SMOOTH",
"829 611 OFFCURVE",
"678 757 OFFCURVE",
"479 757 CURVE SMOOTH",
"253 757 OFFCURVE",
"81 572 OFFCURVE",
"81 345 CURVE SMOOTH",
"81 133 OFFCURVE",
"232 -12 OFFCURVE",
"430 -12 CURVE SMOOTH"
);
},
{
closed = 1;
nodes = (
"269 63 OFFCURVE",
"161 188 OFFCURVE",
"161 347 CURVE SMOOTH",
"161 525 OFFCURVE",
"295 682 OFFCURVE",
"479 682 CURVE SMOOTH",
"642 682 OFFCURVE",
"749 557 OFFCURVE",
"749 398 CURVE SMOOTH",
"749 220 OFFCURVE",
"614 63 OFFCURVE",
"431 63 CURVE SMOOTH"
);
},
{
closed = 1;
nodes = (
"704 -180 LINE",
"713 -115 LINE",
"543 -115 LINE SMOOTH",
"469 -115 OFFCURVE",
"433 -88 OFFCURVE",
"441 -20 CURVE SMOOTH",
"444 5 LINE",
"369 5 LINE",
"366 -20 LINE SMOOTH",
"353 -125 OFFCURVE",
"409 -180 OFFCURVE",
"536 -180 CURVE SMOOTH"
);
}
);
width = 881;
},
{
layerId = "1C1CFC13-4213-4775-A214-C31251F9A91A";
paths = (
{
closed = 1;
nodes = (
"654 -12 OFFCURVE",
"825 173 OFFCURVE",
"825 403 CURVE SMOOTH",
"825 612 OFFCURVE",
"677 757 OFFCURVE",
"484 757 CURVE SMOOTH",
"264 757 OFFCURVE",
"93 573 OFFCURVE",
"93 343 CURVE SMOOTH",
"93 133 OFFCURVE",
"242 -12 OFFCURVE",
"434 -12 CURVE SMOOTH"
);
},
{
closed = 1;
nodes = (
"257 36 OFFCURVE",
"143 175 OFFCURVE",
"143 344 CURVE SMOOTH",
"143 534 OFFCURVE",
"286 709 OFFCURVE",
"484 709 CURVE SMOOTH",
"663 709 OFFCURVE",
"775 569 OFFCURVE",
"775 402 CURVE SMOOTH",
"775 207 OFFCURVE",
"630 36 OFFCURVE",
"434 36 CURVE SMOOTH"
);
},
{
closed = 1;
nodes = (
"711 -180 LINE",
"717 -140 LINE",
"558 -140 LINE SMOOTH",
"469 -140 OFFCURVE",
"429 -96 OFFCURVE",
"439 -20 CURVE SMOOTH",
"443 12 LINE",
"398 12 LINE",
"394 -20 LINE SMOOTH",
"381 -121 OFFCURVE",
"434 -180 OFFCURVE",
"550 -180 CURVE SMOOTH"
);
}
);
width = 887;
}
);
leftKerningGroup = O;
leftMetricsKey = "=O";
rightKerningGroup = O;
rightMetricsKey = "=O";
},
{
color = 4;
glyphname = R;
lastChange = "2021-11-11 09:41:25 +0000";
layers = (
{
anchors = (
{
name = bottom;
position = "{296, 0}";
},
{
name = top;
position = "{400, 745}";
}
);
layerId = "9D27F576-B54C-4464-AC1E-5B62749637F3";
paths = (
{
closed = 1;
nodes = (
"183 0 LINE",
"221 270 LINE",
"407 270 LINE",
"314 332 LINE",
"453 0 LINE",
"618 0 LINE",
"493 292 LINE",
"590 330 OFFCURVE",
"648 413 OFFCURVE",
"648 520 CURVE SMOOTH",
"648 668 OFFCURVE",
"550 745 OFFCURVE",
"407 745 CURVE SMOOTH",
"132 745 LINE",
"28 0 LINE"
);
},
{
closed = 1;
nodes = (
"268 610 LINE",
"394 610 LINE SMOOTH",
"454 610 OFFCURVE",
"492 575 OFFCURVE",
"492 520 CURVE SMOOTH",
"492 453 OFFCURVE",
"442 405 OFFCURVE",
"373 405 CURVE SMOOTH",
"240 405 LINE"
);
}
);
width = 678;
},
{
anchors = (
{
name = bottom;
position = "{278, 0}";
},
{
name = top;
position = "{383, 745}";
}
);
layerId = "F445EC8D-29E3-46C7-99DD-9E4BBA6B70C5";
paths = (
{
closed = 1;
nodes = (
"131 0 LINE",
"171 290 LINE",
"394 290 LINE",
"344 323 LINE",
"482 0 LINE",
"571 0 LINE",
"441 300 LINE",
"551 329 OFFCURVE",
"621 416 OFFCURVE",
"621 528 CURVE SMOOTH",
"621 660 OFFCURVE",
"535 745 OFFCURVE",
"399 745 CURVE SMOOTH",
"155 745 LINE",
"51 0 LINE"
);
},
{
closed = 1;
nodes = (
"225 670 LINE",
"395 670 LINE SMOOTH",
"484 670 OFFCURVE",
"541 618 OFFCURVE",
"541 530 CURVE SMOOTH",
"541 434 OFFCURVE",
"468 365 OFFCURVE",
"363 365 CURVE SMOOTH",
"182 365 LINE"
);
}
);
width = 642;
},
{
anchors = (
{
name = bottom;
position = "{277, 0}";
},
{
name = top;
position = "{382, 745}";
}
);
layerId = "1C1CFC13-4213-4775-A214-C31251F9A91A";
paths = (
{
closed = 1;
nodes = (
"113 0 LINE",
"155 300 LINE",
"407 300 LINE",
"357 333 LINE",
"501 0 LINE",
"557 0 LINE",
"422 308 LINE",
"539 334 OFFCURVE",
"613 429 OFFCURVE",
"613 542 CURVE SMOOTH",
"613 669 OFFCURVE",
"521 745 OFFCURVE",
"399 745 CURVE SMOOTH",
"167 745 LINE",
"63 0 LINE"
);
},
{
closed = 1;
nodes = (
"211 700 LINE",
"395 700 LINE SMOOTH",
"496 700 OFFCURVE",
"563 638 OFFCURVE",
"563 542 CURVE SMOOTH",
"563 436 OFFCURVE",
"480 345 OFFCURVE",
"357 345 CURVE SMOOTH",
"161 345 LINE"
);
}
);
width = 638;
}
);
leftKerningGroup = H;
rightKerningGroup = R;
unicode = 0052;
},
{
color = 4;
glyphname = R.ss03;
lastChange = "2021-11-11 09:41:25 +0000";
layers = (
{
anchors = (
{
name = bottom;
position = "{287, 0}";
},
{
name = top;
position = "{391, 745}";
}
);
layerId = "9D27F576-B54C-4464-AC1E-5B62749637F3";
paths = (
{
closed = 1;
nodes = (
"183 0 LINE",
"221 270 LINE",
"394 270 LINE SMOOTH",
"437 270 OFFCURVE",
"457 249 OFFCURVE",
"451 209 CURVE SMOOTH",
"441 139 OFFCURVE",
"432 70 OFFCURVE",
"433 0 CURVE",
"589 0 LINE",
"589 73 OFFCURVE",
"598 147 OFFCURVE",
"609 220 CURVE SMOOTH",
"620 296 OFFCURVE",
"595 342 OFFCURVE",
"538 365 CURVE",
"540 316 LINE",
"609 360 OFFCURVE",
"648 432 OFFCURVE",
"648 520 CURVE SMOOTH",
"648 668 OFFCURVE",
"550 745 OFFCURVE",
"407 745 CURVE SMOOTH",
"132 745 LINE",
"28 0 LINE"
);
},
{
closed = 1;
nodes = (
"268 610 LINE",
"394 610 LINE SMOOTH",
"454 610 OFFCURVE",
"492 575 OFFCURVE",
"492 520 CURVE SMOOTH",
"492 453 OFFCURVE",
"442 405 OFFCURVE",
"373 405 CURVE SMOOTH",
"240 405 LINE"
);
}
);
width = 671;
},
{
anchors = (
{
name = bottom;
position = "{278, 0}";
},
{
name = top;
position = "{383, 745}";
}
);
layerId = "F445EC8D-29E3-46C7-99DD-9E4BBA6B70C5";
paths = (
{
closed = 1;
nodes = (
"131 0 LINE",
"171 290 LINE",
"434 290 LINE SMOOTH",
"476 290 OFFCURVE",
"498 271 OFFCURVE",
"492 230 CURVE SMOOTH",
"481 153 OFFCURVE",
"470 77 OFFCURVE",
"470 0 CURVE",
"550 0 LINE",
"551 79 OFFCURVE",
"562 157 OFFCURVE",
"573 236 CURVE SMOOTH",
"581 298 OFFCURVE",
"557 336 OFFCURVE",
"506 350 CURVE",
"509 328 LINE",
"579 370 OFFCURVE",
"621 441 OFFCURVE",
"621 528 CURVE SMOOTH",
"621 660 OFFCURVE",
"535 745 OFFCURVE",
"399 745 CURVE SMOOTH",
"155 745 LINE",
"51 0 LINE"
);
},
{
closed = 1;
nodes = (
"225 670 LINE",
"395 670 LINE SMOOTH",
"484 670 OFFCURVE",
"541 618 OFFCURVE",
"541 530 CURVE SMOOTH",
"541 434 OFFCURVE",
"468 365 OFFCURVE",
"363 365 CURVE SMOOTH",
"182 365 LINE"
);
}
);
width = 643;
},
{
anchors = (
{
name = bottom;
position = "{284, 0}";
},
{
name = top;
position = "{389, 745}";
}
);
layerId = "1C1CFC13-4213-4775-A214-C31251F9A91A";
paths = (
{
closed = 1;
nodes = (
"113 0 LINE",
"155 300 LINE",
"451 300 LINE SMOOTH",
"495 300 OFFCURVE",
"514 280 OFFCURVE",
"508 240 CURVE SMOOTH",
"497 160 OFFCURVE",
"486 80 OFFCURVE",
"485 0 CURVE",
"535 0 LINE",
"536 80 OFFCURVE",
"547 160 OFFCURVE",
"558 240 CURVE SMOOTH",
"567 302 OFFCURVE",
"539 339 OFFCURVE",
"468 342 CURVE",
"476 327 LINE",
"561 365 OFFCURVE",
"613 448 OFFCURVE",
"613 542 CURVE SMOOTH",
"613 669 OFFCURVE",
"521 745 OFFCURVE",
"399 745 CURVE SMOOTH",
"167 745 LINE",
"63 0 LINE"
);
},
{
closed = 1;
nodes = (
"211 700 LINE",
"395 700 LINE SMOOTH",
"496 700 OFFCURVE",
"563 638 OFFCURVE",
"563 542 CURVE SMOOTH",
"563 436 OFFCURVE",
"480 345 OFFCURVE",
"357 345 CURVE SMOOTH",
"161 345 LINE"
);
}
);
width = 653;
}
);
leftKerningGroup = H;
leftMetricsKey = "=R";
rightKerningGroup = R;
},
{
color = 4;
glyphname = S;
lastChange = "2021-11-11 12:18:29 +0000";
layers = (
{
anchors = (
{
name = bottom;
position = "{287, 0}";
},
{
name = top;
position = "{391, 745}";
}
);
layerId = "9D27F576-B54C-4464-AC1E-5B62749637F3";
paths = (
{
closed = 1;
nodes = (
"476 -12 OFFCURVE",
"597 89 OFFCURVE",
"597 222 CURVE SMOOTH",
"597 317 OFFCURVE",
"543 379 OFFCURVE",
"434 417 CURVE SMOOTH",
"305 462 LINE SMOOTH",
"260 478 OFFCURVE",
"239 501 OFFCURVE",
"239 537 CURVE SMOOTH",
"239 589 OFFCURVE",
"281 622 OFFCURVE",
"348 622 CURVE SMOOTH",
"422 622 OFFCURVE",
"479 582 OFFCURVE",
"501 514 CURVE",
"631 565 LINE",
"600 683 OFFCURVE",
"494 757 OFFCURVE",
"352 757 CURVE SMOOTH",
"200 757 OFFCURVE",
"84 656 OFFCURVE",
"84 524 CURVE SMOOTH",
"84 428 OFFCURVE",
"136 362 OFFCURVE",
"245 325 CURVE SMOOTH",
"377 280 LINE SMOOTH",
"422 265 OFFCURVE",
"441 243 OFFCURVE",
"441 211 CURVE SMOOTH",
"441 160 OFFCURVE",
"394 123 OFFCURVE",
"327 123 CURVE SMOOTH",
"248 123 OFFCURVE",
"181 172 OFFCURVE",
"154 251 CURVE",
"23 200 LINE",
"54 71 OFFCURVE",
"175 -12 OFFCURVE",
"330 -12 CURVE SMOOTH"
);
}
);
width = 650;
},
{
anchors = (
{
name = bottom;
position = "{286, 0}";
},
{
name = top;
position = "{391, 745}";
}
);
layerId = "F445EC8D-29E3-46C7-99DD-9E4BBA6B70C5";
paths = (
{
closed = 1;
nodes = (
"474 -12 OFFCURVE",
"570 90 OFFCURVE",
"570 203 CURVE SMOOTH",
"570 290 OFFCURVE",
"516 356 OFFCURVE",
"410 389 CURVE SMOOTH",
"296 424 LINE SMOOTH",
"224 446 OFFCURVE",
"192 490 OFFCURVE",
"192 544 CURVE SMOOTH",
"192 627 OFFCURVE",
"261 685 OFFCURVE",
"357 685 CURVE SMOOTH",
"446 685 OFFCURVE",
"510 636 OFFCURVE",
"530 553 CURVE",
"602 577 LINE",
"580 674 OFFCURVE",
"489 757 OFFCURVE",
"357 757 CURVE SMOOTH",
"213 757 OFFCURVE",
"113 657 OFFCURVE",
"113 537 CURVE SMOOTH",
"113 452 OFFCURVE",
"164 384 OFFCURVE",
"258 355 CURVE SMOOTH",
"388 315 LINE SMOOTH",
"454 295 OFFCURVE",
"490 258 OFFCURVE",
"490 199 CURVE SMOOTH",
"490 120 OFFCURVE",
"429 60 OFFCURVE",
"317 60 CURVE SMOOTH",
"213 60 OFFCURVE",
"141 112 OFFCURVE",
"118 213 CURVE",
"44 190 LINE",
"70 69 OFFCURVE",
"177 -12 OFFCURVE",
"311 -12 CURVE SMOOTH"
);
}
);
width = 647;
},
{
anchors = (
{
name = bottom;
position = "{283, 0}";
},
{
name = top;
position = "{388, 745}";
}
);
layerId = "1C1CFC13-4213-4775-A214-C31251F9A91A";
paths = (
{
closed = 1;
nodes = (
"450 -12 OFFCURVE",
"551 75 OFFCURVE",
"551 195 CURVE SMOOTH",
"551 283 OFFCURVE",
"504 345 OFFCURVE",
"413 373 CURVE SMOOTH",
"291 410 LINE SMOOTH",
"205 436 OFFCURVE",
"172 478 OFFCURVE",
"172 549 CURVE SMOOTH",
"172 643 OFFCURVE",
"250 714 OFFCURVE",
"354 714 CURVE SMOOTH",
"444 714 OFFCURVE",
"513 660 OFFCURVE",
"537 569 CURVE",
"583 583 LINE",
"562 686 OFFCURVE",
"470 757 OFFCURVE",
"357 757 CURVE SMOOTH",
"226 757 OFFCURVE",
"124 666 OFFCURVE",
"124 548 CURVE SMOOTH",
"124 458 OFFCURVE",
"172 393 OFFCURVE",
"264 365 CURVE SMOOTH",
"399 325 LINE SMOOTH",
"468 305 OFFCURVE",
"503 259 OFFCURVE",
"503 192 CURVE SMOOTH",
"503 98 OFFCURVE",
"424 31 OFFCURVE",
"311 31 CURVE SMOOTH",
"206 31 OFFCURVE",
"128 89 OFFCURVE",
"100 188 CURVE",
"53 174 LINE",
"77 64 OFFCURVE",
"181 -12 OFFCURVE",
"310 -12 CURVE SMOOTH"
);
}
);
width = 640;
}
);
leftKerningGroup = S;
rightKerningGroup = S;
unicode = 0053;
},
{
color = 4;
glyphname = Schwa;
lastChange = "2021-11-11 09:41:25 +0000";
layers = (
{
layerId = "9D27F576-B54C-4464-AC1E-5B62749637F3";
paths = (
{
closed = 1;
nodes = (
"604 -12 OFFCURVE",
"778 165 OFFCURVE",
"778 393 CURVE SMOOTH",
"778 593 OFFCURVE",
"644 757 OFFCURVE",
"425 757 CURVE SMOOTH",
"281 757 OFFCURVE",
"156 687 OFFCURVE",
"101 579 CURVE",
"224 518 LINE",
"266 583 OFFCURVE",
"333 617 OFFCURVE",
"413 617 CURVE SMOOTH",
"550 617 OFFCURVE",
"638 517 OFFCURVE",
"621 372 CURVE",
"617 222 OFFCURVE",
"518 128 OFFCURVE",
"395 128 CURVE SMOOTH",
"287 128 OFFCURVE",
"219 202 OFFCURVE",
"219 297 CURVE SMOOTH",
"219 320 OFFCURVE",
"223 341 OFFCURVE",
"225 352 CURVE",
"149 297 LINE",
"644 297 LINE",
"652 417 LINE",
"67 417 LINE",
"62 399 OFFCURVE",
"54 366 OFFCURVE",
"54 317 CURVE SMOOTH",
"54 117 OFFCURVE",
"190 -12 OFFCURVE",
"380 -12 CURVE SMOOTH"
);
}
);
width = 809;
},
{
layerId = "F445EC8D-29E3-46C7-99DD-9E4BBA6B70C5";
paths = (
{
closed = 1;
nodes = (
"626 -12 OFFCURVE",
"780 177 OFFCURVE",
"780 399 CURVE SMOOTH",
"780 616 OFFCURVE",
"627 757 OFFCURVE",
"434 757 CURVE SMOOTH",
"296 757 OFFCURVE",
"169 686 OFFCURVE",
"111 581 CURVE",
"179 545 LINE",
"230 630 OFFCURVE",
"324 682 OFFCURVE",
"429 682 CURVE SMOOTH",
"600 682 OFFCURVE",
"714 545 OFFCURVE",
"699 373 CURVE",
"689 183 OFFCURVE",
"565 63 OFFCURVE",
"408 63 CURVE SMOOTH",
"262 63 OFFCURVE",
"164 161 OFFCURVE",
"164 295 CURVE SMOOTH",
"164 307 OFFCURVE",
"165 330 OFFCURVE",
"167 343 CURVE",
"134 325 LINE",
"715 325 LINE",
"720 400 LINE",
"87 400 LINE",
"84 386 OFFCURVE",
"76 358 OFFCURVE",
"76 311 CURVE SMOOTH",
"76 123 OFFCURVE",
"214 -12 OFFCURVE",
"403 -12 CURVE SMOOTH"
);
}
);
width = 832;
},
{
layerId = "1C1CFC13-4213-4775-A214-C31251F9A91A";
paths = (
{
closed = 1;
nodes = (
"613 -12 OFFCURVE",
"788 173 OFFCURVE",
"788 399 CURVE SMOOTH",
"788 607 OFFCURVE",
"640 757 OFFCURVE",
"445 757 CURVE SMOOTH",
"310 757 OFFCURVE",
"182 686 OFFCURVE",
"122 582 CURVE",
"162 560 LINE",
"221 652 OFFCURVE",
"327 709 OFFCURVE",
"442 709 CURVE SMOOTH",
"616 709 OFFCURVE",
"738 577 OFFCURVE",
"738 399 CURVE SMOOTH",
"738 203 OFFCURVE",
"589 36 OFFCURVE",
"406 36 CURVE SMOOTH",
"253 36 OFFCURVE",
"143 155 OFFCURVE",
"143 317 CURVE SMOOTH",
"143 324 OFFCURVE",
"143 319 OFFCURVE",
"145 354 CURVE",
"127 342 LINE",
"769 342 LINE",
"772 388 LINE",
"102 388 LINE",
"100 376 OFFCURVE",
"94 350 OFFCURVE",
"94 310 CURVE SMOOTH",
"94 125 OFFCURVE",
"228 -12 OFFCURVE",
"406 -12 CURVE SMOOTH"
);
}
);
width = 850;
}
);
leftKerningGroup = O;
leftMetricsKey = "=O";
rightKerningGroup = O;
rightMetricsKey = "=O";
unicode = 018F;
},
{
color = 4;
glyphname = T;
lastChange = "2021-11-11 12:17:57 +0000";
layers = (
{
anchors = (
{
name = bottom;
position = "{238, 0}";
},
{
name = center;
position = "{290, 373}";
},
{
name = top;
position = "{342, 745}";
}
);
layerId = "9D27F576-B54C-4464-AC1E-5B62749637F3";
paths = (
{
closed = 1;
nodes = (
"317 0 LINE",
"402 610 LINE",
"588 610 LINE",
"607 745 LINE",
"77 745 LINE",
"58 610 LINE",
"247 610 LINE",
"162 0 LINE"
);
}
);
width = 552;
},
{
anchors = (
{
name = bottom;
position = "{219, 0}";
},
{
name = center;
position = "{272, 373}";
},
{
name = top;
position = "{324, 745}";
}
);
layerId = "F445EC8D-29E3-46C7-99DD-9E4BBA6B70C5";
paths = (
{
closed = 1;
nodes = (
"260 0 LINE",
"354 670 LINE",
"558 670 LINE",
"568 745 LINE",
"78 745 LINE",
"68 670 LINE",
"274 670 LINE",
"180 0 LINE"
);
}
);
width = 513;
},
{
anchors = (
{
name = bottom;
position = "{221, 0}";
},
{
name = center;
position = "{273, 373}";
},
{
name = top;
position = "{326, 745}";
}
);
layerId = "1C1CFC13-4213-4775-A214-C31251F9A91A";
paths = (
{
closed = 1;
nodes = (
"247 0 LINE",
"345 700 LINE",
"554 700 LINE",
"560 745 LINE",
"90 745 LINE",
"84 700 LINE",
"295 700 LINE",
"197 0 LINE"
);
}
);
width = 515;
}
);
leftKerningGroup = T;
rightKerningGroup = T;
unicode = 0054;
},
{
color = 4;
glyphname = U;
lastChange = "2021-11-11 09:48:03 +0000";
layers = (
{
anchors = (
{
name = bottom;
position = "{324, 0}";
},
{
name = ogonek;
position = "{345, 0}";
},
{
name = top;
position = "{428, 745}";
}
);
layerId = "9D27F576-B54C-4464-AC1E-5B62749637F3";
paths = (
{
closed = 1;
nodes = (
"507 -12 OFFCURVE",
"643 105 OFFCURVE",
"666 269 CURVE SMOOTH",
"733 745 LINE",
"578 745 LINE",
"514 287 LINE SMOOTH",
"500 188 OFFCURVE",
"430 128 OFFCURVE",
"344 128 CURVE SMOOTH",
"255 128 OFFCURVE",
"201 190 OFFCURVE",
"213 279 CURVE SMOOTH",
"278 745 LINE",
"123 745 LINE",
"58 277 LINE SMOOTH",
"35 113 OFFCURVE",
"157 -12 OFFCURVE",
"336 -12 CURVE SMOOTH"
);
}
);
width = 724;
},
{
anchors = (
{
name = bottom;
position = "{312, 0}";
},
{
name = ogonek;
position = "{332, 0}";
},
{
name = top;
position = "{417, 745}";
}
);
layerId = "F445EC8D-29E3-46C7-99DD-9E4BBA6B70C5";
paths = (
{
closed = 1;
nodes = (
"476 -12 OFFCURVE",
"590 93 OFFCURVE",
"611 241 CURVE SMOOTH",
"682 745 LINE",
"603 745 LINE",
"533 243 LINE SMOOTH",
"518 135 OFFCURVE",
"432 63 OFFCURVE",
"323 63 CURVE SMOOTH",
"213 63 OFFCURVE",
"148 135 OFFCURVE",
"163 243 CURVE SMOOTH",
"233 745 LINE",
"152 745 LINE",
"82 245 LINE SMOOTH",
"61 97 OFFCURVE",
"158 -12 OFFCURVE",
"319 -12 CURVE SMOOTH"
);
}
);
width = 700;
},
{
anchors = (
{
name = bottom;
position = "{309, 0}";
},
{
name = ogonek;
position = "{330, 0}";
},
{
name = top;
position = "{414, 745}";
}
);
layerId = "1C1CFC13-4213-4775-A214-C31251F9A91A";
paths = (
{
closed = 1;
nodes = (
"458 -12 OFFCURVE",
"572 91 OFFCURVE",
"594 249 CURVE SMOOTH",
"663 745 LINE",
"613 745 LINE",
"544 249 LINE SMOOTH",
"526 118 OFFCURVE",
"428 33 OFFCURVE",
"313 33 CURVE SMOOTH",
"197 33 OFFCURVE",
"125 119 OFFCURVE",
"143 245 CURVE SMOOTH",
"213 745 LINE",
"163 745 LINE",
"94 253 LINE SMOOTH",
"72 95 OFFCURVE",
"159 -12 OFFCURVE",
"310 -12 CURVE SMOOTH"
);
}
);
width = 691;
}
);
leftKerningGroup = U;
rightKerningGroup = U;
unicode = 0055;
},
{
color = 4;
glyphname = U.ss01;
lastChange = "2021-11-11 09:48:20 +0000";
layers = (
{
anchors = (
{
name = bottom;
position = "{332, 0}";
},
{
name = ogonek;
position = "{353, 0}";
},
{
name = top;
position = "{437, 745}";
}
);
layerId = "9D27F576-B54C-4464-AC1E-5B62749637F3";
paths = (
{
closed = 1;
nodes = (
"638 0 LINE",
"742 745 LINE",
"587 745 LINE",
"502 135 LINE",
"202 135 LINE",
"287 745 LINE",
"132 745 LINE",
"28 0 LINE"
);
}
);
width = 742;
},
{
anchors = (
{
name = bottom;
position = "{315, 0}";
},
{
name = ogonek;
position = "{336, 0}";
},
{
name = top;
position = "{420, 745}";
}
);
layerId = "F445EC8D-29E3-46C7-99DD-9E4BBA6B70C5";
paths = (
{
closed = 1;
nodes = (
"581 0 LINE",
"685 745 LINE",
"605 745 LINE",
"511 75 LINE",
"141 75 LINE",
"235 745 LINE",
"155 745 LINE",
"51 0 LINE"
);
}
);
width = 707;
},
{
anchors = (
{
name = bottom;
position = "{312, 0}";
},
{
name = ogonek;
position = "{333, 0}";
},
{
name = top;
position = "{417, 745}";
}
);
layerId = "1C1CFC13-4213-4775-A214-C31251F9A91A";
paths = (
{
closed = 1;
nodes = (
"563 0 LINE",
"667 745 LINE",
"617 745 LINE",
"519 45 LINE",
"119 45 LINE",
"217 745 LINE",
"167 745 LINE",
"63 0 LINE"
);
}
);
width = 699;
}
);
leftKerningGroup = H;
leftMetricsKey = "=H";
rightKerningGroup = H;
rightMetricsKey = "=H";
},
{
color = 4;
glyphname = Uhorn;
lastChange = "2021-11-11 09:41:25 +0000";
layers = (
{
anchors = (
{
name = bottom;
position = "{309, 0}";
},
{
name = ogonek;
position = "{586, 10}";
},
{
name = top;
position = "{414, 745}";
}
);
layerId = "1C1CFC13-4213-4775-A214-C31251F9A91A";
paths = (
{
closed = 1;
nodes = (
"458 -12 OFFCURVE",
"572 91 OFFCURVE",
"594 249 CURVE SMOOTH",
"663 745 LINE",
"613 745 LINE",
"544 249 LINE SMOOTH",
"526 118 OFFCURVE",
"428 33 OFFCURVE",
"313 33 CURVE SMOOTH",
"197 33 OFFCURVE",
"125 119 OFFCURVE",
"143 245 CURVE SMOOTH",
"213 745 LINE",
"163 745 LINE",
"94 253 LINE SMOOTH",
"72 95 OFFCURVE",
"159 -12 OFFCURVE",
"310 -12 CURVE SMOOTH"
);
},
{
closed = 1;
nodes = (
"653 704 LINE SMOOTH",
"719 704 OFFCURVE",
"763 747 OFFCURVE",
"763 813 CURVE SMOOTH",
"763 834 OFFCURVE",
"759 856 OFFCURVE",
"753 881 CURVE",
"708 881 LINE",
"713 860 OFFCURVE",
"718 838 OFFCURVE",
"718 817 CURVE SMOOTH",
"718 769 OFFCURVE",
"693 745 OFFCURVE",
"656 745 CURVE SMOOTH",
"643 745 LINE",
"637 704 LINE"
);
}
);
width = 690;
},
{
anchors = (
{
name = bottom;
position = "{312, 0}";
},
{
name = ogonek;
position = "{594, 10}";
},
{
name = top;
position = "{417, 745}";
}
);
layerId = "F445EC8D-29E3-46C7-99DD-9E4BBA6B70C5";
paths = (
{
closed = 1;
nodes = (
"476 -12 OFFCURVE",
"590 93 OFFCURVE",
"611 241 CURVE SMOOTH",
"682 745 LINE",
"603 745 LINE",
"533 243 LINE SMOOTH",
"518 135 OFFCURVE",
"432 63 OFFCURVE",
"323 63 CURVE SMOOTH",
"213 63 OFFCURVE",
"148 135 OFFCURVE",
"163 243 CURVE SMOOTH",
"233 745 LINE",
"152 745 LINE",
"82 245 LINE SMOOTH",
"61 97 OFFCURVE",
"158 -12 OFFCURVE",
"319 -12 CURVE SMOOTH"
);
},
{
closed = 1;
nodes = (
"678 671 LINE SMOOTH",
"769 671 OFFCURVE",
"827 724 OFFCURVE",
"827 811 CURVE SMOOTH",
"827 833 OFFCURVE",
"821 855 OFFCURVE",
"812 877 CURVE",
"720 877 LINE",
"728 855 OFFCURVE",
"733 833 OFFCURVE",
"733 812 CURVE SMOOTH",
"733 758 OFFCURVE",
"702 745 OFFCURVE",
"674 745 CURVE SMOOTH",
"662 745 LINE",
"651 671 LINE"
);
}
);
width = 700;
},
{
anchors = (
{
name = bottom;
position = "{324, 0}";
},
{
name = ogonek;
position = "{615, 10}";
},
{
name = top;
position = "{428, 745}";
}
);
layerId = "9D27F576-B54C-4464-AC1E-5B62749637F3";
paths = (
{
closed = 1;
nodes = (
"507 -12 OFFCURVE",
"643 105 OFFCURVE",
"666 269 CURVE SMOOTH",
"733 745 LINE",
"578 745 LINE",
"514 287 LINE SMOOTH",
"500 188 OFFCURVE",
"430 128 OFFCURVE",
"344 128 CURVE SMOOTH",
"255 128 OFFCURVE",
"201 190 OFFCURVE",
"213 279 CURVE SMOOTH",
"278 745 LINE",
"123 745 LINE",
"58 277 LINE SMOOTH",
"35 113 OFFCURVE",
"157 -12 OFFCURVE",
"336 -12 CURVE SMOOTH"
);
},
{
closed = 1;
nodes = (
"716 642 LINE SMOOTH",
"823 642 OFFCURVE",
"890 706 OFFCURVE",
"890 806 CURVE SMOOTH",
"890 827 OFFCURVE",
"885 850 OFFCURVE",
"878 870 CURVE",
"752 870 LINE",
"757 849 OFFCURVE",
"762 827 OFFCURVE",
"762 808 CURVE SMOOTH",
"762 748 OFFCURVE",
"726 745 OFFCURVE",
"707 745 CURVE SMOOTH",
"683 745 LINE",
"669 642 LINE"
);
}
);
width = 724;
}
);
leftKerningGroup = U;
leftMetricsKey = "=U";
rightKerningGroup = U;
unicode = 01AF;
},
{
color = 4;
glyphname = Uhorn.ss01;
lastChange = "2021-11-11 09:41:25 +0000";
layers = (
{
anchors = (
{
name = bottom;
position = "{333, 0}";
},
{
name = top;
position = "{437, 745}";
}
);
layerId = "9D27F576-B54C-4464-AC1E-5B62749637F3";
paths = (
{
closed = 1;
nodes = (
"638 0 LINE",
"742 745 LINE",
"587 745 LINE",
"502 135 LINE",
"202 135 LINE",
"287 745 LINE",
"132 745 LINE",
"28 0 LINE"
);
},
{
closed = 1;
nodes = (
"725 642 LINE SMOOTH",
"832 642 OFFCURVE",
"899 706 OFFCURVE",
"899 806 CURVE SMOOTH",
"899 827 OFFCURVE",
"894 850 OFFCURVE",
"887 870 CURVE",
"761 870 LINE",
"766 849 OFFCURVE",
"771 827 OFFCURVE",
"771 808 CURVE SMOOTH",
"771 748 OFFCURVE",
"735 745 OFFCURVE",
"716 745 CURVE SMOOTH",
"692 745 LINE",
"678 642 LINE"
);
}
);
width = 733;
},
{
anchors = (
{
name = bottom;
position = "{316, 0}";
},
{
name = top;
position = "{421, 745}";
}
);
layerId = "F445EC8D-29E3-46C7-99DD-9E4BBA6B70C5";
paths = (
{
closed = 1;
nodes = (
"581 0 LINE",
"685 745 LINE",
"605 745 LINE",
"511 75 LINE",
"141 75 LINE",
"235 745 LINE",
"155 745 LINE",
"51 0 LINE"
);
},
{
closed = 1;
nodes = (
"678 671 LINE SMOOTH",
"769 671 OFFCURVE",
"827 724 OFFCURVE",
"827 811 CURVE SMOOTH",
"827 833 OFFCURVE",
"821 855 OFFCURVE",
"812 877 CURVE",
"720 877 LINE",
"728 855 OFFCURVE",
"733 833 OFFCURVE",
"733 812 CURVE SMOOTH",
"733 758 OFFCURVE",
"702 745 OFFCURVE",
"674 745 CURVE SMOOTH",
"662 745 LINE",
"651 671 LINE"
);
}
);
width = 700;
},
{
anchors = (
{
name = bottom;
position = "{313, 0}";
},
{
name = top;
position = "{418, 745}";
}
);
layerId = "1C1CFC13-4213-4775-A214-C31251F9A91A";
paths = (
{
closed = 1;
nodes = (
"563 0 LINE",
"667 745 LINE",
"617 745 LINE",
"519 45 LINE",
"119 45 LINE",
"217 745 LINE",
"167 745 LINE",
"63 0 LINE"
);
},
{
closed = 1;
nodes = (
"657 704 LINE SMOOTH",
"723 704 OFFCURVE",
"767 747 OFFCURVE",
"767 813 CURVE SMOOTH",
"767 834 OFFCURVE",
"763 856 OFFCURVE",
"757 881 CURVE",
"712 881 LINE",
"717 860 OFFCURVE",
"722 838 OFFCURVE",
"722 817 CURVE SMOOTH",
"722 769 OFFCURVE",
"697 745 OFFCURVE",
"660 745 CURVE SMOOTH",
"647 745 LINE",
"641 704 LINE"
);
}
);
width = 694;
}
);
leftKerningGroup = H;
leftMetricsKey = "=H";
rightKerningGroup = H;
rightMetricsKey = "=Uhorn";
},
{
color = 4;
glyphname = V;
lastChange = "2021-11-11 09:41:25 +0000";
layers = (
{
anchors = (
{
name = bottom;
position = "{318, 0}";
},
{
name = top;
position = "{422, 745}";
}
);
layerId = "9D27F576-B54C-4464-AC1E-5B62749637F3";
paths = (
{
closed = 1;
nodes = (
"408 0 LINE",
"767 745 LINE",
"589 745 LINE",
"313 147 LINE",
"349 147 LINE",
"241 745 LINE",
"77 745 LINE",
"228 0 LINE"
);
}
);
width = 712;
},
{
anchors = (
{
name = bottom;
position = "{288, 0}";
},
{
name = top;
position = "{393, 745}";
}
);
layerId = "F445EC8D-29E3-46C7-99DD-9E4BBA6B70C5";
paths = (
{
closed = 1;
nodes = (
"330 0 LINE",
"708 745 LINE",
"620 745 LINE",
"286 71 LINE",
"303 71 LINE",
"158 745 LINE",
"78 745 LINE",
"246 0 LINE"
);
}
);
width = 652;
},
{
anchors = (
{
name = bottom;
position = "{290, 0}";
},
{
name = top;
position = "{395, 745}";
}
);
layerId = "1C1CFC13-4213-4775-A214-C31251F9A91A";
paths = (
{
closed = 1;
nodes = (
"315 0 LINE",
"700 745 LINE",
"642 745 LINE",
"284 46 LINE",
"306 46 LINE",
"143 745 LINE",
"90 745 LINE",
"267 0 LINE"
);
}
);
width = 654;
}
);
unicode = 0056;
},
{
color = 4;
glyphname = W;
lastChange = "2021-11-11 12:17:29 +0000";
layers = (
{
anchors = (
{
name = bottom;
position = "{478, 0}";
},
{
name = top;
position = "{582, 745}";
}
);
layerId = "9D27F576-B54C-4464-AC1E-5B62749637F3";
paths = (
{
closed = 1;
nodes = (
"348 0 LINE",
"588 600 LINE",
"536 600 LINE",
"608 0 LINE",
"788 0 LINE",
"1087 745 LINE",
"917 745 LINE",
"673 121 LINE",
"730 121 LINE",
"655 745 LINE",
"502 745 LINE",
"250 121 LINE",
"301 121 LINE",
"241 745 LINE",
"77 745 LINE",
"168 0 LINE"
);
}
);
width = 1032;
},
{
anchors = (
{
name = bottom;
position = "{454, 0}";
},
{
name = top;
position = "{559, 745}";
}
);
layerId = "F445EC8D-29E3-46C7-99DD-9E4BBA6B70C5";
paths = (
{
closed = 1;
nodes = (
"273 0 LINE",
"560 670 LINE",
"540 670 LINE",
"637 0 LINE",
"722 0 LINE",
"1040 745 LINE",
"957 745 LINE",
"675 78 LINE",
"696 78 LINE",
"600 745 LINE",
"517 745 LINE",
"230 78 LINE",
"249 78 LINE",
"157 745 LINE",
"78 745 LINE",
"188 0 LINE"
);
}
);
width = 984;
},
{
anchors = (
{
name = bottom;
position = "{457, 0}";
},
{
name = top;
position = "{562, 745}";
}
);
layerId = "1C1CFC13-4213-4775-A214-C31251F9A91A";
paths = (
{
closed = 1;
nodes = (
"257 0 LINE",
"571 706 LINE",
"544 706 LINE",
"659 0 LINE",
"707 0 LINE",
"1034 745 LINE",
"979 745 LINE",
"672 44 LINE",
"700 45 LINE",
"586 745 LINE",
"538 745 LINE",
"223 45 LINE",
"251 44 LINE",
"143 745 LINE",
"90 745 LINE",
"209 0 LINE"
);
}
);
width = 988;
}
);
leftKerningGroup = W;
rightKerningGroup = W;
unicode = 0057;
},
{
color = 4;
glyphname = X;
lastChange = "2021-11-11 09:41:25 +0000";
layers = (
{
anchors = (
{
name = bottom;
position = "{304, 0}";
},
{
name = top;
position = "{408, 745}";
}
);
layerId = "9D27F576-B54C-4464-AC1E-5B62749637F3";
paths = (
{
closed = 1;
nodes = (
"163 0 LINE",
"391 291 LINE",
"319 298 LINE",
"467 0 LINE",
"635 0 LINE",
"451 369 LINE",
"739 745 LINE",
"548 745 LINE",
"332 459 LINE",
"403 453 LINE",
"257 745 LINE",
"89 745 LINE",
"271 382 LINE",
"-27 0 LINE"
);
}
);
width = 684;
},
{
anchors = (
{
name = bottom;
position = "{261, 0}";
},
{
name = top;
position = "{366, 745}";
}
);
layerId = "F445EC8D-29E3-46C7-99DD-9E4BBA6B70C5";
paths = (
{
closed = 1;
nodes = (
"67 0 LINE",
"332 339 LINE",
"294 343 LINE",
"464 0 LINE",
"548 0 LINE",
"362 371 LINE",
"643 745 LINE",
"547 745 LINE",
"300 410 LINE",
"337 407 LINE",
"169 745 LINE",
"85 745 LINE",
"268 380 LINE",
"-27 0 LINE"
);
}
);
width = 597;
},
{
anchors = (
{
name = bottom;
position = "{258, 0}";
},
{
name = top;
position = "{363, 745}";
}
);
layerId = "1C1CFC13-4213-4775-A214-C31251F9A91A";
paths = (
{
closed = 1;
nodes = (
"51 0 LINE",
"330 366 LINE",
"292 369 LINE",
"472 0 LINE",
"531 0 LINE",
"343 380 LINE",
"626 745 LINE",
"559 745 LINE",
"295 400 LINE",
"333 397 LINE",
"162 745 LINE",
"103 745 LINE",
"282 387 LINE",
"-15 0 LINE"
);
}
);
width = 590;
}
);
unicode = 0058;
},
{
color = 4;
glyphname = Y;
lastChange = "2021-11-11 09:41:25 +0000";
layers = (
{
anchors = (
{
name = bottom;
position = "{298, 0}";
},
{
name = top;
position = "{402, 745}";
}
);
layerId = "9D27F576-B54C-4464-AC1E-5B62749637F3";
paths = (
{
closed = 1;
nodes = (
"377 0 LINE",
"422 326 LINE",
"727 745 LINE",
"539 745 LINE",
"316 429 LINE",
"380 429 LINE",
"244 745 LINE",
"77 745 LINE",
"265 325 LINE",
"220 0 LINE"
);
}
);
width = 672;
},
{
anchors = (
{
name = bottom;
position = "{274, 0}";
},
{
name = top;
position = "{379, 745}";
}
);
layerId = "F445EC8D-29E3-46C7-99DD-9E4BBA6B70C5";
paths = (
{
closed = 1;
nodes = (
"316 0 LINE",
"364 346 LINE",
"679 745 LINE",
"584 745 LINE",
"311 400 LINE",
"343 396 LINE",
"162 745 LINE",
"78 745 LINE",
"283 346 LINE",
"235 0 LINE"
);
}
);
width = 623;
},
{
anchors = (
{
name = bottom;
position = "{275, 0}";
},
{
name = top;
position = "{380, 745}";
}
);
layerId = "1C1CFC13-4213-4775-A214-C31251F9A91A";
paths = (
{
closed = 1;
nodes = (
"301 0 LINE",
"347 333 LINE",
"670 745 LINE",
"607 745 LINE",
"310 369 LINE",
"338 369 LINE",
"143 745 LINE",
"90 745 LINE",
"297 333 LINE",
"251 0 LINE"
);
}
);
width = 624;
}
);
leftKerningGroup = Y;
rightKerningGroup = Y;
unicode = 0059;
},
{
color = 4;
glyphname = Z;
lastChange = "2021-11-11 09:41:25 +0000";
layers = (
{
anchors = (
{
name = bottom;
position = "{246, 0}";
},
{
name = center;
position = "{298, 373}";
},
{
name = top;
position = "{350, 745}";
}
);
layerId = "9D27F576-B54C-4464-AC1E-5B62749637F3";
paths = (
{
closed = 1;
nodes = (
"518 0 LINE",
"537 135 LINE",
"196 135 LINE",
"595 620 LINE",
"612 745 LINE",
"97 745 LINE",
"78 610 LINE",
"384 610 LINE",
"-10 125 LINE",
"-27 0 LINE"
);
}
);
width = 567;
},
{
anchors = (
{
name = bottom;
position = "{255, 0}";
},
{
name = center;
position = "{308, 373}";
},
{
name = top;
position = "{360, 745}";
}
);
layerId = "F445EC8D-29E3-46C7-99DD-9E4BBA6B70C5";
paths = (
{
closed = 1;
nodes = (
"525 0 LINE",
"535 75 LINE",
"106 75 LINE",
"613 691 LINE",
"620 745 LINE",
"114 745 LINE",
"104 670 LINE",
"499 670 LINE",
"-8 54 LINE",
"-15 0 LINE"
);
}
);
width = 585;
},
{
anchors = (
{
name = bottom;
position = "{266, 0}";
},
{
name = center;
position = "{318, 373}";
},
{
name = top;
position = "{371, 745}";
}
);
layerId = "1C1CFC13-4213-4775-A214-C31251F9A91A";
paths = (
{
closed = 1;
nodes = (
"536 0 LINE",
"542 45 LINE",
"75 45 LINE",
"626 715 LINE",
"630 745 LINE",
"127 745 LINE",
"121 700 LINE",
"552 700 LINE",
"0 30 LINE",
"-4 0 LINE"
);
}
);
width = 606;
}
);
leftKerningGroup = Z;
rightKerningGroup = Z;
unicode = 005A;
},
{
color = 4;
glyphname = a;
lastChange = "2021-11-11 12:19:03 +0000";
layers = (
{
anchors = (
{
name = bottom;
position = "{254, 0}";
},
{
name = ogonek;
position = "{460, 0}";
},
{
name = top;
position = "{330, 546}";
}
);
layerId = "9D27F576-B54C-4464-AC1E-5B62749637F3";
paths = (
{
closed = 1;
nodes = (
"281 -12 OFFCURVE",
"345 18 OFFCURVE",
"401 91 CURVE",
"361 88 LINE",
"349 0 LINE",
"490 0 LINE",
"539 353 LINE SMOOTH",
"556 474 OFFCURVE",
"452 558 OFFCURVE",
"315 558 CURVE SMOOTH",
"202 558 OFFCURVE",
"104 504 OFFCURVE",
"62 413 CURVE",
"178 350 LINE",
"201 398 OFFCURVE",
"249 433 OFFCURVE",
"306 433 CURVE SMOOTH",
"354 433 OFFCURVE",
"395 405 OFFCURVE",
"389 360 CURVE SMOOTH",
"370 221 LINE SMOOTH",
"361 154 OFFCURVE",
"308 98 OFFCURVE",
"235 98 CURVE SMOOTH",
"198 98 OFFCURVE",
"171 113 OFFCURVE",
"171 146 CURVE SMOOTH",
"171 184 OFFCURVE",
"205 204 OFFCURVE",
"247 212 CURVE SMOOTH",
"387 238 LINE",
"398 348 LINE",
"226 321 LINE SMOOTH",
"106 302 OFFCURVE",
"16 245 OFFCURVE",
"16 137 CURVE SMOOTH",
"16 40 OFFCURVE",
"88 -12 OFFCURVE",
"198 -12 CURVE SMOOTH"
);
}
);
width = 583;
},
{
anchors = (
{
name = bottom;
position = "{249, 0}";
},
{
name = ogonek;
position = "{420, 0}";
},
{
name = top;
position = "{325, 536}";
}
);
layerId = "F445EC8D-29E3-46C7-99DD-9E4BBA6B70C5";
paths = (
{
closed = 1;
nodes = (
"295 -12 OFFCURVE",
"373 31 OFFCURVE",
"410 94 CURVE",
"397 107 LINE",
"382 0 LINE",
"458 0 LINE",
"508 356 LINE SMOOTH",
"524 469 OFFCURVE",
"436 548 OFFCURVE",
"321 548 CURVE SMOOTH",
"222 548 OFFCURVE",
"135 495 OFFCURVE",
"98 427 CURVE",
"163 386 LINE",
"193 438 OFFCURVE",
"248 476 OFFCURVE",
"316 476 CURVE SMOOTH",
"382 476 OFFCURVE",
"443 439 OFFCURVE",
"432 359 CURVE SMOOTH",
"415 234 LINE SMOOTH",
"402 135 OFFCURVE",
"319 56 OFFCURVE",
"219 56 CURVE SMOOTH",
"158 56 OFFCURVE",
"118 88 OFFCURVE",
"118 138 CURVE SMOOTH",
"118 191 OFFCURVE",
"164 230 OFFCURVE",
"240 243 CURVE SMOOTH",
"434 275 LINE",
"441 343 LINE",
"226 308 LINE SMOOTH",
"108 289 OFFCURVE",
"38 224 OFFCURVE",
"38 134 CURVE SMOOTH",
"38 36 OFFCURVE",
"121 -12 OFFCURVE",
"209 -12 CURVE SMOOTH"
);
}
);
width = 573;
},
{
anchors = (
{
name = bottom;
position = "{250, 0}";
},
{
name = ogonek;
position = "{426, 0}";
},
{
name = top;
position = "{324, 526}";
}
);
layerId = "1C1CFC13-4213-4775-A214-C31251F9A91A";
paths = (
{
closed = 1;
nodes = (
"308 -12 OFFCURVE",
"392 49 OFFCURVE",
"426 115 CURVE",
"419 115 LINE",
"403 0 LINE",
"448 0 LINE",
"497 350 LINE SMOOTH",
"513 462 OFFCURVE",
"428 538 OFFCURVE",
"316 538 CURVE SMOOTH",
"223 538 OFFCURVE",
"141 485 OFFCURVE",
"105 426 CURVE",
"144 403 LINE",
"182 458 OFFCURVE",
"247 495 OFFCURVE",
"317 495 CURVE SMOOTH",
"406 495 OFFCURVE",
"465 442 OFFCURVE",
"453 356 CURVE SMOOTH",
"438 250 LINE SMOOTH",
"421 129 OFFCURVE",
"333 30 OFFCURVE",
"212 30 CURVE SMOOTH",
"143 30 OFFCURVE",
"94 62 OFFCURVE",
"94 126 CURVE SMOOTH",
"94 197 OFFCURVE",
"155 244 OFFCURVE",
"249 259 CURVE SMOOTH",
"457 293 LINE",
"461 336 LINE",
"236 299 LINE SMOOTH",
"124 281 OFFCURVE",
"48 217 OFFCURVE",
"48 126 CURVE SMOOTH",
"48 40 OFFCURVE",
"117 -12 OFFCURVE",
"208 -12 CURVE SMOOTH"
);
}
);
width = 573;
}
);
leftKerningGroup = a;
rightKerningGroup = a;
unicode = 0061;
},
{
color = 4;
glyphname = a.ss01;
lastChange = "2021-11-11 09:50:22 +0000";
layers = (
{
anchors = (
{
name = bottom;
position = "{254, 0}";
},
{
name = ogonek;
position = "{461, 0}";
},
{
name = top;
position = "{330, 546}";
}
);
layerId = "9D27F576-B54C-4464-AC1E-5B62749637F3";
paths = (
{
closed = 1;
nodes = (
"281 -12 OFFCURVE",
"345 18 OFFCURVE",
"401 91 CURVE",
"362 88 LINE",
"350 0 LINE",
"491 0 LINE",
"567 546 LINE",
"132 546 LINE",
"114 416 LINE",
"397 416 LINE",
"370 221 LINE SMOOTH",
"361 154 OFFCURVE",
"308 98 OFFCURVE",
"235 98 CURVE SMOOTH",
"198 98 OFFCURVE",
"171 113 OFFCURVE",
"171 146 CURVE SMOOTH",
"171 184 OFFCURVE",
"205 204 OFFCURVE",
"247 212 CURVE SMOOTH",
"387 238 LINE",
"398 348 LINE",
"226 321 LINE SMOOTH",
"106 302 OFFCURVE",
"16 245 OFFCURVE",
"16 137 CURVE SMOOTH",
"16 40 OFFCURVE",
"88 -12 OFFCURVE",
"198 -12 CURVE SMOOTH"
);
}
);
width = 584;
},
{
anchors = (
{
name = bottom;
position = "{249, 0}";
},
{
name = ogonek;
position = "{420, 0}";
},
{
name = top;
position = "{325, 536}";
}
);
layerId = "F445EC8D-29E3-46C7-99DD-9E4BBA6B70C5";
paths = (
{
closed = 1;
nodes = (
"295 -12 OFFCURVE",
"373 31 OFFCURVE",
"410 94 CURVE",
"397 107 LINE",
"382 0 LINE",
"458 0 LINE",
"533 536 LINE",
"143 536 LINE",
"132 461 LINE",
"447 461 LINE",
"415 234 LINE SMOOTH",
"401 135 OFFCURVE",
"319 56 OFFCURVE",
"219 56 CURVE SMOOTH",
"158 56 OFFCURVE",
"118 88 OFFCURVE",
"118 138 CURVE SMOOTH",
"118 191 OFFCURVE",
"164 230 OFFCURVE",
"240 243 CURVE SMOOTH",
"434 275 LINE",
"441 343 LINE",
"226 308 LINE SMOOTH",
"108 289 OFFCURVE",
"38 224 OFFCURVE",
"38 134 CURVE SMOOTH",
"38 36 OFFCURVE",
"121 -12 OFFCURVE",
"209 -12 CURVE SMOOTH"
);
}
);
width = 573;
},
{
anchors = (
{
name = bottom;
position = "{250, 0}";
},
{
name = ogonek;
position = "{426, 0}";
},
{
name = top;
position = "{324, 526}";
}
);
layerId = "1C1CFC13-4213-4775-A214-C31251F9A91A";
paths = (
{
closed = 1;
nodes = (
"308 -12 OFFCURVE",
"392 49 OFFCURVE",
"426 115 CURVE",
"419 115 LINE",
"403 0 LINE",
"448 0 LINE",
"522 526 LINE",
"149 526 LINE",
"143 486 LINE",
"471 486 LINE",
"438 250 LINE SMOOTH",
"421 129 OFFCURVE",
"333 30 OFFCURVE",
"212 30 CURVE SMOOTH",
"143 30 OFFCURVE",
"94 62 OFFCURVE",
"94 126 CURVE SMOOTH",
"94 197 OFFCURVE",
"155 244 OFFCURVE",
"249 259 CURVE SMOOTH",
"457 293 LINE",
"461 336 LINE",
"236 299 LINE SMOOTH",
"124 281 OFFCURVE",
"48 217 OFFCURVE",
"48 126 CURVE SMOOTH",
"48 40 OFFCURVE",
"117 -12 OFFCURVE",
"208 -12 CURVE SMOOTH"
);
}
);
width = 573;
}
);
leftKerningGroup = a;
leftMetricsKey = "=a";
rightKerningGroup = a;
rightMetricsKey = "=|n";
},
{
color = 4;
glyphname = a.ss02;
lastChange = "2021-11-11 09:50:43 +0000";
layers = (
{
anchors = (
{
name = bottom;
position = "{254, 0}";
},
{
name = ogonek;
position = "{460, 0}";
},
{
name = top;
position = "{330, 546}";
}
);
layerId = "9D27F576-B54C-4464-AC1E-5B62749637F3";
paths = (
{
closed = 1;
nodes = (
"281 -12 OFFCURVE",
"345 18 OFFCURVE",
"401 91 CURVE",
"361 88 LINE",
"349 0 LINE",
"550 0 LINE",
"566 120 LINE",
"507 120 LINE",
"539 353 LINE SMOOTH",
"556 474 OFFCURVE",
"452 558 OFFCURVE",
"315 558 CURVE SMOOTH",
"202 558 OFFCURVE",
"104 504 OFFCURVE",
"62 413 CURVE",
"178 350 LINE",
"201 398 OFFCURVE",
"249 433 OFFCURVE",
"306 433 CURVE SMOOTH",
"354 433 OFFCURVE",
"395 405 OFFCURVE",
"389 360 CURVE SMOOTH",
"370 221 LINE SMOOTH",
"361 154 OFFCURVE",
"308 98 OFFCURVE",
"235 98 CURVE SMOOTH",
"198 98 OFFCURVE",
"171 113 OFFCURVE",
"171 146 CURVE SMOOTH",
"171 184 OFFCURVE",
"205 204 OFFCURVE",
"247 212 CURVE SMOOTH",
"387 238 LINE",
"398 348 LINE",
"226 321 LINE SMOOTH",
"106 302 OFFCURVE",
"16 245 OFFCURVE",
"16 137 CURVE SMOOTH",
"16 40 OFFCURVE",
"88 -12 OFFCURVE",
"198 -12 CURVE SMOOTH"
);
}
);
width = 616;
},
{
anchors = (
{
name = bottom;
position = "{249, 0}";
},
{
name = ogonek;
position = "{420, 0}";
},
{
name = top;
position = "{325, 536}";
}
);
layerId = "F445EC8D-29E3-46C7-99DD-9E4BBA6B70C5";
paths = (
{
closed = 1;
nodes = (
"295 -12 OFFCURVE",
"373 31 OFFCURVE",
"410 94 CURVE",
"397 107 LINE",
"382 0 LINE",
"517 0 LINE",
"527 70 LINE",
"467 70 LINE",
"508 356 LINE SMOOTH",
"524 469 OFFCURVE",
"436 548 OFFCURVE",
"321 548 CURVE SMOOTH",
"222 548 OFFCURVE",
"135 495 OFFCURVE",
"98 427 CURVE",
"163 386 LINE",
"193 438 OFFCURVE",
"248 476 OFFCURVE",
"316 476 CURVE SMOOTH",
"382 476 OFFCURVE",
"443 439 OFFCURVE",
"432 359 CURVE SMOOTH",
"415 234 LINE SMOOTH",
"402 135 OFFCURVE",
"319 56 OFFCURVE",
"219 56 CURVE SMOOTH",
"158 56 OFFCURVE",
"118 88 OFFCURVE",
"118 138 CURVE SMOOTH",
"118 191 OFFCURVE",
"164 230 OFFCURVE",
"240 243 CURVE SMOOTH",
"434 275 LINE",
"441 343 LINE",
"226 308 LINE SMOOTH",
"108 289 OFFCURVE",
"38 224 OFFCURVE",
"38 134 CURVE SMOOTH",
"38 36 OFFCURVE",
"121 -12 OFFCURVE",
"209 -12 CURVE SMOOTH"
);
}
);
width = 594;
},
{
anchors = (
{
name = bottom;
position = "{250, 0}";
},
{
name = ogonek;
position = "{426, 0}";
},
{
name = top;
position = "{324, 526}";
}
);
layerId = "1C1CFC13-4213-4775-A214-C31251F9A91A";
paths = (
{
closed = 1;
nodes = (
"308 -12 OFFCURVE",
"392 49 OFFCURVE",
"426 115 CURVE",
"419 115 LINE",
"403 0 LINE",
"509 0 LINE",
"515 40 LINE",
"454 40 LINE",
"497 350 LINE SMOOTH",
"513 462 OFFCURVE",
"428 538 OFFCURVE",
"316 538 CURVE SMOOTH",
"223 538 OFFCURVE",
"141 485 OFFCURVE",
"105 426 CURVE",
"144 403 LINE",
"182 458 OFFCURVE",
"247 495 OFFCURVE",
"317 495 CURVE SMOOTH",
"406 495 OFFCURVE",
"465 442 OFFCURVE",
"453 356 CURVE SMOOTH",
"438 250 LINE SMOOTH",
"421 129 OFFCURVE",
"333 30 OFFCURVE",
"212 30 CURVE SMOOTH",
"143 30 OFFCURVE",
"94 62 OFFCURVE",
"94 126 CURVE SMOOTH",
"94 197 OFFCURVE",
"155 244 OFFCURVE",
"249 259 CURVE SMOOTH",
"457 293 LINE",
"461 336 LINE",
"236 299 LINE SMOOTH",
"124 281 OFFCURVE",
"48 217 OFFCURVE",
"48 126 CURVE SMOOTH",
"48 40 OFFCURVE",
"117 -12 OFFCURVE",
"208 -12 CURVE SMOOTH"
);
}
);
width = 590;
}
);
leftKerningGroup = a;
leftMetricsKey = "=a";
rightKerningGroup = a;
rightMetricsKey = "=l/2";
},
{
color = 4;
glyphname = a.ss03;
lastChange = "2021-11-11 09:51:14 +0000";
layers = (
{
anchors = (
{
name = bottom;
position = "{254, 0}";
},
{
name = ogonek;
position = "{460, 0}";
},
{
name = top;
position = "{330, 546}";
}
);
layerId = "9D27F576-B54C-4464-AC1E-5B62749637F3";
paths = (
{
closed = 1;
nodes = (
"281 -12 OFFCURVE",
"345 18 OFFCURVE",
"401 91 CURVE",
"361 88 LINE",
"349 0 LINE",
"490 0 LINE",
"536 328 LINE SMOOTH",
"555 460 OFFCURVE",
"471 546 OFFCURVE",
"322 546 CURVE SMOOTH",
"132 546 LINE",
"114 416 LINE",
"311 416 LINE SMOOTH",
"366 416 OFFCURVE",
"393 384 OFFCURVE",
"385 328 CURVE SMOOTH",
"370 221 LINE SMOOTH",
"361 154 OFFCURVE",
"308 98 OFFCURVE",
"235 98 CURVE SMOOTH",
"198 98 OFFCURVE",
"171 113 OFFCURVE",
"171 146 CURVE SMOOTH",
"171 184 OFFCURVE",
"205 204 OFFCURVE",
"247 212 CURVE SMOOTH",
"387 238 LINE",
"398 348 LINE",
"226 321 LINE SMOOTH",
"106 302 OFFCURVE",
"16 245 OFFCURVE",
"16 137 CURVE SMOOTH",
"16 40 OFFCURVE",
"88 -12 OFFCURVE",
"198 -12 CURVE SMOOTH"
);
}
);
width = 583;
},
{
anchors = (
{
name = bottom;
position = "{249, 0}";
},
{
name = ogonek;
position = "{420, 0}";
},
{
name = top;
position = "{325, 536}";
}
);
layerId = "F445EC8D-29E3-46C7-99DD-9E4BBA6B70C5";
paths = (
{
closed = 1;
nodes = (
"295 -12 OFFCURVE",
"373 31 OFFCURVE",
"410 94 CURVE",
"397 107 LINE",
"382 0 LINE",
"458 0 LINE",
"503 325 LINE SMOOTH",
"521 458 OFFCURVE",
"449 536 OFFCURVE",
"309 536 CURVE SMOOTH",
"143 536 LINE",
"132 461 LINE",
"302 461 LINE SMOOTH",
"397 461 OFFCURVE",
"439 412 OFFCURVE",
"428 329 CURVE SMOOTH",
"415 234 LINE SMOOTH",
"401 135 OFFCURVE",
"319 56 OFFCURVE",
"219 56 CURVE SMOOTH",
"158 56 OFFCURVE",
"118 88 OFFCURVE",
"118 138 CURVE SMOOTH",
"118 191 OFFCURVE",
"164 230 OFFCURVE",
"240 243 CURVE SMOOTH",
"434 275 LINE",
"441 343 LINE",
"226 308 LINE SMOOTH",
"108 289 OFFCURVE",
"38 224 OFFCURVE",
"38 134 CURVE SMOOTH",
"38 36 OFFCURVE",
"121 -12 OFFCURVE",
"209 -12 CURVE SMOOTH"
);
}
);
width = 573;
},
{
anchors = (
{
name = bottom;
position = "{250, 0}";
},
{
name = ogonek;
position = "{426, 0}";
},
{
name = top;
position = "{324, 526}";
}
);
layerId = "1C1CFC13-4213-4775-A214-C31251F9A91A";
paths = (
{
closed = 1;
nodes = (
"308 -12 OFFCURVE",
"392 49 OFFCURVE",
"426 115 CURVE",
"419 115 LINE",
"403 0 LINE",
"448 0 LINE",
"496 335 LINE SMOOTH",
"512 448 OFFCURVE",
"445 526 OFFCURVE",
"322 526 CURVE SMOOTH",
"149 526 LINE",
"143 486 LINE",
"320 486 LINE SMOOTH",
"416 486 OFFCURVE",
"464 428 OFFCURVE",
"451 339 CURVE SMOOTH",
"438 250 LINE SMOOTH",
"420 129 OFFCURVE",
"333 30 OFFCURVE",
"212 30 CURVE SMOOTH",
"143 30 OFFCURVE",
"94 62 OFFCURVE",
"94 126 CURVE SMOOTH",
"94 197 OFFCURVE",
"155 244 OFFCURVE",
"249 259 CURVE SMOOTH",
"457 293 LINE",
"461 336 LINE",
"236 299 LINE SMOOTH",
"124 281 OFFCURVE",
"48 217 OFFCURVE",
"48 126 CURVE SMOOTH",
"48 40 OFFCURVE",
"117 -12 OFFCURVE",
"208 -12 CURVE SMOOTH"
);
}
);
width = 573;
}
);
leftKerningGroup = a;
rightKerningGroup = a;
},
{
color = 4;
glyphname = ae;
lastChange = "2021-11-11 09:41:25 +0000";
layers = (
{
anchors = (
{
name = bottom;
position = "{443, 0}";
},
{
name = top;
position = "{519, 546}";
}
);
layerId = "9D27F576-B54C-4464-AC1E-5B62749637F3";
paths = (
{
closed = 1;
nodes = (
"275 -12 OFFCURVE",
"336 14 OFFCURVE",
"390 77 CURVE",
"365 109 LINE",
"349 0 LINE",
"490 0 LINE",
"505 101 LINE",
"464 60 LINE",
"509 15 OFFCURVE",
"574 -12 OFFCURVE",
"654 -12 CURVE SMOOTH",
"764 -12 OFFCURVE",
"856 39 OFFCURVE",
"895 119 CURVE",
"777 180 LINE",
"754 143 OFFCURVE",
"712 118 OFFCURVE",
"657 118 CURVE SMOOTH",
"586 118 OFFCURVE",
"543 159 OFFCURVE",
"538 231 CURVE",
"921 231 LINE",
"928 260 OFFCURVE",
"932 285 OFFCURVE",
"932 310 CURVE SMOOTH",
"932 451 OFFCURVE",
"842 558 OFFCURVE",
"676 558 CURVE SMOOTH",
"590 558 OFFCURVE",
"515 522 OFFCURVE",
"461 463 CURVE",
"517 462 LINE",
"482 522 OFFCURVE",
"406 558 OFFCURVE",
"315 558 CURVE SMOOTH",
"202 558 OFFCURVE",
"104 504 OFFCURVE",
"62 413 CURVE",
"178 350 LINE",
"201 398 OFFCURVE",
"249 433 OFFCURVE",
"306 433 CURVE SMOOTH",
"354 433 OFFCURVE",
"395 405 OFFCURVE",
"389 360 CURVE SMOOTH",
"387 346 LINE",
"226 321 LINE SMOOTH",
"106 302 OFFCURVE",
"16 245 OFFCURVE",
"16 137 CURVE SMOOTH",
"16 40 OFFCURVE",
"88 -12 OFFCURVE",
"198 -12 CURVE SMOOTH"
);
},
{
closed = 1;
nodes = (
"198 98 OFFCURVE",
"171 113 OFFCURVE",
"171 146 CURVE SMOOTH",
"171 184 OFFCURVE",
"205 204 OFFCURVE",
"247 212 CURVE SMOOTH",
"372 235 LINE",
"370 221 LINE SMOOTH",
"361 154 OFFCURVE",
"308 98 OFFCURVE",
"235 98 CURVE SMOOTH"
);
},
{
closed = 1;
nodes = (
"567 398 OFFCURVE",
"606 438 OFFCURVE",
"675 438 CURVE SMOOTH",
"736 438 OFFCURVE",
"775 398 OFFCURVE",
"776 341 CURVE",
"549 341 LINE"
);
}
);
width = 962;
},
{
anchors = (
{
name = bottom;
position = "{454, 0}";
},
{
name = top;
position = "{530, 536}";
}
);
layerId = "F445EC8D-29E3-46C7-99DD-9E4BBA6B70C5";
paths = (
{
closed = 1;
nodes = (
"292 -12 OFFCURVE",
"366 27 OFFCURVE",
"406 86 CURVE",
"397 104 LINE",
"382 0 LINE",
"458 0 LINE",
"476 125 LINE",
"458 109 LINE",
"500 34 OFFCURVE",
"578 -12 OFFCURVE",
"672 -12 CURVE SMOOTH",
"780 -12 OFFCURVE",
"870 48 OFFCURVE",
"908 121 CURVE",
"845 157 LINE",
"808 101 OFFCURVE",
"752 58 OFFCURVE",
"673 58 CURVE SMOOTH",
"573 58 OFFCURVE",
"500 128 OFFCURVE",
"501 245 CURVE",
"923 245 LINE",
"926 259 OFFCURVE",
"931 289 OFFCURVE",
"931 310 CURVE SMOOTH",
"931 432 OFFCURVE",
"847 548 OFFCURVE",
"699 548 CURVE SMOOTH",
"607 548 OFFCURVE",
"529 503 OFFCURVE",
"479 433 CURVE",
"502 431 LINE",
"481 502 OFFCURVE",
"409 548 OFFCURVE",
"321 548 CURVE SMOOTH",
"222 548 OFFCURVE",
"135 495 OFFCURVE",
"98 427 CURVE",
"163 386 LINE",
"193 438 OFFCURVE",
"248 476 OFFCURVE",
"316 476 CURVE SMOOTH",
"382 476 OFFCURVE",
"441 439 OFFCURVE",
"432 359 CURVE SMOOTH",
"430 341 LINE",
"226 308 LINE SMOOTH",
"108 289 OFFCURVE",
"38 224 OFFCURVE",
"38 134 CURVE SMOOTH",
"38 36 OFFCURVE",
"121 -12 OFFCURVE",
"209 -12 CURVE SMOOTH"
);
},
{
closed = 1;
nodes = (
"158 56 OFFCURVE",
"118 88 OFFCURVE",
"118 138 CURVE SMOOTH",
"118 191 OFFCURVE",
"164 230 OFFCURVE",
"240 243 CURVE SMOOTH",
"420 273 LINE",
"415 234 LINE SMOOTH",
"402 135 OFFCURVE",
"319 56 OFFCURVE",
"219 56 CURVE SMOOTH"
);
},
{
closed = 1;
nodes = (
"531 415 OFFCURVE",
"595 478 OFFCURVE",
"698 478 CURVE SMOOTH",
"790 478 OFFCURVE",
"860 407 OFFCURVE",
"852 315 CURVE",
"509 315 LINE"
);
}
);
width = 984;
},
{
anchors = (
{
name = bottom;
position = "{466, 0}";
},
{
name = top;
position = "{540, 526}";
}
);
layerId = "1C1CFC13-4213-4775-A214-C31251F9A91A";
paths = (
{
closed = 1;
nodes = (
"309 -12 OFFCURVE",
"393 51 OFFCURVE",
"427 116 CURVE",
"422 135 LINE",
"403 0 LINE",
"448 0 LINE",
"472 170 LINE",
"458 157 LINE",
"491 56 OFFCURVE",
"580 -12 OFFCURVE",
"693 -12 CURVE SMOOTH",
"786 -12 OFFCURVE",
"871 35 OFFCURVE",
"915 112 CURVE",
"878 134 LINE",
"836 69 OFFCURVE",
"769 30 OFFCURVE",
"692 30 CURVE SMOOTH",
"574 30 OFFCURVE",
"489 116 OFFCURVE",
"489 249 CURVE",
"936 249 LINE",
"940 266 OFFCURVE",
"943 287 OFFCURVE",
"943 306 CURVE SMOOTH",
"943 439 OFFCURVE",
"849 538 OFFCURVE",
"718 538 CURVE SMOOTH",
"616 538 OFFCURVE",
"530 479 OFFCURVE",
"483 393 CURVE",
"499 390 LINE",
"492 480 OFFCURVE",
"414 538 OFFCURVE",
"316 538 CURVE SMOOTH",
"223 538 OFFCURVE",
"141 485 OFFCURVE",
"105 426 CURVE",
"144 403 LINE",
"182 458 OFFCURVE",
"247 495 OFFCURVE",
"317 495 CURVE SMOOTH",
"406 495 OFFCURVE",
"465 442 OFFCURVE",
"453 356 CURVE SMOOTH",
"450 334 LINE",
"236 299 LINE SMOOTH",
"124 281 OFFCURVE",
"48 217 OFFCURVE",
"48 126 CURVE SMOOTH",
"48 40 OFFCURVE",
"117 -12 OFFCURVE",
"208 -12 CURVE SMOOTH"
);
},
{
closed = 1;
nodes = (
"143 30 OFFCURVE",
"94 62 OFFCURVE",
"94 126 CURVE SMOOTH",
"94 197 OFFCURVE",
"155 244 OFFCURVE",
"249 259 CURVE SMOOTH",
"444 291 LINE",
"438 250 LINE SMOOTH",
"421 129 OFFCURVE",
"333 30 OFFCURVE",
"212 30 CURVE SMOOTH"
);
},
{
closed = 1;
nodes = (
"513 403 OFFCURVE",
"604 496 OFFCURVE",
"719 496 CURVE SMOOTH",
"829 496 OFFCURVE",
"905 409 OFFCURVE",
"896 289 CURVE",
"493 289 LINE"
);
}
);
width = 1005;
}
);
leftKerningGroup = a;
leftMetricsKey = "=a";
rightKerningGroup = e;
rightMetricsKey = "=e";
unicode = 00E6;
},
{
color = 4;
glyphname = b;
lastChange = "2021-11-11 09:41:25 +0000";
layers = (
{
anchors = (
{
name = bottom;
position = "{298, 0}";
},
{
name = top;
position = "{408, 784}";
}
);
layerId = "9D27F576-B54C-4464-AC1E-5B62749637F3";
paths = (
{
closed = 1;
nodes = (
"507 -12 OFFCURVE",
"638 124 OFFCURVE",
"638 290 CURVE SMOOTH",
"638 442 OFFCURVE",
"526 558 OFFCURVE",
"375 558 CURVE SMOOTH",
"297 558 OFFCURVE",
"232 529 OFFCURVE",
"192 474 CURVE",
"231 442 LINE",
"274 757 LINE",
"123 757 LINE",
"17 0 LINE",
"159 0 LINE",
"172 100 LINE",
"154 71 LINE",
"191 18 OFFCURVE",
"261 -12 OFFCURVE",
"342 -12 CURVE SMOOTH"
);
},
{
closed = 1;
nodes = (
"251 123 OFFCURVE",
"202 176 OFFCURVE",
"202 255 CURVE SMOOTH",
"202 348 OFFCURVE",
"264 423 OFFCURVE",
"354 423 CURVE SMOOTH",
"431 423 OFFCURVE",
"482 368 OFFCURVE",
"482 290 CURVE SMOOTH",
"482 196 OFFCURVE",
"418 123 OFFCURVE",
"326 123 CURVE SMOOTH"
);
}
);
width = 672;
},
{
anchors = (
{
name = bottom;
position = "{295, 0}";
},
{
name = top;
position = "{406, 784}";
}
);
layerId = "F445EC8D-29E3-46C7-99DD-9E4BBA6B70C5";
paths = (
{
closed = 1;
nodes = (
"490 -12 OFFCURVE",
"611 125 OFFCURVE",
"611 289 CURVE SMOOTH",
"611 434 OFFCURVE",
"513 548 OFFCURVE",
"363 548 CURVE SMOOTH",
"272 548 OFFCURVE",
"196 506 OFFCURVE",
"149 438 CURVE",
"174 416 LINE",
"222 757 LINE",
"146 757 LINE",
"40 0 LINE",
"116 0 LINE",
"132 120 LINE",
"117 110 LINE",
"152 34 OFFCURVE",
"234 -12 OFFCURVE",
"328 -12 CURVE SMOOTH"
);
},
{
closed = 1;
nodes = (
"224 63 OFFCURVE",
"150 143 OFFCURVE",
"150 253 CURVE SMOOTH",
"150 371 OFFCURVE",
"235 473 OFFCURVE",
"354 473 CURVE SMOOTH",
"459 473 OFFCURVE",
"531 394 OFFCURVE",
"531 287 CURVE SMOOTH",
"531 166 OFFCURVE",
"443 63 OFFCURVE",
"326 63 CURVE SMOOTH"
);
}
);
width = 666;
},
{
anchors = (
{
name = bottom;
position = "{301, 0}";
},
{
name = top;
position = "{411, 784}";
}
);
layerId = "1C1CFC13-4213-4775-A214-C31251F9A91A";
paths = (
{
closed = 1;
nodes = (
"487 -12 OFFCURVE",
"610 120 OFFCURVE",
"610 284 CURVE SMOOTH",
"610 429 OFFCURVE",
"509 538 OFFCURVE",
"368 538 CURVE SMOOTH",
"268 538 OFFCURVE",
"179 482 OFFCURVE",
"135 395 CURVE",
"150 377 LINE",
"203 757 LINE",
"158 757 LINE",
"52 0 LINE",
"98 0 LINE",
"118 149 LINE",
"110 141 LINE",
"146 46 OFFCURVE",
"231 -12 OFFCURVE",
"333 -12 CURVE SMOOTH"
);
},
{
closed = 1;
nodes = (
"218 33 OFFCURVE",
"136 120 OFFCURVE",
"136 242 CURVE SMOOTH",
"136 378 OFFCURVE",
"235 493 OFFCURVE",
"368 493 CURVE SMOOTH",
"479 493 OFFCURVE",
"562 410 OFFCURVE",
"562 286 CURVE SMOOTH",
"562 148 OFFCURVE",
"467 33 OFFCURVE",
"332 33 CURVE SMOOTH"
);
}
);
width = 676;
}
);
leftKerningGroup = h;
rightKerningGroup = o;
unicode = 0062;
},
{
color = 4;
glyphname = c;
lastChange = "2021-11-11 12:19:05 +0000";
layers = (
{
anchors = (
{
name = bottom;
position = "{311, 0}";
},
{
name = top;
position = "{349, 546}";
}
);
layerId = "9D27F576-B54C-4464-AC1E-5B62749637F3";
paths = (
{
closed = 1;
nodes = (
"431 -12 OFFCURVE",
"534 56 OFFCURVE",
"572 153 CURVE",
"445 214 LINE",
"422 159 OFFCURVE",
"373 123 OFFCURVE",
"311 123 CURVE SMOOTH",
"238 123 OFFCURVE",
"190 177 OFFCURVE",
"190 257 CURVE SMOOTH",
"190 345 OFFCURVE",
"249 423 OFFCURVE",
"339 423 CURVE SMOOTH",
"396 423 OFFCURVE",
"440 391 OFFCURVE",
"455 336 CURVE",
"588 388 LINE",
"562 489 OFFCURVE",
"465 558 OFFCURVE",
"341 558 CURVE SMOOTH",
"171 558 OFFCURVE",
"34 426 OFFCURVE",
"34 257 CURVE SMOOTH",
"34 103 OFFCURVE",
"150 -12 OFFCURVE",
"309 -12 CURVE SMOOTH"
);
}
);
width = 622;
},
{
anchors = (
{
name = bottom;
position = "{302, 0}";
},
{
name = top;
position = "{344, 536}";
}
);
layerId = "F445EC8D-29E3-46C7-99DD-9E4BBA6B70C5";
paths = (
{
closed = 1;
nodes = (
"405 -12 OFFCURVE",
"495 44 OFFCURVE",
"537 124 CURVE",
"471 163 LINE",
"439 103 OFFCURVE",
"379 63 OFFCURVE",
"307 63 CURVE SMOOTH",
"208 63 OFFCURVE",
"136 141 OFFCURVE",
"136 249 CURVE SMOOTH",
"136 367 OFFCURVE",
"221 473 OFFCURVE",
"339 473 CURVE SMOOTH",
"410 473 OFFCURVE",
"464 434 OFFCURVE",
"487 377 CURVE",
"556 410 LINE",
"525 492 OFFCURVE",
"441 548 OFFCURVE",
"338 548 CURVE SMOOTH",
"180 548 OFFCURVE",
"56 418 OFFCURVE",
"56 249 CURVE SMOOTH",
"56 98 OFFCURVE",
"156 -12 OFFCURVE",
"301 -12 CURVE SMOOTH"
);
}
);
width = 612;
},
{
anchors = (
{
name = bottom;
position = "{311, 0}";
},
{
name = top;
position = "{345, 526}";
}
);
layerId = "1C1CFC13-4213-4775-A214-C31251F9A91A";
paths = (
{
closed = 1;
nodes = (
"408 -12 OFFCURVE",
"491 41 OFFCURVE",
"532 112 CURVE",
"495 134 LINE",
"453 68 OFFCURVE",
"388 30 OFFCURVE",
"311 30 CURVE SMOOTH",
"200 30 OFFCURVE",
"111 109 OFFCURVE",
"111 241 CURVE SMOOTH",
"111 381 OFFCURVE",
"210 496 OFFCURVE",
"347 496 CURVE SMOOTH",
"423 496 OFFCURVE",
"482 460 OFFCURVE",
"514 394 CURVE",
"553 413 LINE",
"521 484 OFFCURVE",
"445 538 OFFCURVE",
"347 538 CURVE SMOOTH",
"192 538 OFFCURVE",
"66 406 OFFCURVE",
"66 243 CURVE SMOOTH",
"66 93 OFFCURVE",
"174 -12 OFFCURVE",
"311 -12 CURVE SMOOTH"
);
}
);
width = 619;
},
{
associatedMasterId = "1C1CFC13-4213-4775-A214-C31251F9A91A";
background = {
anchors = (
{
name = bottom;
position = "{298, 0}";
},
{
name = top;
position = "{272, 526}";
}
);
paths = (
{
closed = 1;
nodes = (
"396 -12 OFFCURVE",
"482 48 OFFCURVE",
"515 121 CURVE",
"451 156 LINE",
"423 97 OFFCURVE",
"369 58 OFFCURVE",
"298 58 CURVE SMOOTH",
"193 58 OFFCURVE",
"114 147 OFFCURVE",
"114 263 CURVE SMOOTH",
"114 381 OFFCURVE",
"193 468 OFFCURVE",
"298 468 CURVE SMOOTH",
"369 468 OFFCURVE",
"423 429 OFFCURVE",
"451 371 CURVE",
"515 405 LINE",
"482 479 OFFCURVE",
"397 538 OFFCURVE",
"298 538 CURVE SMOOTH",
"149 538 OFFCURVE",
"39 422 OFFCURVE",
"39 264 CURVE SMOOTH",
"39 106 OFFCURVE",
"149 -12 OFFCURVE",
"298 -12 CURVE SMOOTH"
);
}
);
};
layerId = "80DBEC3A-18A3-45AD-A4B6-A6658D69CD24";
name = "Nov 23 20, 19:44";
paths = (
{
closed = 1;
nodes = (
"400 -12 OFFCURVE",
"486 41 OFFCURVE",
"523 119 CURVE",
"483 140 LINE",
"450 74 OFFCURVE",
"384 32 OFFCURVE",
"305 32 CURVE SMOOTH",
"182 32 OFFCURVE",
"90 130 OFFCURVE",
"90 263 CURVE SMOOTH",
"90 396 OFFCURVE",
"183 496 OFFCURVE",
"305 496 CURVE SMOOTH",
"382 496 OFFCURVE",
"450 451 OFFCURVE",
"482 386 CURVE",
"523 407 LINE",
"486 485 OFFCURVE",
"401 538 OFFCURVE",
"305 538 CURVE SMOOTH",
"154 538 OFFCURVE",
"45 420 OFFCURVE",
"45 263 CURVE SMOOTH",
"45 108 OFFCURVE",
"155 -12 OFFCURVE",
"305 -12 CURVE SMOOTH"
);
}
);
width = 545;
}
);
leftKerningGroup = o;
rightKerningGroup = c;
unicode = 0063;
},
{
color = 4;
glyphname = d;
lastChange = "2021-11-11 09:59:57 +0000";
layers = (
{
anchors = (
{
name = bottom;
position = "{297, 0}";
},
{
name = center;
position = "{589, 640}";
},
{
name = top;
position = "{407, 784}";
},
{
name = topright;
position = "{708, 546}";
}
);
layerId = "9D27F576-B54C-4464-AC1E-5B62749637F3";
paths = (
{
closed = 1;
nodes = (
"370 -12 OFFCURVE",
"440 17 OFFCURVE",
"480 77 CURVE",
"448 100 LINE",
"435 0 LINE",
"576 0 LINE",
"682 757 LINE",
"530 757 LINE",
"487 442 LINE",
"521 470 LINE",
"486 525 OFFCURVE",
"421 558 OFFCURVE",
"339 558 CURVE SMOOTH",
"175 558 OFFCURVE",
"33 436 OFFCURVE",
"33 247 CURVE SMOOTH",
"33 94 OFFCURVE",
"138 -12 OFFCURVE",
"295 -12 CURVE SMOOTH"
);
},
{
closed = 1;
nodes = (
"240 123 OFFCURVE",
"189 177 OFFCURVE",
"189 256 CURVE SMOOTH",
"189 351 OFFCURVE",
"254 423 OFFCURVE",
"345 423 CURVE SMOOTH",
"420 423 OFFCURVE",
"469 367 OFFCURVE",
"469 291 CURVE SMOOTH",
"469 197 OFFCURVE",
"408 123 OFFCURVE",
"317 123 CURVE SMOOTH"
);
}
);
width = 669;
},
{
anchors = (
{
name = bottom;
position = "{297, 0}";
},
{
name = center;
position = "{605, 640}";
},
{
name = top;
position = "{408, 784}";
},
{
name = topright;
position = "{707, 536}";
}
);
layerId = "F445EC8D-29E3-46C7-99DD-9E4BBA6B70C5";
paths = (
{
closed = 1;
nodes = (
"393 -12 OFFCURVE",
"475 31 OFFCURVE",
"517 108 CURVE",
"495 120 LINE",
"479 0 LINE",
"554 0 LINE",
"659 757 LINE",
"583 757 LINE",
"536 416 LINE",
"546 432 LINE",
"507 504 OFFCURVE",
"435 548 OFFCURVE",
"337 548 CURVE SMOOTH",
"175 548 OFFCURVE",
"55 413 OFFCURVE",
"55 247 CURVE SMOOTH",
"55 97 OFFCURVE",
"157 -12 OFFCURVE",
"302 -12 CURVE SMOOTH"
);
},
{
closed = 1;
nodes = (
"206 63 OFFCURVE",
"135 141 OFFCURVE",
"135 247 CURVE SMOOTH",
"135 369 OFFCURVE",
"221 473 OFFCURVE",
"340 473 CURVE SMOOTH",
"442 473 OFFCURVE",
"517 393 OFFCURVE",
"517 286 CURVE SMOOTH",
"517 167 OFFCURVE",
"425 63 OFFCURVE",
"307 63 CURVE SMOOTH"
);
}
);
width = 669;
},
{
anchors = (
{
name = bottom;
position = "{301, 0}";
},
{
name = center;
position = "{616, 640}";
},
{
name = top;
position = "{411, 784}";
},
{
name = topright;
position = "{712, 526}";
}
);
layerId = "1C1CFC13-4213-4775-A214-C31251F9A91A";
paths = (
{
closed = 1;
nodes = (
"409 -12 OFFCURVE",
"498 44 OFFCURVE",
"543 131 CURVE",
"525 149 LINE",
"505 0 LINE",
"550 0 LINE",
"656 757 LINE",
"610 757 LINE",
"557 377 LINE",
"564 387 LINE",
"532 480 OFFCURVE",
"446 538 OFFCURVE",
"344 538 CURVE SMOOTH",
"188 538 OFFCURVE",
"66 403 OFFCURVE",
"66 244 CURVE SMOOTH",
"66 102 OFFCURVE",
"164 -12 OFFCURVE",
"309 -12 CURVE SMOOTH"
);
},
{
closed = 1;
nodes = (
"193 33 OFFCURVE",
"114 120 OFFCURVE",
"114 241 CURVE SMOOTH",
"114 378 OFFCURVE",
"211 493 OFFCURVE",
"344 493 CURVE SMOOTH",
"453 493 OFFCURVE",
"540 412 OFFCURVE",
"540 286 CURVE SMOOTH",
"540 147 OFFCURVE",
"442 33 OFFCURVE",
"308 33 CURVE SMOOTH"
);
}
);
width = 675;
}
);
leftKerningGroup = o;
rightKerningGroup = d;
unicode = 0064;
},
{
color = 4;
glyphname = eth;
lastChange = "2021-11-11 09:41:25 +0000";
layers = (
{
layerId = "9D27F576-B54C-4464-AC1E-5B62749637F3";
paths = (
{
closed = 1;
nodes = (
"515 -12 OFFCURVE",
"625 151 OFFCURVE",
"625 365 CURVE SMOOTH",
"625 599 OFFCURVE",
"495 796 OFFCURVE",
"261 796 CURVE SMOOTH",
"218 796 OFFCURVE",
"169 789 OFFCURVE",
"118 772 CURVE",
"128 650 LINE",
"161 660 OFFCURVE",
"195 666 OFFCURVE",
"229 666 CURVE SMOOTH",
"360 666 OFFCURVE",
"479 581 OFFCURVE",
"474 438 CURVE",
"496 465 LINE",
"458 525 OFFCURVE",
"405 548 OFFCURVE",
"333 548 CURVE SMOOTH",
"167 548 OFFCURVE",
"33 418 OFFCURVE",
"33 252 CURVE SMOOTH",
"33 96 OFFCURVE",
"155 -12 OFFCURVE",
"303 -12 CURVE SMOOTH"
);
},
{
closed = 1;
nodes = (
"238 123 OFFCURVE",
"188 176 OFFCURVE",
"188 254 CURVE SMOOTH",
"188 340 OFFCURVE",
"249 413 OFFCURVE",
"341 413 CURVE SMOOTH",
"419 413 OFFCURVE",
"465 359 OFFCURVE",
"465 287 CURVE SMOOTH",
"465 196 OFFCURVE",
"401 123 OFFCURVE",
"313 123 CURVE SMOOTH"
);
},
{
closed = 1;
nodes = (
"600 693 LINE",
"603 753 LINE",
"240 615 LINE",
"236 555 LINE"
);
}
);
width = 651;
},
{
layerId = "F445EC8D-29E3-46C7-99DD-9E4BBA6B70C5";
paths = (
{
closed = 1;
nodes = (
"536 -12 OFFCURVE",
"637 144 OFFCURVE",
"637 357 CURVE SMOOTH",
"637 582 OFFCURVE",
"516 795 OFFCURVE",
"265 795 CURVE SMOOTH",
"222 795 OFFCURVE",
"175 787 OFFCURVE",
"126 771 CURVE",
"139 704 LINE",
"180 718 OFFCURVE",
"221 725 OFFCURVE",
"261 725 CURVE SMOOTH",
"438 725 OFFCURVE",
"571 568 OFFCURVE",
"549 395 CURVE",
"571 437 LINE",
"530 514 OFFCURVE",
"446 538 OFFCURVE",
"376 538 CURVE SMOOTH",
"211 538 OFFCURVE",
"86 409 OFFCURVE",
"86 245 CURVE SMOOTH",
"86 97 OFFCURVE",
"189 -12 OFFCURVE",
"338 -12 CURVE SMOOTH"
);
},
{
closed = 1;
nodes = (
"244 63 OFFCURVE",
"165 140 OFFCURVE",
"165 247 CURVE SMOOTH",
"165 365 OFFCURVE",
"258 463 OFFCURVE",
"375 463 CURVE SMOOTH",
"482 463 OFFCURVE",
"552 384 OFFCURVE",
"552 282 CURVE SMOOTH",
"552 166 OFFCURVE",
"459 63 OFFCURVE",
"343 63 CURVE SMOOTH"
);
},
{
closed = 1;
nodes = (
"602 696 LINE",
"606 756 LINE",
"300 647 LINE",
"296 588 LINE"
);
}
);
width = 686;
},
{
layerId = "1C1CFC13-4213-4775-A214-C31251F9A91A";
paths = (
{
closed = 1;
nodes = (
"526 -12 OFFCURVE",
"627 140 OFFCURVE",
"627 339 CURVE SMOOTH",
"627 560 OFFCURVE",
"502 796 OFFCURVE",
"257 796 CURVE SMOOTH",
"219 796 OFFCURVE",
"179 790 OFFCURVE",
"138 778 CURVE",
"151 736 LINE",
"187 748 OFFCURVE",
"221 753 OFFCURVE",
"253 753 CURVE SMOOTH",
"442 753 OFFCURVE",
"585 562 OFFCURVE",
"579 349 CURVE",
"600 363 LINE",
"559 487 OFFCURVE",
"465 528 OFFCURVE",
"374 528 CURVE SMOOTH",
"213 528 OFFCURVE",
"90 401 OFFCURVE",
"90 239 CURVE SMOOTH",
"90 96 OFFCURVE",
"193 -12 OFFCURVE",
"343 -12 CURVE SMOOTH"
);
},
{
closed = 1;
nodes = (
"225 31 OFFCURVE",
"138 119 OFFCURVE",
"138 239 CURVE SMOOTH",
"138 374 OFFCURVE",
"241 485 OFFCURVE",
"374 485 CURVE SMOOTH",
"493 485 OFFCURVE",
"574 396 OFFCURVE",
"574 280 CURVE SMOOTH",
"574 146 OFFCURVE",
"478 31 OFFCURVE",
"338 31 CURVE SMOOTH"
);
},
{
closed = 1;
nodes = (
"582 684 LINE",
"585 727 LINE",
"302 630 LINE",
"299 588 LINE"
);
}
);
width = 688;
}
);
leftKerningGroup = o;
leftMetricsKey = "=o";
rightKerningGroup = o;
rightMetricsKey = "=o";
unicode = 00F0;
},
{
color = 4;
glyphname = e;
lastChange = "2021-11-11 09:51:36 +0000";
layers = (
{
anchors = (
{
name = bottom;
position = "{268, 0}";
},
{
name = ogonek;
position = "{370, 0}";
},
{
name = top;
position = "{344, 546}";
}
);
layerId = "9D27F576-B54C-4464-AC1E-5B62749637F3";
paths = (
{
closed = 1;
nodes = (
"414 -12 OFFCURVE",
"506 39 OFFCURVE",
"545 119 CURVE",
"427 180 LINE",
"404 143 OFFCURVE",
"362 118 OFFCURVE",
"307 118 CURVE SMOOTH",
"231 118 OFFCURVE",
"187 165 OFFCURVE",
"187 248 CURVE SMOOTH",
"187 351 OFFCURVE",
"223 438 OFFCURVE",
"325 438 CURVE SMOOTH",
"403 438 OFFCURVE",
"444 374 OFFCURVE",
"418 291 CURVE",
"493 341 LINE",
"169 341 LINE",
"161 231 LINE",
"571 231 LINE",
"578 260 OFFCURVE",
"582 285 OFFCURVE",
"582 310 CURVE SMOOTH",
"582 451 OFFCURVE",
"492 558 OFFCURVE",
"326 558 CURVE SMOOTH",
"161 558 OFFCURVE",
"34 422 OFFCURVE",
"34 255 CURVE SMOOTH",
"34 106 OFFCURVE",
"137 -12 OFFCURVE",
"304 -12 CURVE SMOOTH"
);
}
);
width = 612;
},
{
anchors = (
{
name = bottom;
position = "{271, 0}";
},
{
name = ogonek;
position = "{372, 0}";
},
{
name = top;
position = "{347, 536}";
}
);
layerId = "F445EC8D-29E3-46C7-99DD-9E4BBA6B70C5";
paths = (
{
closed = 1;
nodes = (
"413 -12 OFFCURVE",
"503 48 OFFCURVE",
"541 121 CURVE",
"478 157 LINE",
"441 101 OFFCURVE",
"385 58 OFFCURVE",
"306 58 CURVE SMOOTH",
"214 58 OFFCURVE",
"134 125 OFFCURVE",
"134 232 CURVE SMOOTH",
"134 378 OFFCURVE",
"202 478 OFFCURVE",
"331 478 CURVE SMOOTH",
"433 478 OFFCURVE",
"507 391 OFFCURVE",
"480 286 CURVE",
"518 315 LINE",
"108 315 LINE",
"103 245 LINE",
"556 245 LINE",
"559 259 OFFCURVE",
"564 289 OFFCURVE",
"564 310 CURVE SMOOTH",
"564 432 OFFCURVE",
"480 548 OFFCURVE",
"332 548 CURVE SMOOTH",
"173 548 OFFCURVE",
"56 412 OFFCURVE",
"56 249 CURVE SMOOTH",
"56 97 OFFCURVE",
"161 -12 OFFCURVE",
"305 -12 CURVE SMOOTH"
);
}
);
width = 617;
},
{
anchors = (
{
name = bottom;
position = "{277, 0}";
},
{
name = ogonek;
position = "{379, 0}";
},
{
name = top;
position = "{351, 526}";
}
);
layerId = "1C1CFC13-4213-4775-A214-C31251F9A91A";
paths = (
{
closed = 1;
nodes = (
"409 -12 OFFCURVE",
"494 35 OFFCURVE",
"538 112 CURVE",
"501 134 LINE",
"459 69 OFFCURVE",
"392 30 OFFCURVE",
"315 30 CURVE SMOOTH",
"196 30 OFFCURVE",
"112 120 OFFCURVE",
"112 242 CURVE SMOOTH",
"112 376 OFFCURVE",
"212 496 OFFCURVE",
"342 496 CURVE SMOOTH",
"456 496 OFFCURVE",
"533 403 OFFCURVE",
"518 277 CURVE",
"536 289 LINE",
"93 289 LINE",
"90 249 LINE",
"559 249 LINE",
"563 266 OFFCURVE",
"566 287 OFFCURVE",
"566 306 CURVE SMOOTH",
"566 439 OFFCURVE",
"472 538 OFFCURVE",
"341 538 CURVE SMOOTH",
"186 538 OFFCURVE",
"67 402 OFFCURVE",
"67 245 CURVE SMOOTH",
"67 99 OFFCURVE",
"172 -12 OFFCURVE",
"316 -12 CURVE SMOOTH"
);
}
);
width = 628;
}
);
leftKerningGroup = o;
rightKerningGroup = e;
unicode = 0065;
},
{
color = 4;
glyphname = e.ss03;
lastChange = "2021-11-11 09:51:53 +0000";
layers = (
{
anchors = (
{
name = bottom;
position = "{268, 0}";
},
{
name = ogonek;
position = "{369, 0}";
},
{
name = top;
position = "{344, 546}";
}
);
layerId = "9D27F576-B54C-4464-AC1E-5B62749637F3";
paths = (
{
closed = 1;
nodes = (
"500 -12 LINE",
"518 118 LINE",
"327 118 LINE SMOOTH",
"231 118 OFFCURVE",
"187 165 OFFCURVE",
"187 248 CURVE SMOOTH",
"187 351 OFFCURVE",
"223 438 OFFCURVE",
"325 438 CURVE SMOOTH",
"403 438 OFFCURVE",
"444 374 OFFCURVE",
"418 291 CURVE",
"493 341 LINE",
"169 341 LINE",
"161 231 LINE",
"571 231 LINE",
"578 260 OFFCURVE",
"582 285 OFFCURVE",
"582 310 CURVE SMOOTH",
"582 451 OFFCURVE",
"492 558 OFFCURVE",
"326 558 CURVE SMOOTH",
"161 558 OFFCURVE",
"34 422 OFFCURVE",
"34 255 CURVE SMOOTH",
"34 106 OFFCURVE",
"137 -12 OFFCURVE",
"324 -12 CURVE SMOOTH"
);
}
);
width = 612;
},
{
anchors = (
{
name = bottom;
position = "{271, 0}";
},
{
name = ogonek;
position = "{372, 0}";
},
{
name = top;
position = "{347, 536}";
}
);
layerId = "F445EC8D-29E3-46C7-99DD-9E4BBA6B70C5";
paths = (
{
closed = 1;
nodes = (
"512 -12 LINE",
"521 58 LINE",
"326 58 LINE SMOOTH",
"214 58 OFFCURVE",
"134 125 OFFCURVE",
"134 232 CURVE SMOOTH",
"134 378 OFFCURVE",
"202 478 OFFCURVE",
"331 478 CURVE SMOOTH",
"433 478 OFFCURVE",
"507 391 OFFCURVE",
"480 286 CURVE",
"518 315 LINE",
"108 315 LINE",
"103 245 LINE",
"556 245 LINE",
"559 259 OFFCURVE",
"564 289 OFFCURVE",
"564 310 CURVE SMOOTH",
"564 432 OFFCURVE",
"480 548 OFFCURVE",
"332 548 CURVE SMOOTH",
"173 548 OFFCURVE",
"56 412 OFFCURVE",
"56 249 CURVE SMOOTH",
"56 97 OFFCURVE",
"161 -12 OFFCURVE",
"325 -12 CURVE SMOOTH"
);
}
);
width = 615;
},
{
anchors = (
{
name = bottom;
position = "{277, 0}";
},
{
name = ogonek;
position = "{379, 0}";
},
{
name = top;
position = "{351, 526}";
}
);
layerId = "1C1CFC13-4213-4775-A214-C31251F9A91A";
paths = (
{
closed = 1;
nodes = (
"503 -12 LINE",
"509 30 LINE",
"335 30 LINE SMOOTH",
"196 30 OFFCURVE",
"112 120 OFFCURVE",
"112 242 CURVE SMOOTH",
"112 376 OFFCURVE",
"212 496 OFFCURVE",
"342 496 CURVE SMOOTH",
"456 496 OFFCURVE",
"533 403 OFFCURVE",
"518 277 CURVE",
"536 289 LINE",
"93 289 LINE",
"90 249 LINE",
"559 249 LINE",
"563 266 OFFCURVE",
"566 287 OFFCURVE",
"566 306 CURVE SMOOTH",
"566 439 OFFCURVE",
"472 538 OFFCURVE",
"341 538 CURVE SMOOTH",
"186 538 OFFCURVE",
"67 402 OFFCURVE",
"67 245 CURVE SMOOTH",
"67 99 OFFCURVE",
"172 -12 OFFCURVE",
"336 -12 CURVE SMOOTH"
);
}
);
width = 628;
}
);
leftKerningGroup = o;
rightKerningGroup = e;
},
{
color = 4;
glyphname = schwa;
lastChange = "2021-11-11 09:41:25 +0000";
layers = (
{
layerId = "9D27F576-B54C-4464-AC1E-5B62749637F3";
paths = (
{
closed = 1;
nodes = (
"451 -12 OFFCURVE",
"578 124 OFFCURVE",
"578 291 CURVE SMOOTH",
"578 440 OFFCURVE",
"475 558 OFFCURVE",
"308 558 CURVE SMOOTH",
"198 558 OFFCURVE",
"106 507 OFFCURVE",
"67 427 CURVE",
"185 366 LINE",
"208 403 OFFCURVE",
"250 428 OFFCURVE",
"305 428 CURVE SMOOTH",
"381 428 OFFCURVE",
"425 381 OFFCURVE",
"425 298 CURVE SMOOTH",
"425 195 OFFCURVE",
"389 108 OFFCURVE",
"287 108 CURVE SMOOTH",
"209 108 OFFCURVE",
"168 172 OFFCURVE",
"194 255 CURVE",
"119 205 LINE",
"443 205 LINE",
"451 315 LINE",
"41 315 LINE",
"34 286 OFFCURVE",
"30 261 OFFCURVE",
"30 236 CURVE SMOOTH",
"30 95 OFFCURVE",
"120 -12 OFFCURVE",
"286 -12 CURVE SMOOTH"
);
}
);
width = 612;
},
{
layerId = "F445EC8D-29E3-46C7-99DD-9E4BBA6B70C5";
paths = (
{
closed = 1;
nodes = (
"444 -12 OFFCURVE",
"561 124 OFFCURVE",
"561 287 CURVE SMOOTH",
"561 439 OFFCURVE",
"456 548 OFFCURVE",
"312 548 CURVE SMOOTH",
"204 548 OFFCURVE",
"114 488 OFFCURVE",
"76 415 CURVE",
"139 379 LINE",
"176 435 OFFCURVE",
"232 478 OFFCURVE",
"311 478 CURVE SMOOTH",
"403 478 OFFCURVE",
"483 411 OFFCURVE",
"483 304 CURVE SMOOTH",
"483 158 OFFCURVE",
"415 58 OFFCURVE",
"286 58 CURVE SMOOTH",
"184 58 OFFCURVE",
"110 145 OFFCURVE",
"137 250 CURVE",
"99 221 LINE",
"509 221 LINE",
"514 291 LINE",
"61 291 LINE",
"58 277 OFFCURVE",
"53 247 OFFCURVE",
"53 226 CURVE SMOOTH",
"53 104 OFFCURVE",
"137 -12 OFFCURVE",
"285 -12 CURVE SMOOTH"
);
}
);
width = 617;
},
{
layerId = "1C1CFC13-4213-4775-A214-C31251F9A91A";
paths = (
{
closed = 1;
nodes = (
"442 -12 OFFCURVE",
"561 124 OFFCURVE",
"561 281 CURVE SMOOTH",
"561 427 OFFCURVE",
"456 538 OFFCURVE",
"312 538 CURVE SMOOTH",
"219 538 OFFCURVE",
"134 491 OFFCURVE",
"90 414 CURVE",
"127 392 LINE",
"169 457 OFFCURVE",
"236 496 OFFCURVE",
"313 496 CURVE SMOOTH",
"432 496 OFFCURVE",
"516 406 OFFCURVE",
"516 284 CURVE SMOOTH",
"516 150 OFFCURVE",
"416 30 OFFCURVE",
"286 30 CURVE SMOOTH",
"172 30 OFFCURVE",
"95 123 OFFCURVE",
"110 249 CURVE",
"92 237 LINE",
"535 237 LINE",
"538 277 LINE",
"69 277 LINE",
"65 260 OFFCURVE",
"62 239 OFFCURVE",
"62 220 CURVE SMOOTH",
"62 87 OFFCURVE",
"156 -12 OFFCURVE",
"287 -12 CURVE SMOOTH"
);
}
);
width = 628;
}
);
leftKerningGroup = o;
leftMetricsKey = "=|e";
rightKerningGroup = o;
rightMetricsKey = "=|e";
unicode = 0259;
},
{
color = 4;
glyphname = f;
lastChange = "2021-11-11 12:18:23 +0000";
layers = (
{
anchors = (
{
name = bottom;
position = "{169, 0}";
},
{
name = top;
position = "{279, 784}";
}
);
layerId = "9D27F576-B54C-4464-AC1E-5B62749637F3";
paths = (
{
closed = 1;
nodes = (
"233 0 LINE",
"291 416 LINE",
"408 416 LINE",
"426 546 LINE",
"309 546 LINE",
"310 553 LINE SMOOTH",
"318 607 OFFCURVE",
"353 627 OFFCURVE",
"413 627 CURVE SMOOTH",
"420 627 OFFCURVE",
"429 627 OFFCURVE",
"442 625 CURVE",
"452 751 LINE",
"439 754 OFFCURVE",
"417 757 OFFCURVE",
"396 757 CURVE SMOOTH",
"264 757 OFFCURVE",
"182 686 OFFCURVE",
"161 558 CURVE SMOOTH",
"159 546 LINE",
"67 546 LINE",
"49 416 LINE",
"140 416 LINE",
"82 0 LINE"
);
}
);
width = 414;
},
{
anchors = (
{
name = bottom;
position = "{160, 0}";
},
{
name = top;
position = "{271, 784}";
}
);
layerId = "F445EC8D-29E3-46C7-99DD-9E4BBA6B70C5";
paths = (
{
closed = 1;
nodes = (
"170 0 LINE",
"234 461 LINE",
"365 461 LINE",
"376 536 LINE",
"245 536 LINE",
"250 572 LINE SMOOTH",
"262 658 OFFCURVE",
"316 687 OFFCURVE",
"382 687 CURVE SMOOTH",
"387 687 OFFCURVE",
"407 686 OFFCURVE",
"416 684 CURVE",
"421 752 LINE",
"408 755 OFFCURVE",
"388 757 OFFCURVE",
"370 757 CURVE SMOOTH",
"283 757 OFFCURVE",
"193 698 OFFCURVE",
"175 576 CURVE SMOOTH",
"169 536 LINE",
"63 536 LINE",
"52 461 LINE",
"158 461 LINE",
"94 0 LINE"
);
}
);
width = 396;
},
{
anchors = (
{
name = bottom;
position = "{158, 0}";
},
{
name = top;
position = "{268, 784}";
}
);
layerId = "1C1CFC13-4213-4775-A214-C31251F9A91A";
paths = (
{
closed = 1;
nodes = (
"151 0 LINE",
"219 486 LINE",
"352 486 LINE",
"358 526 LINE",
"224 526 LINE",
"232 580 LINE SMOOTH",
"245 665 OFFCURVE",
"298 714 OFFCURVE",
"375 714 CURVE SMOOTH",
"384 714 OFFCURVE",
"398 713 OFFCURVE",
"409 711 CURVE",
"410 753 LINE",
"401 756 OFFCURVE",
"388 757 OFFCURVE",
"370 757 CURVE SMOOTH",
"280 757 OFFCURVE",
"203 695 OFFCURVE",
"187 583 CURVE SMOOTH",
"179 526 LINE",
"71 526 LINE",
"65 486 LINE",
"174 486 LINE",
"106 0 LINE"
);
}
);
width = 389;
}
);
leftKerningGroup = f;
rightKerningGroup = f;
unicode = 0066;
},
{
color = 4;
glyphname = f.ss01;
lastChange = "2021-11-11 09:41:25 +0000";
layers = (
{
layerId = "9D27F576-B54C-4464-AC1E-5B62749637F3";
paths = (
{
closed = 1;
nodes = (
"233 0 LINE",
"291 416 LINE",
"408 416 LINE",
"426 546 LINE",
"309 546 LINE",
"320 625 LINE",
"438 625 LINE",
"455 745 LINE",
"186 745 LINE",
"157 546 LINE",
"67 546 LINE",
"49 416 LINE",
"140 416 LINE",
"82 0 LINE"
);
}
);
width = 410;
},
{
layerId = "F445EC8D-29E3-46C7-99DD-9E4BBA6B70C5";
paths = (
{
closed = 1;
nodes = (
"170 0 LINE",
"234 461 LINE",
"365 461 LINE",
"376 536 LINE",
"245 536 LINE",
"265 675 LINE",
"413 675 LINE",
"422 745 LINE",
"199 745 LINE",
"169 536 LINE",
"63 536 LINE",
"52 461 LINE",
"158 461 LINE",
"94 0 LINE"
);
}
);
width = 394;
},
{
layerId = "1C1CFC13-4213-4775-A214-C31251F9A91A";
paths = (
{
closed = 1;
nodes = (
"151 0 LINE",
"219 486 LINE",
"352 486 LINE",
"358 526 LINE",
"225 526 LINE",
"250 705 LINE",
"406 705 LINE",
"411 745 LINE",
"210 745 LINE",
"180 526 LINE",
"71 526 LINE",
"65 486 LINE",
"174 486 LINE",
"106 0 LINE"
);
}
);
width = 387;
}
);
leftKerningGroup = f;
leftMetricsKey = "=f";
rightKerningGroup = f;
rightMetricsKey = "=f";
},
{
color = 4;
glyphname = g;
lastChange = "2021-11-11 09:41:25 +0000";
layers = (
{
anchors = (
{
name = bottom;
position = "{254, -240}";
},
{
name = top;
position = "{364, 546}";
}
);
layerId = "9D27F576-B54C-4464-AC1E-5B62749637F3";
paths = (
{
closed = 1;
nodes = (
"422 -220 OFFCURVE",
"541 -120 OFFCURVE",
"560 18 CURVE SMOOTH",
"633 546 LINE",
"492 546 LINE",
"476 427 LINE",
"508 461 LINE",
"471 525 OFFCURVE",
"400 558 OFFCURVE",
"317 558 CURVE SMOOTH",
"159 558 OFFCURVE",
"37 440 OFFCURVE",
"37 276 CURVE SMOOTH",
"37 131 OFFCURVE",
"139 27 OFFCURVE",
"287 27 CURVE SMOOTH",
"364 27 OFFCURVE",
"424 55 OFFCURVE",
"465 116 CURVE",
"428 154 LINE",
"409 23 LINE SMOOTH",
"400 -38 OFFCURVE",
"348 -85 OFFCURVE",
"275 -85 CURVE SMOOTH",
"211 -85 OFFCURVE",
"166 -58 OFFCURVE",
"159 -7 CURVE",
"16 -48 LINE",
"35 -150 OFFCURVE",
"138 -220 OFFCURVE",
"264 -220 CURVE SMOOTH"
);
},
{
closed = 1;
nodes = (
"237 163 OFFCURVE",
"192 210 OFFCURVE",
"192 279 CURVE SMOOTH",
"192 360 OFFCURVE",
"252 423 OFFCURVE",
"333 423 CURVE SMOOTH",
"404 423 OFFCURVE",
"448 375 OFFCURVE",
"448 305 CURVE SMOOTH",
"448 227 OFFCURVE",
"393 163 OFFCURVE",
"309 163 CURVE SMOOTH"
);
}
);
width = 651;
},
{
anchors = (
{
name = bottom;
position = "{261, -240}";
},
{
name = top;
position = "{370, 536}";
}
);
layerId = "F445EC8D-29E3-46C7-99DD-9E4BBA6B70C5";
paths = (
{
closed = 1;
nodes = (
"412 -220 OFFCURVE",
"531 -129 OFFCURVE",
"550 10 CURVE SMOOTH",
"623 536 LINE",
"547 536 LINE",
"531 416 LINE",
"541 436 LINE",
"502 504 OFFCURVE",
"430 548 OFFCURVE",
"338 548 CURVE SMOOTH",
"178 548 OFFCURVE",
"57 417 OFFCURVE",
"57 259 CURVE SMOOTH",
"57 109 OFFCURVE",
"167 8 OFFCURVE",
"302 8 CURVE SMOOTH",
"390 8 OFFCURVE",
"472 51 OFFCURVE",
"514 128 CURVE",
"492 140 LINE",
"474 12 LINE SMOOTH",
"459 -96 OFFCURVE",
"367 -145 OFFCURVE",
"278 -145 CURVE SMOOTH",
"185 -145 OFFCURVE",
"136 -104 OFFCURVE",
"120 -57 CURVE",
"50 -86 LINE",
"75 -164 OFFCURVE",
"153 -220 OFFCURVE",
"270 -220 CURVE SMOOTH"
);
},
{
closed = 1;
nodes = (
"211 83 OFFCURVE",
"137 159 OFFCURVE",
"137 262 CURVE SMOOTH",
"137 382 OFFCURVE",
"231 473 OFFCURVE",
"340 473 CURVE SMOOTH",
"442 473 OFFCURVE",
"513 395 OFFCURVE",
"513 293 CURVE SMOOTH",
"513 183 OFFCURVE",
"419 83 OFFCURVE",
"308 83 CURVE SMOOTH"
);
}
);
width = 663;
},
{
anchors = (
{
name = bottom;
position = "{263, -240}";
},
{
name = top;
position = "{371, 526}";
}
);
layerId = "1C1CFC13-4213-4775-A214-C31251F9A91A";
paths = (
{
closed = 1;
nodes = (
"410 -220 OFFCURVE",
"524 -124 OFFCURVE",
"542 2 CURVE SMOOTH",
"615 526 LINE",
"570 526 LINE",
"549 377 LINE",
"556 393 LINE",
"526 479 OFFCURVE",
"442 538 OFFCURVE",
"340 538 CURVE SMOOTH",
"188 538 OFFCURVE",
"68 409 OFFCURVE",
"68 255 CURVE SMOOTH",
"68 117 OFFCURVE",
"165 8 OFFCURVE",
"306 8 CURVE SMOOTH",
"406 8 OFFCURVE",
"492 64 OFFCURVE",
"536 151 CURVE",
"520 169 LINE",
"498 7 LINE SMOOTH",
"481 -117 OFFCURVE",
"371 -178 OFFCURVE",
"278 -178 CURVE SMOOTH",
"192 -178 OFFCURVE",
"129 -141 OFFCURVE",
"99 -75 CURVE",
"60 -93 LINE",
"89 -164 OFFCURVE",
"165 -220 OFFCURVE",
"275 -220 CURVE SMOOTH"
);
},
{
closed = 1;
nodes = (
"191 53 OFFCURVE",
"116 140 OFFCURVE",
"116 252 CURVE SMOOTH",
"116 381 OFFCURVE",
"209 493 OFFCURVE",
"340 493 CURVE SMOOTH",
"454 493 OFFCURVE",
"532 407 OFFCURVE",
"532 294 CURVE SMOOTH",
"532 162 OFFCURVE",
"435 53 OFFCURVE",
"306 53 CURVE SMOOTH"
);
}
);
width = 667;
},
{
associatedMasterId = "9D27F576-B54C-4464-AC1E-5B62749637F3";
guideLines = (
{
position = "{245, 27}";
}
);
layerId = "36422917-9031-4902-B1BB-24A8D1428F60";
name = "Nov 30 20, 14:05";
paths = (
{
closed = 1;
nodes = (
"383 23 LINE SMOOTH",
"375 -38 OFFCURVE",
"321 -85 OFFCURVE",
"248 -85 CURVE SMOOTH",
"184 -85 OFFCURVE",
"139 -58 OFFCURVE",
"132 -7 CURVE",
"-11 -48 LINE",
"8 -150 OFFCURVE",
"111 -220 OFFCURVE",
"237 -220 CURVE SMOOTH",
"395 -220 OFFCURVE",
"513 -120 OFFCURVE",
"532 18 CURVE SMOOTH",
"536 43 LINE",
"386 43 LINE"
);
}
);
width = 631;
},
{
associatedMasterId = "F445EC8D-29E3-46C7-99DD-9E4BBA6B70C5";
layerId = "93CA3938-7F08-44F2-A43D-DEF172223270";
name = "Nov 30 20, 14:15";
paths = (
{
closed = 1;
nodes = (
"378 -220 OFFCURVE",
"496 -120 OFFCURVE",
"515 19 CURVE SMOOTH",
"588 536 LINE",
"513 536 LINE",
"497 416 LINE",
"510 435 LINE",
"477 503 OFFCURVE",
"409 548 OFFCURVE",
"320 548 CURVE SMOOTH",
"170 548 OFFCURVE",
"43 431 OFFCURVE",
"22 282 CURVE SMOOTH",
"1 129 OFFCURVE",
"99 8 OFFCURVE",
"252 8 CURVE SMOOTH",
"337 8 OFFCURVE",
"421 50 OFFCURVE",
"468 127 CURVE",
"457 140 LINE",
"441 23 LINE SMOOTH",
"426 -85 OFFCURVE",
"331 -145 OFFCURVE",
"232 -145 CURVE SMOOTH",
"149 -145 OFFCURVE",
"100 -104 OFFCURVE",
"86 -53 CURVE",
"14 -86 LINE",
"39 -164 OFFCURVE",
"119 -220 OFFCURVE",
"232 -220 CURVE SMOOTH"
);
},
{
closed = 1;
nodes = (
"152 83 OFFCURVE",
"86 169 OFFCURVE",
"101 274 CURVE SMOOTH",
"116 383 OFFCURVE",
"212 473 OFFCURVE",
"321 473 CURVE SMOOTH",
"422 473 OFFCURVE",
"492 386 OFFCURVE",
"477 282 CURVE SMOOTH",
"462 174 OFFCURVE",
"363 83 OFFCURVE",
"258 83 CURVE SMOOTH"
);
}
);
width = 629;
},
{
associatedMasterId = "1C1CFC13-4213-4775-A214-C31251F9A91A";
layerId = "42626357-0875-4421-AAFE-11C188FE47A7";
name = "Nov 30 20, 14:21";
paths = (
{
closed = 1;
nodes = (
"370 -220 OFFCURVE",
"483 -123 OFFCURVE",
"501 6 CURVE SMOOTH",
"575 526 LINE",
"530 526 LINE",
"509 377 LINE",
"521 392 LINE",
"494 479 OFFCURVE",
"419 538 OFFCURVE",
"316 538 CURVE SMOOTH",
"171 538 OFFCURVE",
"50 421 OFFCURVE",
"30 277 CURVE SMOOTH",
"9 129 OFFCURVE",
"101 8 OFFCURVE",
"250 8 CURVE SMOOTH",
"349 8 OFFCURVE",
"437 63 OFFCURVE",
"488 150 CURVE",
"479 169 LINE",
"457 10 LINE SMOOTH",
"439 -116 OFFCURVE",
"328 -178 OFFCURVE",
"235 -178 CURVE SMOOTH",
"149 -178 OFFCURVE",
"89 -141 OFFCURVE",
"59 -75 CURVE",
"20 -93 LINE",
"49 -164 OFFCURVE",
"125 -220 OFFCURVE",
"235 -220 CURVE SMOOTH"
);
},
{
closed = 1;
nodes = (
"128 53 OFFCURVE",
"60 149 OFFCURVE",
"76 269 CURVE SMOOTH",
"94 393 OFFCURVE",
"194 493 OFFCURVE",
"318 493 CURVE SMOOTH",
"437 493 OFFCURVE",
"509 398 OFFCURVE",
"492 277 CURVE SMOOTH",
"474 152 OFFCURVE",
"371 53 OFFCURVE",
"248 53 CURVE SMOOTH"
);
}
);
width = 630;
}
);
leftKerningGroup = o;
rightKerningGroup = g;
unicode = 0067;
},
{
color = 4;
glyphname = g.ss01;
lastChange = "2021-11-11 09:41:25 +0000";
layers = (
{
anchors = (
{
name = bottom;
position = "{254, -240}";
},
{
name = top;
position = "{364, 546}";
}
);
layerId = "9D27F576-B54C-4464-AC1E-5B62749637F3";
paths = (
{
closed = 1;
nodes = (
"527 -220 LINE",
"633 546 LINE",
"492 546 LINE",
"476 427 LINE",
"508 461 LINE",
"471 525 OFFCURVE",
"400 558 OFFCURVE",
"317 558 CURVE SMOOTH",
"159 558 OFFCURVE",
"37 440 OFFCURVE",
"37 276 CURVE SMOOTH",
"37 131 OFFCURVE",
"139 27 OFFCURVE",
"287 27 CURVE SMOOTH",
"364 27 OFFCURVE",
"424 55 OFFCURVE",
"465 116 CURVE",
"428 154 LINE",
"393 -90 LINE",
"51 -90 LINE",
"32 -220 LINE"
);
},
{
closed = 1;
nodes = (
"237 163 OFFCURVE",
"192 210 OFFCURVE",
"192 279 CURVE SMOOTH",
"192 360 OFFCURVE",
"252 423 OFFCURVE",
"333 423 CURVE SMOOTH",
"404 423 OFFCURVE",
"448 375 OFFCURVE",
"448 305 CURVE SMOOTH",
"448 227 OFFCURVE",
"393 163 OFFCURVE",
"309 163 CURVE SMOOTH"
);
}
);
width = 651;
},
{
anchors = (
{
name = bottom;
position = "{261, -240}";
},
{
name = top;
position = "{370, 536}";
}
);
layerId = "F445EC8D-29E3-46C7-99DD-9E4BBA6B70C5";
paths = (
{
closed = 1;
nodes = (
"517 -220 LINE",
"623 536 LINE",
"547 536 LINE",
"531 416 LINE",
"541 436 LINE",
"502 504 OFFCURVE",
"430 548 OFFCURVE",
"338 548 CURVE SMOOTH",
"178 548 OFFCURVE",
"57 417 OFFCURVE",
"57 259 CURVE SMOOTH",
"57 109 OFFCURVE",
"167 8 OFFCURVE",
"302 8 CURVE SMOOTH",
"390 8 OFFCURVE",
"472 51 OFFCURVE",
"514 128 CURVE",
"492 140 LINE",
"452 -145 LINE",
"81 -145 LINE",
"70 -220 LINE"
);
},
{
closed = 1;
nodes = (
"211 83 OFFCURVE",
"137 159 OFFCURVE",
"137 262 CURVE SMOOTH",
"137 382 OFFCURVE",
"231 473 OFFCURVE",
"340 473 CURVE SMOOTH",
"442 473 OFFCURVE",
"513 395 OFFCURVE",
"513 293 CURVE SMOOTH",
"513 183 OFFCURVE",
"419 83 OFFCURVE",
"308 83 CURVE SMOOTH"
);
}
);
width = 663;
},
{
anchors = (
{
name = bottom;
position = "{263, -240}";
},
{
name = top;
position = "{371, 526}";
}
);
layerId = "1C1CFC13-4213-4775-A214-C31251F9A91A";
paths = (
{
closed = 1;
nodes = (
"511 -220 LINE",
"615 526 LINE",
"570 526 LINE",
"549 377 LINE",
"556 393 LINE",
"526 479 OFFCURVE",
"442 538 OFFCURVE",
"340 538 CURVE SMOOTH",
"188 538 OFFCURVE",
"68 409 OFFCURVE",
"68 255 CURVE SMOOTH",
"68 117 OFFCURVE",
"165 8 OFFCURVE",
"306 8 CURVE SMOOTH",
"406 8 OFFCURVE",
"492 64 OFFCURVE",
"536 151 CURVE",
"520 169 LINE",
"471 -180 LINE",
"87 -180 LINE",
"82 -220 LINE"
);
},
{
closed = 1;
nodes = (
"191 53 OFFCURVE",
"116 140 OFFCURVE",
"116 252 CURVE SMOOTH",
"116 381 OFFCURVE",
"209 493 OFFCURVE",
"340 493 CURVE SMOOTH",
"454 493 OFFCURVE",
"532 407 OFFCURVE",
"532 294 CURVE SMOOTH",
"532 162 OFFCURVE",
"435 53 OFFCURVE",
"306 53 CURVE SMOOTH"
);
}
);
width = 667;
},
{
associatedMasterId = "9D27F576-B54C-4464-AC1E-5B62749637F3";
guideLines = (
{
position = "{245, 27}";
}
);
layerId = "36422917-9031-4902-B1BB-24A8D1428F60";
name = "Nov 30 20, 14:05";
paths = (
{
closed = 1;
nodes = (
"383 23 LINE SMOOTH",
"375 -38 OFFCURVE",
"321 -85 OFFCURVE",
"248 -85 CURVE SMOOTH",
"184 -85 OFFCURVE",
"139 -58 OFFCURVE",
"132 -7 CURVE",
"-11 -48 LINE",
"8 -150 OFFCURVE",
"111 -220 OFFCURVE",
"237 -220 CURVE SMOOTH",
"395 -220 OFFCURVE",
"513 -120 OFFCURVE",
"532 18 CURVE SMOOTH",
"536 43 LINE",
"386 43 LINE"
);
}
);
width = 631;
},
{
associatedMasterId = "F445EC8D-29E3-46C7-99DD-9E4BBA6B70C5";
layerId = "93CA3938-7F08-44F2-A43D-DEF172223270";
name = "Nov 30 20, 14:15";
paths = (
{
closed = 1;
nodes = (
"378 -220 OFFCURVE",
"496 -120 OFFCURVE",
"515 19 CURVE SMOOTH",
"588 536 LINE",
"513 536 LINE",
"497 416 LINE",
"510 435 LINE",
"477 503 OFFCURVE",
"409 548 OFFCURVE",
"320 548 CURVE SMOOTH",
"170 548 OFFCURVE",
"43 431 OFFCURVE",
"22 282 CURVE SMOOTH",
"1 129 OFFCURVE",
"99 8 OFFCURVE",
"252 8 CURVE SMOOTH",
"337 8 OFFCURVE",
"421 50 OFFCURVE",
"468 127 CURVE",
"457 140 LINE",
"441 23 LINE SMOOTH",
"426 -85 OFFCURVE",
"331 -145 OFFCURVE",
"232 -145 CURVE SMOOTH",
"149 -145 OFFCURVE",
"100 -104 OFFCURVE",
"86 -53 CURVE",
"14 -86 LINE",
"39 -164 OFFCURVE",
"119 -220 OFFCURVE",
"232 -220 CURVE SMOOTH"
);
},
{
closed = 1;
nodes = (
"152 83 OFFCURVE",
"86 169 OFFCURVE",
"101 274 CURVE SMOOTH",
"116 383 OFFCURVE",
"212 473 OFFCURVE",
"321 473 CURVE SMOOTH",
"422 473 OFFCURVE",
"492 386 OFFCURVE",
"477 282 CURVE SMOOTH",
"462 174 OFFCURVE",
"363 83 OFFCURVE",
"258 83 CURVE SMOOTH"
);
}
);
width = 629;
},
{
associatedMasterId = "1C1CFC13-4213-4775-A214-C31251F9A91A";
layerId = "42626357-0875-4421-AAFE-11C188FE47A7";
name = "Nov 30 20, 14:21";
paths = (
{
closed = 1;
nodes = (
"370 -220 OFFCURVE",
"483 -123 OFFCURVE",
"501 6 CURVE SMOOTH",
"575 526 LINE",
"530 526 LINE",
"509 377 LINE",
"521 392 LINE",
"494 479 OFFCURVE",
"419 538 OFFCURVE",
"316 538 CURVE SMOOTH",
"171 538 OFFCURVE",
"50 421 OFFCURVE",
"30 277 CURVE SMOOTH",
"9 129 OFFCURVE",
"101 8 OFFCURVE",
"250 8 CURVE SMOOTH",
"349 8 OFFCURVE",
"437 63 OFFCURVE",
"488 150 CURVE",
"479 169 LINE",
"457 10 LINE SMOOTH",
"439 -116 OFFCURVE",
"328 -178 OFFCURVE",
"235 -178 CURVE SMOOTH",
"149 -178 OFFCURVE",
"89 -141 OFFCURVE",
"59 -75 CURVE",
"20 -93 LINE",
"49 -164 OFFCURVE",
"125 -220 OFFCURVE",
"235 -220 CURVE SMOOTH"
);
},
{
closed = 1;
nodes = (
"128 53 OFFCURVE",
"60 149 OFFCURVE",
"76 269 CURVE SMOOTH",
"94 393 OFFCURVE",
"194 493 OFFCURVE",
"318 493 CURVE SMOOTH",
"437 493 OFFCURVE",
"509 398 OFFCURVE",
"492 277 CURVE SMOOTH",
"474 152 OFFCURVE",
"371 53 OFFCURVE",
"248 53 CURVE SMOOTH"
);
}
);
width = 630;
}
);
leftKerningGroup = o;
leftMetricsKey = "=g";
rightKerningGroup = g;
rightMetricsKey = "=g";
},
{
color = 4;
glyphname = g.ss03;
lastChange = "2021-11-11 09:41:25 +0000";
layers = (
{
anchors = (
{
name = bottom;
position = "{254, -240}";
},
{
name = top;
position = "{364, 546}";
}
);
layerId = "9D27F576-B54C-4464-AC1E-5B62749637F3";
paths = (
{
closed = 1;
nodes = (
"257 -220 LINE SMOOTH",
"433 -220 OFFCURVE",
"539 -133 OFFCURVE",
"560 18 CURVE SMOOTH",
"633 546 LINE",
"492 546 LINE",
"476 427 LINE",
"508 461 LINE",
"471 525 OFFCURVE",
"400 558 OFFCURVE",
"317 558 CURVE SMOOTH",
"159 558 OFFCURVE",
"37 440 OFFCURVE",
"37 276 CURVE SMOOTH",
"37 131 OFFCURVE",
"139 27 OFFCURVE",
"287 27 CURVE SMOOTH",
"364 27 OFFCURVE",
"424 55 OFFCURVE",
"465 116 CURVE",
"428 154 LINE",
"408 18 LINE SMOOTH",
"398 -53 OFFCURVE",
"351 -90 OFFCURVE",
"268 -90 CURVE SMOOTH",
"72 -90 LINE",
"54 -220 LINE"
);
},
{
closed = 1;
nodes = (
"237 163 OFFCURVE",
"192 210 OFFCURVE",
"192 279 CURVE SMOOTH",
"192 360 OFFCURVE",
"252 423 OFFCURVE",
"333 423 CURVE SMOOTH",
"404 423 OFFCURVE",
"448 375 OFFCURVE",
"448 305 CURVE SMOOTH",
"448 227 OFFCURVE",
"393 163 OFFCURVE",
"309 163 CURVE SMOOTH"
);
}
);
width = 651;
},
{
anchors = (
{
name = bottom;
position = "{261, -240}";
},
{
name = top;
position = "{370, 536}";
}
);
layerId = "F445EC8D-29E3-46C7-99DD-9E4BBA6B70C5";
paths = (
{
closed = 1;
nodes = (
"270 -220 LINE SMOOTH",
"427 -220 OFFCURVE",
"529 -136 OFFCURVE",
"547 -6 CURVE SMOOTH",
"623 536 LINE",
"547 536 LINE",
"531 416 LINE",
"541 436 LINE",
"502 504 OFFCURVE",
"430 548 OFFCURVE",
"338 548 CURVE SMOOTH",
"178 548 OFFCURVE",
"57 417 OFFCURVE",
"57 259 CURVE SMOOTH",
"57 109 OFFCURVE",
"167 8 OFFCURVE",
"302 8 CURVE SMOOTH",
"390 8 OFFCURVE",
"472 51 OFFCURVE",
"514 128 CURVE",
"492 140 LINE",
"472 -1 LINE SMOOTH",
"460 -86 OFFCURVE",
"388 -145 OFFCURVE",
"276 -145 CURVE SMOOTH",
"69 -145 LINE",
"59 -220 LINE"
);
},
{
closed = 1;
nodes = (
"211 83 OFFCURVE",
"137 159 OFFCURVE",
"137 262 CURVE SMOOTH",
"137 382 OFFCURVE",
"231 473 OFFCURVE",
"340 473 CURVE SMOOTH",
"442 473 OFFCURVE",
"513 395 OFFCURVE",
"513 293 CURVE SMOOTH",
"513 183 OFFCURVE",
"419 83 OFFCURVE",
"308 83 CURVE SMOOTH"
);
}
);
width = 663;
},
{
anchors = (
{
name = bottom;
position = "{263, -240}";
},
{
name = top;
position = "{371, 526}";
}
);
layerId = "1C1CFC13-4213-4775-A214-C31251F9A91A";
paths = (
{
closed = 1;
nodes = (
"285 -220 LINE SMOOTH",
"425 -220 OFFCURVE",
"523 -142 OFFCURVE",
"541 -13 CURVE SMOOTH",
"615 526 LINE",
"570 526 LINE",
"549 377 LINE",
"556 393 LINE",
"526 479 OFFCURVE",
"442 538 OFFCURVE",
"340 538 CURVE SMOOTH",
"188 538 OFFCURVE",
"68 409 OFFCURVE",
"68 255 CURVE SMOOTH",
"68 117 OFFCURVE",
"165 8 OFFCURVE",
"306 8 CURVE SMOOTH",
"406 8 OFFCURVE",
"492 64 OFFCURVE",
"536 151 CURVE",
"520 169 LINE",
"496 -9 LINE SMOOTH",
"482 -113 OFFCURVE",
"402 -177 OFFCURVE",
"287 -177 CURVE SMOOTH",
"102 -177 LINE",
"96 -220 LINE"
);
},
{
closed = 1;
nodes = (
"191 53 OFFCURVE",
"116 140 OFFCURVE",
"116 252 CURVE SMOOTH",
"116 381 OFFCURVE",
"209 493 OFFCURVE",
"340 493 CURVE SMOOTH",
"454 493 OFFCURVE",
"532 407 OFFCURVE",
"532 294 CURVE SMOOTH",
"532 162 OFFCURVE",
"435 53 OFFCURVE",
"306 53 CURVE SMOOTH"
);
}
);
width = 668;
}
);
leftKerningGroup = o;
leftMetricsKey = "=g";
rightKerningGroup = g;
rightMetricsKey = "=g";
},
{
color = 4;
glyphname = h;
lastChange = "2021-11-11 09:41:25 +0000";
layers = (
{
anchors = (
{
name = bottom;
position = "{262, 0}";
},
{
name = center;
position = "{181, 640}";
},
{
name = top;
position = "{196, 745}";
}
);
layerId = "9D27F576-B54C-4464-AC1E-5B62749637F3";
paths = (
{
closed = 1;
nodes = (
"167 0 LINE",
"211 319 LINE SMOOTH",
"220 382 OFFCURVE",
"267 423 OFFCURVE",
"326 423 CURVE SMOOTH",
"385 423 OFFCURVE",
"420 382 OFFCURVE",
"411 319 CURVE SMOOTH",
"367 0 LINE",
"517 0 LINE",
"564 337 LINE SMOOTH",
"581 461 OFFCURVE",
"507 558 OFFCURVE",
"381 558 CURVE SMOOTH",
"308 558 OFFCURVE",
"247 531 OFFCURVE",
"213 466 CURVE",
"228 438 LINE",
"272 757 LINE",
"123 757 LINE",
"17 0 LINE"
);
}
);
width = 599;
},
{
anchors = (
{
name = bottom;
position = "{249, 0}";
},
{
name = center;
position = "{167, 640}";
},
{
name = top;
position = "{182, 745}";
}
);
layerId = "F445EC8D-29E3-46C7-99DD-9E4BBA6B70C5";
paths = (
{
closed = 1;
nodes = (
"116 0 LINE",
"160 317 LINE SMOOTH",
"173 413 OFFCURVE",
"244 473 OFFCURVE",
"326 473 CURVE SMOOTH",
"404 473 OFFCURVE",
"452 418 OFFCURVE",
"440 331 CURVE SMOOTH",
"394 0 LINE",
"470 0 LINE",
"517 336 LINE SMOOTH",
"534 460 OFFCURVE",
"457 548 OFFCURVE",
"342 548 CURVE SMOOTH",
"264 548 OFFCURVE",
"194 507 OFFCURVE",
"159 438 CURVE",
"176 432 LINE",
"221 757 LINE",
"146 757 LINE",
"40 0 LINE"
);
}
);
width = 574;
},
{
anchors = (
{
name = bottom;
position = "{249, 0}";
},
{
name = center;
position = "{164, 640}";
},
{
name = top;
position = "{179, 745}";
}
);
layerId = "1C1CFC13-4213-4775-A214-C31251F9A91A";
paths = (
{
closed = 1;
nodes = (
"97 0 LINE",
"141 318 LINE SMOOTH",
"154 415 OFFCURVE",
"226 495 OFFCURVE",
"328 495 CURVE SMOOTH",
"413 495 OFFCURVE",
"473 437 OFFCURVE",
"458 332 CURVE SMOOTH",
"412 0 LINE",
"457 0 LINE",
"503 333 LINE SMOOTH",
"520 459 OFFCURVE",
"438 538 OFFCURVE",
"330 538 CURVE SMOOTH",
"248 538 OFFCURVE",
"174 492 OFFCURVE",
"143 422 CURVE",
"155 415 LINE",
"203 757 LINE",
"158 757 LINE",
"52 0 LINE"
);
}
);
width = 571;
}
);
leftKerningGroup = h;
rightKerningGroup = n;
unicode = 0068;
},
{
color = 4;
glyphname = h.ss01;
lastChange = "2021-11-11 09:41:25 +0000";
layers = (
{
anchors = (
{
name = bottom;
position = "{262, 0}";
},
{
name = center;
position = "{181, 640}";
},
{
name = top;
position = "{196, 745}";
}
);
layerId = "9D27F576-B54C-4464-AC1E-5B62749637F3";
paths = (
{
closed = 1;
nodes = (
"519 0 LINE",
"596 546 LINE",
"188 546 LINE",
"169 416 LINE",
"426 416 LINE",
"368 0 LINE"
);
},
{
closed = 1;
nodes = (
"168 0 LINE",
"274 757 LINE",
"123 757 LINE",
"17 0 LINE"
);
}
);
width = 602;
},
{
anchors = (
{
name = bottom;
position = "{249, 0}";
},
{
name = center;
position = "{167, 640}";
},
{
name = top;
position = "{182, 745}";
}
);
layerId = "F445EC8D-29E3-46C7-99DD-9E4BBA6B70C5";
paths = (
{
closed = 1;
nodes = (
"469 0 LINE",
"544 536 LINE",
"166 536 LINE",
"155 461 LINE",
"458 461 LINE",
"394 0 LINE"
);
},
{
closed = 1;
nodes = (
"116 0 LINE",
"222 757 LINE",
"146 757 LINE",
"40 0 LINE"
);
}
);
width = 573;
},
{
anchors = (
{
name = bottom;
position = "{250, 0}";
},
{
name = center;
position = "{165, 640}";
},
{
name = top;
position = "{180, 745}";
}
);
layerId = "1C1CFC13-4213-4775-A214-C31251F9A91A";
paths = (
{
closed = 1;
nodes = (
"458 0 LINE",
"532 526 LINE",
"157 526 LINE",
"151 486 LINE",
"481 486 LINE",
"413 0 LINE"
);
},
{
closed = 1;
nodes = (
"98 0 LINE",
"203 757 LINE",
"158 757 LINE",
"53 0 LINE"
);
}
);
width = 572;
}
);
leftKerningGroup = h;
leftMetricsKey = "=h";
rightKerningGroup = n;
rightMetricsKey = "=n";
},
{
color = 4;
glyphname = h.ss03;
lastChange = "2021-11-11 09:41:25 +0000";
layers = (
{
anchors = (
{
name = bottom;
position = "{262, 0}";
},
{
name = center;
position = "{181, 640}";
},
{
name = top;
position = "{196, 745}";
}
);
layerId = "9D27F576-B54C-4464-AC1E-5B62749637F3";
paths = (
{
closed = 1;
nodes = (
"169 0 LINE",
"227 416 LINE",
"341 416 LINE SMOOTH",
"396 416 OFFCURVE",
"423 384 OFFCURVE",
"415 328 CURVE SMOOTH",
"369 0 LINE",
"520 0 LINE",
"566 328 LINE SMOOTH",
"585 460 OFFCURVE",
"501 546 OFFCURVE",
"352 546 CURVE SMOOTH",
"245 546 LINE",
"275 757 LINE",
"123 757 LINE",
"17 0 LINE"
);
}
);
width = 602;
},
{
anchors = (
{
name = bottom;
position = "{249, 0}";
},
{
name = center;
position = "{167, 640}";
},
{
name = top;
position = "{182, 745}";
}
);
layerId = "F445EC8D-29E3-46C7-99DD-9E4BBA6B70C5";
paths = (
{
closed = 1;
nodes = (
"116 0 LINE",
"180 461 LINE",
"323 461 LINE SMOOTH",
"408 461 OFFCURVE",
"451 412 OFFCURVE",
"439 329 CURVE SMOOTH",
"393 0 LINE",
"469 0 LINE",
"514 325 LINE SMOOTH",
"532 458 OFFCURVE",
"460 536 OFFCURVE",
"330 536 CURVE SMOOTH",
"191 536 LINE",
"222 757 LINE",
"146 757 LINE",
"40 0 LINE"
);
}
);
width = 573;
},
{
anchors = (
{
name = bottom;
position = "{250, 0}";
},
{
name = center;
position = "{165, 640}";
},
{
name = top;
position = "{180, 745}";
}
);
layerId = "1C1CFC13-4213-4775-A214-C31251F9A91A";
paths = (
{
closed = 1;
nodes = (
"98 0 LINE",
"166 486 LINE",
"339 486 LINE SMOOTH",
"425 486 OFFCURVE",
"472 428 OFFCURVE",
"460 339 CURVE SMOOTH",
"413 0 LINE",
"458 0 LINE",
"505 335 LINE SMOOTH",
"521 448 OFFCURVE",
"454 526 OFFCURVE",
"341 526 CURVE SMOOTH",
"172 526 LINE",
"203 757 LINE",
"158 757 LINE",
"53 0 LINE"
);
}
);
width = 572;
}
);
leftKerningGroup = h;
leftMetricsKey = "=h";
rightKerningGroup = n;
rightMetricsKey = "=n";
},
{
color = 4;
glyphname = i;
lastChange = "2021-11-11 10:42:29 +0000";
layers = (
{
anchors = (
{
name = bottom;
position = "{93, 0}";
}
);
layerId = "9D27F576-B54C-4464-AC1E-5B62749637F3";
paths = (
{
closed = 1;
nodes = (
"168 0 LINE",
"244 546 LINE",
"93 546 LINE",
"17 0 LINE"
);
},
{
closed = 1;
nodes = (
"251 595 LINE",
"272 745 LINE",
"121 745 LINE",
"100 595 LINE"
);
}
);
width = 261;
},
{
anchors = (
{
name = bottom;
position = "{78, 0}";
}
);
layerId = "F445EC8D-29E3-46C7-99DD-9E4BBA6B70C5";
paths = (
{
closed = 1;
nodes = (
"116 0 LINE",
"191 536 LINE",
"115 536 LINE",
"40 0 LINE"
);
},
{
closed = 1;
nodes = (
"205 635 LINE",
"220 745 LINE",
"144 745 LINE",
"129 635 LINE"
);
}
);
width = 231;
},
{
anchors = (
{
name = bottom;
position = "{74, 0}";
}
);
layerId = "1C1CFC13-4213-4775-A214-C31251F9A91A";
paths = (
{
closed = 1;
nodes = (
"97 0 LINE",
"171 526 LINE",
"126 526 LINE",
"52 0 LINE"
);
},
{
closed = 1;
nodes = (
"186 635 LINE",
"201 745 LINE",
"156 745 LINE",
"141 635 LINE"
);
}
);
width = 222;
}
);
leftKerningGroup = i;
rightKerningGroup = i;
unicode = 0069;
},
{
color = 4;
glyphname = i.ss01;
lastChange = "2021-11-11 09:41:25 +0000";
layers = (
{
anchors = (
{
name = bottom;
position = "{155, 0}";
}
);
layerId = "9D27F576-B54C-4464-AC1E-5B62749637F3";
paths = (
{
closed = 1;
nodes = (
"230 0 LINE",
"306 546 LINE",
"66 546 LINE",
"48 416 LINE",
"137 416 LINE",
"79 0 LINE"
);
},
{
closed = 1;
nodes = (
"313 595 LINE",
"334 745 LINE",
"183 745 LINE",
"162 595 LINE"
);
}
);
width = 323;
},
{
anchors = (
{
name = bottom;
position = "{115, 0}";
}
);
layerId = "F445EC8D-29E3-46C7-99DD-9E4BBA6B70C5";
paths = (
{
closed = 1;
nodes = (
"152 0 LINE",
"227 536 LINE",
"77 536 LINE",
"66 461 LINE",
"141 461 LINE",
"77 0 LINE"
);
},
{
closed = 1;
nodes = (
"241 635 LINE",
"256 745 LINE",
"180 745 LINE",
"165 635 LINE"
);
}
);
width = 267;
},
{
anchors = (
{
name = bottom;
position = "{96, 0}";
}
);
layerId = "1C1CFC13-4213-4775-A214-C31251F9A91A";
paths = (
{
closed = 1;
nodes = (
"118 0 LINE",
"192 526 LINE",
"82 526 LINE",
"75 481 LINE",
"140 481 LINE",
"73 0 LINE"
);
},
{
closed = 1;
nodes = (
"207 635 LINE",
"222 745 LINE",
"177 745 LINE",
"162 635 LINE"
);
}
);
width = 243;
}
);
leftKerningGroup = i;
leftMetricsKey = "=i/2";
rightKerningGroup = i;
rightMetricsKey = "=i";
},
{
color = 4;
glyphname = idotless;
lastChange = "2021-11-11 09:52:08 +0000";
layers = (
{
anchors = (
{
name = bottom;
position = "{82, 0}";
},
{
name = ogonek;
position = "{102, 0}";
},
{
name = top;
position = "{158, 546}";
}
);
layerId = "9D27F576-B54C-4464-AC1E-5B62749637F3";
paths = (
{
closed = 1;
nodes = (
"157 0 LINE",
"233 546 LINE",
"82 546 LINE",
"6 0 LINE"
);
}
);
width = 239;
},
{
anchors = (
{
name = bottom;
position = "{63, 0}";
},
{
name = ogonek;
position = "{83, 0}";
},
{
name = top;
position = "{138, 536}";
}
);
layerId = "F445EC8D-29E3-46C7-99DD-9E4BBA6B70C5";
paths = (
{
closed = 1;
nodes = (
"101 0 LINE",
"176 536 LINE",
"100 536 LINE",
"25 0 LINE"
);
}
);
width = 201;
},
{
anchors = (
{
name = bottom;
position = "{56, 0}";
},
{
name = ogonek;
position = "{66, 0}";
},
{
name = top;
position = "{129, 526}";
}
);
layerId = "1C1CFC13-4213-4775-A214-C31251F9A91A";
paths = (
{
closed = 1;
nodes = (
"78 0 LINE",
"152 526 LINE",
"107 526 LINE",
"33 0 LINE"
);
}
);
width = 185;
}
);
leftKerningGroup = i;
leftMetricsKey = "=i*.8";
rightKerningGroup = i;
rightMetricsKey = "=i*.8";
unicode = 0131;
},
{
color = 4;
glyphname = idotless.ss01;
lastChange = "2021-11-11 09:53:54 +0000";
layers = (
{
anchors = (
{
name = bottom;
position = "{149, 0}";
},
{
name = ogonek;
position = "{159, 0}";
},
{
name = top;
position = "{225, 546}";
}
);
layerId = "9D27F576-B54C-4464-AC1E-5B62749637F3";
paths = (
{
closed = 1;
nodes = (
"224 0 LINE",
"300 546 LINE",
"60 546 LINE",
"42 416 LINE",
"131 416 LINE",
"73 0 LINE"
);
}
);
width = 306;
},
{
anchors = (
{
name = bottom;
position = "{107, 0}";
},
{
name = ogonek;
position = "{117, 0}";
},
{
name = top;
position = "{182, 536}";
}
);
layerId = "F445EC8D-29E3-46C7-99DD-9E4BBA6B70C5";
paths = (
{
closed = 1;
nodes = (
"144 0 LINE",
"219 536 LINE",
"69 536 LINE",
"58 461 LINE",
"133 461 LINE",
"69 0 LINE"
);
}
);
width = 244;
},
{
anchors = (
{
name = bottom;
position = "{87, 0}";
},
{
name = ogonek;
position = "{97, 0}";
},
{
name = top;
position = "{160, 526}";
}
);
layerId = "1C1CFC13-4213-4775-A214-C31251F9A91A";
paths = (
{
closed = 1;
nodes = (
"109 0 LINE",
"183 526 LINE",
"73 526 LINE",
"66 481 LINE",
"131 481 LINE",
"64 0 LINE"
);
}
);
width = 216;
}
);
leftKerningGroup = i;
leftMetricsKey = "=idotless/2";
rightKerningGroup = i;
rightMetricsKey = "=idotless";
},
{
color = 4;
glyphname = j;
lastChange = "2021-11-11 10:45:35 +0000";
layers = (
{
layerId = "9D27F576-B54C-4464-AC1E-5B62749637F3";
paths = (
{
closed = 1;
nodes = (
"63 -222 OFFCURVE",
"150 -153 OFFCURVE",
"168 -24 CURVE SMOOTH",
"248 546 LINE",
"97 546 LINE",
"18 -16 LINE SMOOTH",
"11 -64 OFFCURVE",
"-25 -92 OFFCURVE",
"-86 -92 CURVE SMOOTH",
"-94 -92 OFFCURVE",
"-105 -92 OFFCURVE",
"-116 -90 CURVE",
"-126 -216 LINE",
"-113 -219 OFFCURVE",
"-93 -222 OFFCURVE",
"-69 -222 CURVE SMOOTH"
);
},
{
closed = 1;
nodes = (
"255 595 LINE",
"276 745 LINE",
"125 745 LINE",
"104 595 LINE"
);
}
);
width = 265;
},
{
layerId = "F445EC8D-29E3-46C7-99DD-9E4BBA6B70C5";
paths = (
{
closed = 1;
nodes = (
"12 -220 OFFCURVE",
"94 -163 OFFCURVE",
"110 -52 CURVE SMOOTH",
"193 536 LINE",
"117 536 LINE",
"35 -48 LINE SMOOTH",
"26 -115 OFFCURVE",
"-25 -150 OFFCURVE",
"-81 -150 CURVE SMOOTH",
"-92 -150 OFFCURVE",
"-107 -149 OFFCURVE",
"-121 -147 CURVE",
"-127 -215 LINE",
"-117 -218 OFFCURVE",
"-92 -220 OFFCURVE",
"-81 -220 CURVE SMOOTH"
);
},
{
closed = 1;
nodes = (
"207 635 LINE",
"222 745 LINE",
"146 745 LINE",
"131 635 LINE"
);
}
);
width = 232;
},
{
layerId = "1C1CFC13-4213-4775-A214-C31251F9A91A";
paths = (
{
closed = 1;
nodes = (
"10 -220 OFFCURVE",
"75 -167 OFFCURVE",
"90 -64 CURVE SMOOTH",
"173 526 LINE",
"128 526 LINE",
"45 -60 LINE SMOOTH",
"35 -135 OFFCURVE",
"-13 -177 OFFCURVE",
"-84 -177 CURVE SMOOTH",
"-93 -177 OFFCURVE",
"-107 -176 OFFCURVE",
"-118 -174 CURVE",
"-120 -214 LINE",
"-110 -217 OFFCURVE",
"-97 -220 OFFCURVE",
"-79 -220 CURVE SMOOTH"
);
},
{
closed = 1;
nodes = (
"188 635 LINE",
"203 745 LINE",
"158 745 LINE",
"143 635 LINE"
);
}
);
width = 224;
}
);
leftKerningGroup = j;
rightKerningGroup = j;
unicode = 006A;
},
{
color = 4;
glyphname = j.ss01;
lastChange = "2021-11-11 09:41:25 +0000";
layers = (
{
layerId = "9D27F576-B54C-4464-AC1E-5B62749637F3";
paths = (
{
closed = 1;
nodes = (
"127 -222 LINE",
"235 546 LINE",
"84 546 LINE",
"-6 -92 LINE",
"-116 -92 LINE",
"-134 -222 LINE"
);
},
{
closed = 1;
nodes = (
"242 595 LINE",
"263 745 LINE",
"112 745 LINE",
"91 595 LINE"
);
}
);
width = 252;
},
{
layerId = "F445EC8D-29E3-46C7-99DD-9E4BBA6B70C5";
paths = (
{
closed = 1;
nodes = (
"64 -220 LINE",
"170 536 LINE",
"94 536 LINE",
"-2 -150 LINE",
"-122 -150 LINE",
"-132 -220 LINE"
);
},
{
closed = 1;
nodes = (
"184 635 LINE",
"200 745 LINE",
"124 745 LINE",
"108 635 LINE"
);
}
);
width = 210;
},
{
layerId = "1C1CFC13-4213-4775-A214-C31251F9A91A";
paths = (
{
closed = 1;
nodes = (
"46 -220 LINE",
"151 526 LINE",
"105 526 LINE",
"6 -180 LINE",
"-119 -180 LINE",
"-125 -220 LINE"
);
},
{
closed = 1;
nodes = (
"165 635 LINE",
"181 745 LINE",
"136 745 LINE",
"120 635 LINE"
);
}
);
width = 202;
}
);
leftKerningGroup = j;
leftMetricsKey = "=j";
rightKerningGroup = j;
rightMetricsKey = "=j";
},
{
color = 4;
glyphname = j.ss02;
lastChange = "2021-11-11 09:41:25 +0000";
layers = (
{
layerId = "9D27F576-B54C-4464-AC1E-5B62749637F3";
paths = (
{
closed = 1;
nodes = (
"96 -222 OFFCURVE",
"183 -153 OFFCURVE",
"201 -24 CURVE SMOOTH",
"281 546 LINE",
"41 546 LINE",
"23 416 LINE",
"111 416 LINE",
"50 -16 LINE SMOOTH",
"43 -64 OFFCURVE",
"8 -92 OFFCURVE",
"-54 -92 CURVE SMOOTH",
"-62 -92 OFFCURVE",
"-73 -92 OFFCURVE",
"-84 -90 CURVE",
"-94 -216 LINE",
"-81 -219 OFFCURVE",
"-61 -222 OFFCURVE",
"-37 -222 CURVE SMOOTH"
);
},
{
closed = 1;
nodes = (
"288 595 LINE",
"309 745 LINE",
"158 745 LINE",
"137 595 LINE"
);
}
);
width = 298;
},
{
layerId = "F445EC8D-29E3-46C7-99DD-9E4BBA6B70C5";
paths = (
{
closed = 1;
nodes = (
"44 -220 OFFCURVE",
"126 -163 OFFCURVE",
"142 -52 CURVE SMOOTH",
"225 536 LINE",
"75 536 LINE",
"65 461 LINE",
"138 461 LINE",
"67 -48 LINE SMOOTH",
"58 -115 OFFCURVE",
"7 -150 OFFCURVE",
"-50 -150 CURVE SMOOTH",
"-61 -150 OFFCURVE",
"-76 -149 OFFCURVE",
"-90 -147 CURVE",
"-96 -215 LINE",
"-86 -218 OFFCURVE",
"-61 -220 OFFCURVE",
"-50 -220 CURVE SMOOTH"
);
},
{
closed = 1;
nodes = (
"239 635 LINE",
"254 745 LINE",
"178 745 LINE",
"163 635 LINE"
);
}
);
width = 264;
},
{
layerId = "1C1CFC13-4213-4775-A214-C31251F9A91A";
paths = (
{
closed = 1;
nodes = (
"39 -220 OFFCURVE",
"105 -167 OFFCURVE",
"119 -64 CURVE SMOOTH",
"202 526 LINE",
"92 526 LINE",
"86 481 LINE",
"151 481 LINE",
"74 -60 LINE SMOOTH",
"63 -135 OFFCURVE",
"16 -177 OFFCURVE",
"-56 -177 CURVE SMOOTH",
"-65 -177 OFFCURVE",
"-79 -176 OFFCURVE",
"-90 -174 CURVE",
"-92 -214 LINE",
"-82 -217 OFFCURVE",
"-69 -220 OFFCURVE",
"-51 -220 CURVE SMOOTH"
);
},
{
closed = 1;
nodes = (
"217 635 LINE",
"232 745 LINE",
"187 745 LINE",
"172 635 LINE"
);
}
);
width = 253;
}
);
leftKerningGroup = j;
leftMetricsKey = "=j/2";
rightKerningGroup = j;
rightMetricsKey = "=j";
},
{
color = 4;
glyphname = jdotless;
lastChange = "2021-11-11 09:41:25 +0000";
layers = (
{
anchors = (
{
name = bottom;
position = "{41, -240}";
},
{
name = top;
position = "{149, 526}";
}
);
layerId = "1C1CFC13-4213-4775-A214-C31251F9A91A";
paths = (
{
closed = 1;
nodes = (
"10 -220 OFFCURVE",
"75 -167 OFFCURVE",
"90 -64 CURVE SMOOTH",
"173 526 LINE",
"128 526 LINE",
"45 -60 LINE SMOOTH",
"35 -135 OFFCURVE",
"-13 -177 OFFCURVE",
"-84 -177 CURVE SMOOTH",
"-93 -177 OFFCURVE",
"-107 -176 OFFCURVE",
"-118 -174 CURVE",
"-120 -214 LINE",
"-110 -217 OFFCURVE",
"-97 -220 OFFCURVE",
"-79 -220 CURVE SMOOTH"
);
}
);
width = 224;
},
{
anchors = (
{
name = bottom;
position = "{45, -240}";
},
{
name = top;
position = "{154, 536}";
}
);
layerId = "F445EC8D-29E3-46C7-99DD-9E4BBA6B70C5";
paths = (
{
closed = 1;
nodes = (
"12 -220 OFFCURVE",
"94 -163 OFFCURVE",
"110 -52 CURVE SMOOTH",
"193 536 LINE",
"117 536 LINE",
"35 -48 LINE SMOOTH",
"26 -115 OFFCURVE",
"-25 -150 OFFCURVE",
"-81 -150 CURVE SMOOTH",
"-92 -150 OFFCURVE",
"-107 -149 OFFCURVE",
"-121 -147 CURVE",
"-127 -215 LINE",
"-117 -218 OFFCURVE",
"-92 -220 OFFCURVE",
"-81 -220 CURVE SMOOTH"
);
}
);
width = 232;
},
{
anchors = (
{
name = bottom;
position = "{61, -240}";
},
{
name = top;
position = "{171, 546}";
}
);
layerId = "9D27F576-B54C-4464-AC1E-5B62749637F3";
paths = (
{
closed = 1;
nodes = (
"63 -222 OFFCURVE",
"150 -153 OFFCURVE",
"168 -24 CURVE SMOOTH",
"248 546 LINE",
"97 546 LINE",
"18 -16 LINE SMOOTH",
"11 -64 OFFCURVE",
"-25 -92 OFFCURVE",
"-86 -92 CURVE SMOOTH",
"-94 -92 OFFCURVE",
"-105 -92 OFFCURVE",
"-116 -90 CURVE",
"-126 -216 LINE",
"-113 -219 OFFCURVE",
"-93 -222 OFFCURVE",
"-69 -222 CURVE SMOOTH"
);
}
);
width = 265;
}
);
leftKerningGroup = i;
rightKerningGroup = j;
unicode = 0237;
},
{
color = 4;
glyphname = jdotless.ss01;
lastChange = "2021-11-11 09:41:25 +0000";
layers = (
{
anchors = (
{
name = bottom;
position = "{54, -240}";
},
{
name = top;
position = "{160, 546}";
}
);
layerId = "9D27F576-B54C-4464-AC1E-5B62749637F3";
paths = (
{
closed = 1;
nodes = (
"127 -222 LINE",
"235 546 LINE",
"84 546 LINE",
"-6 -92 LINE",
"-116 -92 LINE",
"-134 -222 LINE"
);
}
);
width = 252;
},
{
anchors = (
{
name = bottom;
position = "{34, -240}";
},
{
name = top;
position = "{132, 536}";
}
);
layerId = "F445EC8D-29E3-46C7-99DD-9E4BBA6B70C5";
paths = (
{
closed = 1;
nodes = (
"64 -220 LINE",
"170 536 LINE",
"94 536 LINE",
"-2 -150 LINE",
"-122 -150 LINE",
"-132 -220 LINE"
);
}
);
width = 210;
},
{
anchors = (
{
name = bottom;
position = "{30, -240}";
},
{
name = top;
position = "{128, 526}";
}
);
layerId = "1C1CFC13-4213-4775-A214-C31251F9A91A";
paths = (
{
closed = 1;
nodes = (
"46 -220 LINE",
"151 526 LINE",
"105 526 LINE",
"6 -180 LINE",
"-119 -180 LINE",
"-125 -220 LINE"
);
}
);
width = 202;
}
);
leftKerningGroup = i;
leftMetricsKey = "=j";
rightKerningGroup = j;
rightMetricsKey = "=j";
},
{
color = 4;
glyphname = jdotless.ss02;
lastChange = "2021-11-11 09:41:25 +0000";
layers = (
{
anchors = (
{
name = bottom;
position = "{104, -240}";
},
{
name = top;
position = "{214, 546}";
}
);
layerId = "9D27F576-B54C-4464-AC1E-5B62749637F3";
paths = (
{
closed = 1;
nodes = (
"106 -222 OFFCURVE",
"193 -153 OFFCURVE",
"211 -24 CURVE SMOOTH",
"291 546 LINE",
"51 546 LINE",
"33 416 LINE",
"121 416 LINE",
"60 -16 LINE SMOOTH",
"53 -64 OFFCURVE",
"18 -92 OFFCURVE",
"-43 -92 CURVE SMOOTH",
"-51 -92 OFFCURVE",
"-62 -92 OFFCURVE",
"-73 -90 CURVE",
"-83 -216 LINE",
"-70 -219 OFFCURVE",
"-50 -222 OFFCURVE",
"-26 -222 CURVE SMOOTH"
);
}
);
width = 308;
},
{
anchors = (
{
name = bottom;
position = "{87, -240}";
},
{
name = top;
position = "{196, 536}";
}
);
layerId = "F445EC8D-29E3-46C7-99DD-9E4BBA6B70C5";
paths = (
{
closed = 1;
nodes = (
"54 -220 OFFCURVE",
"136 -163 OFFCURVE",
"152 -52 CURVE SMOOTH",
"235 536 LINE",
"85 536 LINE",
"75 461 LINE",
"148 461 LINE",
"77 -48 LINE SMOOTH",
"68 -115 OFFCURVE",
"17 -150 OFFCURVE",
"-39 -150 CURVE SMOOTH",
"-50 -150 OFFCURVE",
"-65 -149 OFFCURVE",
"-79 -147 CURVE",
"-85 -215 LINE",
"-75 -218 OFFCURVE",
"-50 -220 OFFCURVE",
"-39 -220 CURVE SMOOTH"
);
}
);
width = 274;
},
{
anchors = (
{
name = bottom;
position = "{79, -240}";
},
{
name = top;
position = "{187, 526}";
}
);
layerId = "1C1CFC13-4213-4775-A214-C31251F9A91A";
paths = (
{
closed = 1;
nodes = (
"48 -220 OFFCURVE",
"114 -167 OFFCURVE",
"128 -64 CURVE SMOOTH",
"211 526 LINE",
"101 526 LINE",
"95 481 LINE",
"160 481 LINE",
"83 -60 LINE SMOOTH",
"72 -135 OFFCURVE",
"25 -177 OFFCURVE",
"-46 -177 CURVE SMOOTH",
"-55 -177 OFFCURVE",
"-69 -176 OFFCURVE",
"-80 -174 CURVE",
"-82 -214 LINE",
"-72 -217 OFFCURVE",
"-59 -220 OFFCURVE",
"-41 -220 CURVE SMOOTH"
);
}
);
width = 262;
}
);
leftKerningGroup = i;
leftMetricsKey = "=j/3";
rightKerningGroup = j;
rightMetricsKey = "=j";
},
{
color = 4;
glyphname = k;
lastChange = "2021-11-11 10:33:18 +0000";
layers = (
{
anchors = (
{
name = bottom;
position = "{255, 0}";
},
{
name = top;
position = "{365, 784}";
}
);
layerId = "9D27F576-B54C-4464-AC1E-5B62749637F3";
paths = (
{
closed = 1;
nodes = (
"168 0 LINE",
"196 204 LINE",
"137 117 LINE",
"330 299 LINE",
"249 277 LINE",
"375 0 LINE",
"536 0 LINE",
"384 326 LINE",
"613 546 LINE",
"414 546 LINE",
"137 290 LINE",
"206 272 LINE",
"274 757 LINE",
"123 757 LINE",
"17 0 LINE"
);
}
);
width = 586;
},
{
anchors = (
{
name = bottom;
position = "{236, 0}";
},
{
name = top;
position = "{347, 784}";
}
);
layerId = "F445EC8D-29E3-46C7-99DD-9E4BBA6B70C5";
paths = (
{
closed = 1;
nodes = (
"115 0 LINE",
"142 197 LINE",
"108 135 LINE",
"284 293 LINE",
"240 297 LINE",
"413 0 LINE",
"498 0 LINE",
"315 321 LINE",
"556 536 LINE",
"452 536 LINE",
"109 232 LINE",
"147 227 LINE",
"221 757 LINE",
"145 757 LINE",
"39 0 LINE"
);
}
);
width = 547;
},
{
anchors = (
{
name = bottom;
position = "{233, 0}";
},
{
name = top;
position = "{343, 784}";
}
);
layerId = "1C1CFC13-4213-4775-A214-C31251F9A91A";
paths = (
{
closed = 1;
nodes = (
"98 0 LINE",
"123 182 LINE",
"113 163 LINE",
"268 300 LINE",
"239 299 LINE",
"425 0 LINE",
"481 0 LINE",
"288 313 LINE",
"536 526 LINE",
"464 526 LINE",
"92 205 LINE",
"126 205 LINE",
"204 757 LINE",
"158 757 LINE",
"52 0 LINE"
);
}
);
width = 540;
}
);
leftKerningGroup = h;
rightKerningGroup = k;
unicode = 006B;
},
{
color = 4;
glyphname = k.ss01;
lastChange = "2021-11-11 09:41:25 +0000";
layers = (
{
layerId = "9D27F576-B54C-4464-AC1E-5B62749637F3";
paths = (
{
closed = 1;
nodes = (
"537 0 LINE",
"386 276 LINE",
"592 546 LINE",
"417 546 LINE",
"259 341 LINE",
"254 224 LINE",
"378 0 LINE"
);
},
{
closed = 1;
nodes = (
"168 0 LINE",
"274 757 LINE",
"123 757 LINE",
"17 0 LINE"
);
},
{
closed = 1;
nodes = (
"328 218 LINE",
"347 348 LINE",
"161 348 LINE",
"142 218 LINE"
);
}
);
width = 586;
},
{
layerId = "F445EC8D-29E3-46C7-99DD-9E4BBA6B70C5";
paths = (
{
closed = 1;
nodes = (
"499 0 LINE",
"338 285 LINE",
"542 536 LINE",
"446 536 LINE",
"269 319 LINE",
"270 249 LINE",
"414 0 LINE"
);
},
{
closed = 1;
nodes = (
"115 0 LINE",
"221 757 LINE",
"145 757 LINE",
"39 0 LINE"
);
},
{
closed = 1;
nodes = (
"318 247 LINE",
"329 322 LINE",
"126 322 LINE",
"115 247 LINE"
);
}
);
width = 548;
},
{
layerId = "1C1CFC13-4213-4775-A214-C31251F9A91A";
paths = (
{
closed = 1;
nodes = (
"482 0 LINE",
"316 289 LINE",
"516 526 LINE",
"454 526 LINE",
"264 300 LINE",
"267 276 LINE",
"430 0 LINE"
);
},
{
closed = 1;
nodes = (
"97 0 LINE",
"203 757 LINE",
"158 757 LINE",
"52 0 LINE"
);
},
{
closed = 1;
nodes = (
"300 266 LINE",
"306 306 LINE",
"116 306 LINE",
"110 266 LINE"
);
}
);
width = 541;
}
);
leftKerningGroup = h;
leftMetricsKey = "=k";
rightKerningGroup = k;
rightMetricsKey = "=k";
},
{
color = 4;
glyphname = kgreenlandic;
lastChange = "2021-11-11 12:18:53 +0000";
layers = (
{
layerId = "1C1CFC13-4213-4775-A214-C31251F9A91A";
paths = (
{
closed = 1;
nodes = (
"482 0 LINE",
"316 289 LINE",
"516 526 LINE",
"454 526 LINE",
"264 300 LINE",
"267 276 LINE",
"430 0 LINE"
);
},
{
closed = 1;
nodes = (
"97 0 LINE",
"170 526 LINE",
"125 526 LINE",
"52 0 LINE"
);
},
{
closed = 1;
nodes = (
"300 266 LINE",
"306 306 LINE",
"116 306 LINE",
"110 266 LINE"
);
}
);
width = 541;
},
{
layerId = "F445EC8D-29E3-46C7-99DD-9E4BBA6B70C5";
paths = (
{
closed = 1;
nodes = (
"500 0 LINE",
"339 285 LINE",
"543 536 LINE",
"447 536 LINE",
"270 319 LINE",
"271 249 LINE",
"415 0 LINE"
);
},
{
closed = 1;
nodes = (
"116 0 LINE",
"191 536 LINE",
"115 536 LINE",
"40 0 LINE"
);
},
{
closed = 1;
nodes = (
"319 247 LINE",
"330 322 LINE",
"127 322 LINE",
"116 247 LINE"
);
}
);
width = 549;
},
{
layerId = "9D27F576-B54C-4464-AC1E-5B62749637F3";
paths = (
{
closed = 1;
nodes = (
"537 0 LINE",
"386 276 LINE",
"592 546 LINE",
"417 546 LINE",
"259 341 LINE",
"254 224 LINE",
"378 0 LINE"
);
},
{
closed = 1;
nodes = (
"168 0 LINE",
"244 546 LINE",
"93 546 LINE",
"17 0 LINE"
);
},
{
closed = 1;
nodes = (
"328 218 LINE",
"347 348 LINE",
"161 348 LINE",
"142 218 LINE"
);
}
);
width = 586;
}
);
leftKerningGroup = n;
rightKerningGroup = k;
unicode = 0138;
},
{
color = 4;
glyphname = l;
lastChange = "2021-11-11 10:42:13 +0000";
layers = (
{
anchors = (
{
name = bottom;
position = "{93, 0}";
},
{
name = center;
position = "{148, 392}";
},
{
name = dot;
position = "{355, 372}";
},
{
name = top;
position = "{197, 745}";
},
{
name = topright;
position = "{300, 546}";
}
);
layerId = "9D27F576-B54C-4464-AC1E-5B62749637F3";
paths = (
{
closed = 1;
nodes = (
"168 0 LINE",
"274 757 LINE",
"123 757 LINE",
"17 0 LINE"
);
}
);
width = 261;
},
{
anchors = (
{
name = bottom;
position = "{78, 0}";
},
{
name = center;
position = "{133, 392}";
},
{
name = dot;
position = "{296, 372}";
},
{
name = top;
position = "{182, 745}";
},
{
name = topright;
position = "{269, 536}";
}
);
layerId = "F445EC8D-29E3-46C7-99DD-9E4BBA6B70C5";
paths = (
{
closed = 1;
nodes = (
"116 0 LINE",
"222 757 LINE",
"146 757 LINE",
"40 0 LINE"
);
}
);
width = 231;
},
{
anchors = (
{
name = bottom;
position = "{74, 0}";
},
{
name = center;
position = "{129, 392}";
},
{
name = dot;
position = "{287, 372}";
},
{
name = top;
position = "{179, 745}";
},
{
name = topright;
position = "{259, 526}";
}
);
layerId = "1C1CFC13-4213-4775-A214-C31251F9A91A";
paths = (
{
closed = 1;
nodes = (
"97 0 LINE",
"203 757 LINE",
"158 757 LINE",
"52 0 LINE"
);
}
);
width = 222;
}
);
leftKerningGroup = l;
rightKerningGroup = l;
unicode = 006C;
},
{
color = 4;
glyphname = l.ss01;
lastChange = "2021-11-11 10:01:26 +0000";
layers = (
{
anchors = (
{
name = bottom;
position = "{93, 0}";
},
{
name = center;
position = "{148, 392}";
},
{
name = dot;
position = "{355, 372}";
},
{
name = top;
position = "{197, 745}";
},
{
name = topright;
position = "{292, 546}";
}
);
layerId = "9D27F576-B54C-4464-AC1E-5B62749637F3";
paths = (
{
closed = 1;
nodes = (
"237 0 LINE",
"255 130 LINE",
"187 130 LINE",
"275 757 LINE",
"123 757 LINE",
"17 0 LINE"
);
}
);
width = 303;
},
{
anchors = (
{
name = bottom;
position = "{78, 0}";
},
{
name = center;
position = "{133, 392}";
},
{
name = dot;
position = "{296, 372}";
},
{
name = top;
position = "{182, 745}";
},
{
name = topright;
position = "{255, 536}";
}
);
layerId = "F445EC8D-29E3-46C7-99DD-9E4BBA6B70C5";
paths = (
{
closed = 1;
nodes = (
"190 0 LINE",
"199 70 LINE",
"125 70 LINE",
"222 757 LINE",
"146 757 LINE",
"40 0 LINE"
);
}
);
width = 267;
},
{
anchors = (
{
name = bottom;
position = "{74, 0}";
},
{
name = center;
position = "{129, 392}";
},
{
name = dot;
position = "{287, 372}";
},
{
name = top;
position = "{179, 745}";
},
{
name = topright;
position = "{240, 526}";
}
);
layerId = "1C1CFC13-4213-4775-A214-C31251F9A91A";
paths = (
{
closed = 1;
nodes = (
"172 0 LINE",
"177 40 LINE",
"103 40 LINE",
"204 757 LINE",
"158 757 LINE",
"52 0 LINE"
);
}
);
width = 253;
}
);
leftKerningGroup = l;
leftMetricsKey = "=l";
rightKerningGroup = l;
rightMetricsKey = "=l/2";
},
{
color = 4;
glyphname = l.ss03;
lastChange = "2021-11-11 10:01:49 +0000";
layers = (
{
anchors = (
{
name = bottom;
position = "{93, 0}";
},
{
name = center;
position = "{148, 392}";
},
{
name = dot;
position = "{355, 372}";
},
{
name = top;
position = "{197, 745}";
},
{
name = topright;
position = "{291, 546}";
}
);
layerId = "9D27F576-B54C-4464-AC1E-5B62749637F3";
paths = (
{
closed = 1;
nodes = (
"236 -6 LINE",
"254 124 LINE",
"248 124 LINE SMOOTH",
"205 124 OFFCURVE",
"188 141 OFFCURVE",
"194 181 CURVE SMOOTH",
"275 757 LINE",
"123 757 LINE",
"42 178 LINE SMOOTH",
"25 54 OFFCURVE",
"80 -6 OFFCURVE",
"213 -6 CURVE SMOOTH"
);
}
);
width = 303;
},
{
anchors = (
{
name = bottom;
position = "{78, 0}";
},
{
name = center;
position = "{133, 392}";
},
{
name = dot;
position = "{296, 372}";
},
{
name = top;
position = "{182, 745}";
},
{
name = topright;
position = "{255, 536}";
}
);
layerId = "F445EC8D-29E3-46C7-99DD-9E4BBA6B70C5";
paths = (
{
closed = 1;
nodes = (
"189 -6 LINE",
"198 59 LINE",
"188 59 LINE SMOOTH",
"146 59 OFFCURVE",
"126 77 OFFCURVE",
"132 118 CURVE SMOOTH",
"222 757 LINE",
"146 757 LINE",
"56 116 LINE SMOOTH",
"45 37 OFFCURVE",
"89 -6 OFFCURVE",
"174 -6 CURVE SMOOTH"
);
}
);
width = 267;
},
{
anchors = (
{
name = bottom;
position = "{75, 0}";
},
{
name = center;
position = "{130, 392}";
},
{
name = dot;
position = "{288, 372}";
},
{
name = top;
position = "{180, 745}";
},
{
name = topright;
position = "{241, 526}";
}
);
layerId = "1C1CFC13-4213-4775-A214-C31251F9A91A";
paths = (
{
closed = 1;
nodes = (
"172 -6 LINE",
"177 34 LINE",
"166 34 LINE SMOOTH",
"122 34 OFFCURVE",
"105 52 OFFCURVE",
"111 92 CURVE SMOOTH",
"204 757 LINE",
"159 757 LINE",
"66 96 LINE SMOOTH",
"57 34 OFFCURVE",
"88 -6 OFFCURVE",
"163 -6 CURVE SMOOTH"
);
}
);
width = 254;
}
);
leftKerningGroup = l;
leftMetricsKey = "=l";
rightKerningGroup = l;
rightMetricsKey = "=l/2";
},
{
color = 4;
glyphname = m;
lastChange = "2021-11-11 09:41:25 +0000";
layers = (
{
anchors = (
{
name = bottom;
position = "{427, 0}";
},
{
name = top;
position = "{503, 546}";
}
);
layerId = "9D27F576-B54C-4464-AC1E-5B62749637F3";
paths = (
{
closed = 1;
nodes = (
"167 0 LINE",
"211 319 LINE SMOOTH",
"220 382 OFFCURVE",
"262 423 OFFCURVE",
"321 423 CURVE SMOOTH",
"380 423 OFFCURVE",
"410 382 OFFCURVE",
"401 319 CURVE SMOOTH",
"357 0 LINE",
"507 0 LINE",
"551 319 LINE SMOOTH",
"560 382 OFFCURVE",
"602 423 OFFCURVE",
"661 423 CURVE SMOOTH",
"720 423 OFFCURVE",
"750 382 OFFCURVE",
"741 319 CURVE SMOOTH",
"697 0 LINE",
"847 0 LINE",
"895 347 LINE SMOOTH",
"912 471 OFFCURVE",
"837 558 OFFCURVE",
"716 558 CURVE SMOOTH",
"625 558 OFFCURVE",
"549 521 OFFCURVE",
"498 427 CURVE",
"552 431 LINE",
"533 508 OFFCURVE",
"467 558 OFFCURVE",
"376 558 CURVE SMOOTH",
"294 558 OFFCURVE",
"235 525 OFFCURVE",
"201 440 CURVE",
"216 419 LINE",
"233 546 LINE",
"93 546 LINE",
"17 0 LINE"
);
}
);
width = 929;
},
{
anchors = (
{
name = bottom;
position = "{417, 0}";
},
{
name = top;
position = "{493, 536}";
}
);
layerId = "F445EC8D-29E3-46C7-99DD-9E4BBA6B70C5";
paths = (
{
closed = 1;
nodes = (
"115 0 LINE",
"159 317 LINE SMOOTH",
"172 413 OFFCURVE",
"243 473 OFFCURVE",
"321 473 CURVE SMOOTH",
"396 473 OFFCURVE",
"443 418 OFFCURVE",
"431 331 CURVE SMOOTH",
"385 0 LINE",
"460 0 LINE",
"506 330 LINE SMOOTH",
"518 419 OFFCURVE",
"592 473 OFFCURVE",
"666 473 CURVE SMOOTH",
"741 473 OFFCURVE",
"788 418 OFFCURVE",
"776 331 CURVE SMOOTH",
"730 0 LINE",
"805 0 LINE",
"852 336 LINE SMOOTH",
"869 460 OFFCURVE",
"789 548 OFFCURVE",
"678 548 CURVE SMOOTH",
"599 548 OFFCURVE",
"519 505 OFFCURVE",
"483 420 CURVE",
"503 419 LINE",
"485 498 OFFCURVE",
"421 548 OFFCURVE",
"337 548 CURVE SMOOTH",
"269 548 OFFCURVE",
"205 513 OFFCURVE",
"168 452 CURVE",
"177 437 LINE",
"190 536 LINE",
"115 536 LINE",
"40 0 LINE"
);
}
);
width = 909;
},
{
anchors = (
{
name = bottom;
position = "{418, 0}";
},
{
name = top;
position = "{492, 526}";
}
);
layerId = "1C1CFC13-4213-4775-A214-C31251F9A91A";
paths = (
{
closed = 1;
nodes = (
"96 0 LINE",
"140 318 LINE SMOOTH",
"154 415 OFFCURVE",
"225 495 OFFCURVE",
"322 495 CURVE SMOOTH",
"402 495 OFFCURVE",
"462 437 OFFCURVE",
"447 332 CURVE SMOOTH",
"401 0 LINE",
"446 0 LINE",
"490 318 LINE SMOOTH",
"504 415 OFFCURVE",
"575 495 OFFCURVE",
"672 495 CURVE SMOOTH",
"752 495 OFFCURVE",
"812 437 OFFCURVE",
"797 332 CURVE SMOOTH",
"751 0 LINE",
"796 0 LINE",
"842 333 LINE SMOOTH",
"860 459 OFFCURVE",
"777 538 OFFCURVE",
"674 538 CURVE SMOOTH",
"588 538 OFFCURVE",
"507 483 OFFCURVE",
"476 400 CURVE",
"492 397 LINE",
"478 486 OFFCURVE",
"407 538 OFFCURVE",
"324 538 CURVE SMOOTH",
"251 538 OFFCURVE",
"180 496 OFFCURVE",
"146 433 CURVE",
"154 417 LINE",
"170 526 LINE",
"125 526 LINE",
"51 0 LINE"
);
}
);
width = 910;
}
);
leftKerningGroup = n;
rightKerningGroup = n;
unicode = 006D;
},
{
color = 4;
glyphname = m.ss01;
lastChange = "2021-11-11 09:41:25 +0000";
layers = (
{
layerId = "9D27F576-B54C-4464-AC1E-5B62749637F3";
paths = (
{
closed = 1;
nodes = (
"168 0 LINE",
"226 416 LINE",
"414 416 LINE",
"356 0 LINE",
"507 0 LINE",
"565 416 LINE",
"753 416 LINE",
"695 0 LINE",
"846 0 LINE",
"922 546 LINE",
"93 546 LINE",
"17 0 LINE"
);
}
);
width = 928;
},
{
layerId = "F445EC8D-29E3-46C7-99DD-9E4BBA6B70C5";
paths = (
{
closed = 1;
nodes = (
"115 0 LINE",
"180 461 LINE",
"448 461 LINE",
"383 0 LINE",
"459 0 LINE",
"524 461 LINE",
"792 461 LINE",
"727 0 LINE",
"803 0 LINE",
"879 536 LINE",
"115 536 LINE",
"39 0 LINE"
);
}
);
width = 907;
},
{
layerId = "1C1CFC13-4213-4775-A214-C31251F9A91A";
paths = (
{
closed = 1;
nodes = (
"97 0 LINE",
"165 486 LINE",
"469 486 LINE",
"401 0 LINE",
"446 0 LINE",
"514 486 LINE",
"818 486 LINE",
"750 0 LINE",
"795 0 LINE",
"869 526 LINE",
"125 526 LINE",
"51 0 LINE"
);
}
);
width = 909;
}
);
leftKerningGroup = n;
leftMetricsKey = "=n";
rightKerningGroup = n;
rightMetricsKey = "=n";
},
{
color = 4;
glyphname = m.ss03;
lastChange = "2021-11-11 09:41:25 +0000";
layers = (
{
anchors = (
{
name = bottom;
position = "{426, 0}";
},
{
name = top;
position = "{502, 546}";
}
);
layerId = "9D27F576-B54C-4464-AC1E-5B62749637F3";
paths = (
{
closed = 1;
nodes = (
"168 0 LINE",
"226 416 LINE",
"414 416 LINE",
"356 0 LINE",
"507 0 LINE",
"565 416 LINE",
"667 416 LINE SMOOTH",
"722 416 OFFCURVE",
"749 384 OFFCURVE",
"741 328 CURVE SMOOTH",
"695 0 LINE",
"846 0 LINE",
"892 328 LINE SMOOTH",
"911 460 OFFCURVE",
"827 546 OFFCURVE",
"678 546 CURVE SMOOTH",
"93 546 LINE",
"17 0 LINE"
);
}
);
width = 928;
},
{
anchors = (
{
name = bottom;
position = "{416, 0}";
},
{
name = top;
position = "{492, 536}";
}
);
layerId = "F445EC8D-29E3-46C7-99DD-9E4BBA6B70C5";
paths = (
{
closed = 1;
nodes = (
"116 0 LINE",
"180 461 LINE",
"448 461 LINE",
"384 0 LINE",
"460 0 LINE",
"524 461 LINE",
"657 461 LINE SMOOTH",
"743 461 OFFCURVE",
"785 413 OFFCURVE",
"773 329 CURVE SMOOTH",
"727 0 LINE",
"803 0 LINE",
"848 325 LINE SMOOTH",
"866 456 OFFCURVE",
"797 536 OFFCURVE",
"664 536 CURVE SMOOTH",
"115 536 LINE",
"40 0 LINE"
);
}
);
width = 907;
},
{
anchors = (
{
name = bottom;
position = "{418, 0}";
},
{
name = top;
position = "{492, 526}";
}
);
layerId = "1C1CFC13-4213-4775-A214-C31251F9A91A";
paths = (
{
closed = 1;
nodes = (
"97 0 LINE",
"165 486 LINE",
"469 486 LINE",
"401 0 LINE",
"446 0 LINE",
"514 486 LINE",
"676 486 LINE SMOOTH",
"762 486 OFFCURVE",
"809 428 OFFCURVE",
"797 339 CURVE SMOOTH",
"750 0 LINE",
"795 0 LINE",
"842 335 LINE SMOOTH",
"858 448 OFFCURVE",
"791 526 OFFCURVE",
"678 526 CURVE SMOOTH",
"125 526 LINE",
"51 0 LINE"
);
}
);
width = 909;
}
);
leftKerningGroup = n;
leftMetricsKey = "=n";
rightKerningGroup = n;
rightMetricsKey = "=n";
},
{
color = 4;
glyphname = n;
lastChange = "2021-11-11 09:41:25 +0000";
layers = (
{
anchors = (
{
name = bottom;
position = "{262, 0}";
},
{
name = top;
position = "{338, 546}";
}
);
layerId = "9D27F576-B54C-4464-AC1E-5B62749637F3";
paths = (
{
closed = 1;
nodes = (
"167 0 LINE",
"211 319 LINE SMOOTH",
"220 382 OFFCURVE",
"267 423 OFFCURVE",
"326 423 CURVE SMOOTH",
"385 423 OFFCURVE",
"420 382 OFFCURVE",
"411 319 CURVE SMOOTH",
"367 0 LINE",
"517 0 LINE",
"564 337 LINE SMOOTH",
"581 461 OFFCURVE",
"507 558 OFFCURVE",
"381 558 CURVE SMOOTH",
"308 558 OFFCURVE",
"247 531 OFFCURVE",
"213 466 CURVE",
"219 438 LINE",
"233 546 LINE",
"93 546 LINE",
"17 0 LINE"
);
}
);
width = 599;
},
{
anchors = (
{
name = bottom;
position = "{249, 0}";
},
{
name = top;
position = "{325, 536}";
}
);
layerId = "F445EC8D-29E3-46C7-99DD-9E4BBA6B70C5";
paths = (
{
closed = 1;
nodes = (
"115 0 LINE",
"159 317 LINE SMOOTH",
"173 413 OFFCURVE",
"242 473 OFFCURVE",
"326 473 CURVE SMOOTH",
"406 473 OFFCURVE",
"453 418 OFFCURVE",
"441 331 CURVE SMOOTH",
"395 0 LINE",
"470 0 LINE",
"517 336 LINE SMOOTH",
"534 460 OFFCURVE",
"457 548 OFFCURVE",
"342 548 CURVE SMOOTH",
"264 548 OFFCURVE",
"194 507 OFFCURVE",
"159 438 CURVE",
"176 432 LINE",
"190 536 LINE",
"115 536 LINE",
"40 0 LINE"
);
}
);
width = 574;
},
{
anchors = (
{
name = bottom;
position = "{248, 0}";
},
{
name = top;
position = "{322, 526}";
}
);
layerId = "1C1CFC13-4213-4775-A214-C31251F9A91A";
paths = (
{
closed = 1;
nodes = (
"96 0 LINE",
"140 318 LINE SMOOTH",
"154 415 OFFCURVE",
"225 495 OFFCURVE",
"327 495 CURVE SMOOTH",
"412 495 OFFCURVE",
"472 437 OFFCURVE",
"457 332 CURVE SMOOTH",
"411 0 LINE",
"456 0 LINE",
"502 333 LINE SMOOTH",
"520 459 OFFCURVE",
"437 538 OFFCURVE",
"329 538 CURVE SMOOTH",
"247 538 OFFCURVE",
"173 492 OFFCURVE",
"142 422 CURVE",
"154 415 LINE",
"170 526 LINE",
"125 526 LINE",
"51 0 LINE"
);
}
);
width = 570;
}
);
leftKerningGroup = n;
rightKerningGroup = n;
unicode = 006E;
},
{
color = 4;
glyphname = n.ss01;
lastChange = "2021-11-11 09:41:25 +0000";
layers = (
{
anchors = (
{
name = bottom;
position = "{268, 0}";
},
{
name = top;
position = "{344, 546}";
}
);
layerId = "9D27F576-B54C-4464-AC1E-5B62749637F3";
paths = (
{
closed = 1;
nodes = (
"168 0 LINE",
"226 416 LINE",
"426 416 LINE",
"368 0 LINE",
"519 0 LINE",
"595 546 LINE",
"93 546 LINE",
"17 0 LINE"
);
}
);
width = 612;
},
{
anchors = (
{
name = bottom;
position = "{254, 0}";
},
{
name = top;
position = "{330, 536}";
}
);
layerId = "F445EC8D-29E3-46C7-99DD-9E4BBA6B70C5";
paths = (
{
closed = 1;
nodes = (
"115 0 LINE",
"180 461 LINE",
"458 461 LINE",
"393 0 LINE",
"469 0 LINE",
"545 536 LINE",
"115 536 LINE",
"39 0 LINE"
);
}
);
width = 584;
},
{
anchors = (
{
name = bottom;
position = "{254, 0}";
},
{
name = top;
position = "{328, 526}";
}
);
layerId = "1C1CFC13-4213-4775-A214-C31251F9A91A";
paths = (
{
closed = 1;
nodes = (
"97 0 LINE",
"165 486 LINE",
"479 486 LINE",
"411 0 LINE",
"456 0 LINE",
"530 526 LINE",
"125 526 LINE",
"51 0 LINE"
);
}
);
width = 581;
}
);
leftKerningGroup = n;
leftMetricsKey = "=n";
rightKerningGroup = n;
rightMetricsKey = "=|n";
},
{
color = 4;
glyphname = n.ss03;
lastChange = "2021-11-11 09:41:25 +0000";
layers = (
{
anchors = (
{
name = bottom;
position = "{263, 0}";
},
{
name = top;
position = "{339, 546}";
}
);
layerId = "9D27F576-B54C-4464-AC1E-5B62749637F3";
paths = (
{
closed = 1;
nodes = (
"169 0 LINE",
"227 416 LINE",
"341 416 LINE SMOOTH",
"396 416 OFFCURVE",
"423 384 OFFCURVE",
"415 328 CURVE SMOOTH",
"369 0 LINE",
"520 0 LINE",
"566 328 LINE SMOOTH",
"585 460 OFFCURVE",
"501 546 OFFCURVE",
"352 546 CURVE SMOOTH",
"93 546 LINE",
"17 0 LINE"
);
}
);
width = 602;
},
{
anchors = (
{
name = bottom;
position = "{249, 0}";
},
{
name = top;
position = "{325, 536}";
}
);
layerId = "F445EC8D-29E3-46C7-99DD-9E4BBA6B70C5";
paths = (
{
closed = 1;
nodes = (
"116 0 LINE",
"180 461 LINE",
"323 461 LINE SMOOTH",
"408 461 OFFCURVE",
"451 412 OFFCURVE",
"439 329 CURVE SMOOTH",
"393 0 LINE",
"469 0 LINE",
"514 325 LINE SMOOTH",
"532 458 OFFCURVE",
"460 536 OFFCURVE",
"330 536 CURVE SMOOTH",
"115 536 LINE",
"40 0 LINE"
);
}
);
width = 573;
},
{
anchors = (
{
name = bottom;
position = "{249, 0}";
},
{
name = top;
position = "{323, 526}";
}
);
layerId = "1C1CFC13-4213-4775-A214-C31251F9A91A";
paths = (
{
closed = 1;
nodes = (
"97 0 LINE",
"165 486 LINE",
"338 486 LINE SMOOTH",
"424 486 OFFCURVE",
"471 428 OFFCURVE",
"459 339 CURVE SMOOTH",
"412 0 LINE",
"457 0 LINE",
"504 335 LINE SMOOTH",
"520 448 OFFCURVE",
"453 526 OFFCURVE",
"340 526 CURVE SMOOTH",
"125 526 LINE",
"52 0 LINE"
);
}
);
width = 571;
}
);
leftKerningGroup = n;
leftMetricsKey = "=n";
rightKerningGroup = n;
rightMetricsKey = "=n";
},
{
color = 4;
glyphname = eng;
lastChange = "2021-11-11 09:41:25 +0000";
layers = (
{
layerId = "9D27F576-B54C-4464-AC1E-5B62749637F3";
paths = (
{
closed = 1;
nodes = (
"403 -222 OFFCURVE",
"490 -152 OFFCURVE",
"508 -24 CURVE SMOOTH",
"559 337 LINE",
"576 461 OFFCURVE",
"502 558 OFFCURVE",
"376 558 CURVE SMOOTH",
"303 558 OFFCURVE",
"242 531 OFFCURVE",
"208 466 CURVE",
"214 438 LINE",
"228 546 LINE",
"88 546 LINE",
"12 0 LINE",
"162 0 LINE",
"206 319 LINE SMOOTH",
"215 382 OFFCURVE",
"262 423 OFFCURVE",
"321 423 CURVE SMOOTH",
"380 423 OFFCURVE",
"415 382 OFFCURVE",
"406 319 CURVE",
"359 -16 LINE SMOOTH",
"352 -64 OFFCURVE",
"316 -92 OFFCURVE",
"255 -92 CURVE SMOOTH",
"247 -92 OFFCURVE",
"236 -92 OFFCURVE",
"225 -90 CURVE",
"215 -216 LINE",
"228 -219 OFFCURVE",
"248 -222 OFFCURVE",
"272 -222 CURVE SMOOTH"
);
}
);
width = 600;
},
{
layerId = "F445EC8D-29E3-46C7-99DD-9E4BBA6B70C5";
paths = (
{
closed = 1;
nodes = (
"349 -220 OFFCURVE",
"434 -163 OFFCURVE",
"450 -52 CURVE SMOOTH",
"505 336 LINE SMOOTH",
"523 460 OFFCURVE",
"445 548 OFFCURVE",
"330 548 CURVE SMOOTH",
"252 548 OFFCURVE",
"182 507 OFFCURVE",
"147 438 CURVE",
"164 432 LINE",
"178 536 LINE",
"103 536 LINE",
"28 0 LINE",
"103 0 LINE",
"147 317 LINE SMOOTH",
"160 413 OFFCURVE",
"230 473 OFFCURVE",
"314 473 CURVE SMOOTH",
"394 473 OFFCURVE",
"441 418 OFFCURVE",
"429 331 CURVE SMOOTH",
"375 -48 LINE SMOOTH",
"365 -115 OFFCURVE",
"316 -150 OFFCURVE",
"260 -150 CURVE SMOOTH",
"249 -150 OFFCURVE",
"234 -149 OFFCURVE",
"220 -147 CURVE",
"214 -215 LINE",
"224 -218 OFFCURVE",
"245 -220 OFFCURVE",
"256 -220 CURVE SMOOTH"
);
}
);
width = 600;
},
{
layerId = "1C1CFC13-4213-4775-A214-C31251F9A91A";
paths = (
{
closed = 1;
nodes = (
"356 -220 OFFCURVE",
"421 -167 OFFCURVE",
"436 -64 CURVE SMOOTH",
"491 333 LINE SMOOTH",
"508 459 OFFCURVE",
"426 538 OFFCURVE",
"318 538 CURVE SMOOTH",
"236 538 OFFCURVE",
"162 492 OFFCURVE",
"131 422 CURVE",
"143 415 LINE",
"159 526 LINE",
"114 526 LINE",
"40 0 LINE",
"85 0 LINE",
"129 318 LINE SMOOTH",
"142 415 OFFCURVE",
"214 495 OFFCURVE",
"316 495 CURVE SMOOTH",
"401 495 OFFCURVE",
"461 437 OFFCURVE",
"446 332 CURVE",
"391 -60 LINE SMOOTH",
"381 -135 OFFCURVE",
"333 -177 OFFCURVE",
"262 -177 CURVE SMOOTH",
"253 -177 OFFCURVE",
"239 -176 OFFCURVE",
"228 -174 CURVE",
"226 -214 LINE",
"236 -217 OFFCURVE",
"249 -220 OFFCURVE",
"267 -220 CURVE SMOOTH"
);
}
);
width = 600;
}
);
leftKerningGroup = n;
rightKerningGroup = n;
unicode = 014B;
},
{
color = 4;
glyphname = eng.ss01;
lastChange = "2021-11-11 09:41:25 +0000";
layers = (
{
layerId = "9D27F576-B54C-4464-AC1E-5B62749637F3";
paths = (
{
closed = 1;
nodes = (
"410 -222 OFFCURVE",
"498 -152 OFFCURVE",
"516 -24 CURVE SMOOTH",
"595 546 LINE",
"93 546 LINE",
"17 0 LINE",
"168 0 LINE",
"226 416 LINE",
"426 416 LINE",
"366 -16 LINE SMOOTH",
"359 -64 OFFCURVE",
"323 -92 OFFCURVE",
"262 -92 CURVE SMOOTH",
"254 -92 OFFCURVE",
"243 -92 OFFCURVE",
"232 -90 CURVE",
"222 -216 LINE",
"235 -219 OFFCURVE",
"255 -222 OFFCURVE",
"279 -222 CURVE SMOOTH"
);
}
);
width = 602;
},
{
layerId = "F445EC8D-29E3-46C7-99DD-9E4BBA6B70C5";
paths = (
{
closed = 1;
nodes = (
"360 -220 OFFCURVE",
"445 -163 OFFCURVE",
"461 -52 CURVE SMOOTH",
"545 536 LINE",
"115 536 LINE",
"39 0 LINE",
"115 0 LINE",
"180 461 LINE",
"458 461 LINE",
"386 -48 LINE SMOOTH",
"377 -112 OFFCURVE",
"330 -150 OFFCURVE",
"271 -150 CURVE SMOOTH",
"260 -150 OFFCURVE",
"245 -149 OFFCURVE",
"231 -147 CURVE",
"225 -215 LINE",
"235 -218 OFFCURVE",
"256 -220 OFFCURVE",
"267 -220 CURVE SMOOTH"
);
}
);
width = 573;
},
{
layerId = "1C1CFC13-4213-4775-A214-C31251F9A91A";
paths = (
{
closed = 1;
nodes = (
"367 -220 OFFCURVE",
"433 -167 OFFCURVE",
"447 -64 CURVE SMOOTH",
"530 526 LINE",
"125 526 LINE",
"51 0 LINE",
"97 0 LINE",
"165 486 LINE",
"479 486 LINE",
"402 -60 LINE SMOOTH",
"391 -135 OFFCURVE",
"344 -177 OFFCURVE",
"273 -177 CURVE SMOOTH",
"264 -177 OFFCURVE",
"250 -176 OFFCURVE",
"239 -174 CURVE",
"237 -214 LINE",
"247 -217 OFFCURVE",
"260 -220 OFFCURVE",
"278 -220 CURVE SMOOTH"
);
}
);
width = 570;
}
);
leftKerningGroup = n;
leftMetricsKey = "=n";
rightKerningGroup = n;
rightMetricsKey = "=n";
},
{
color = 4;
glyphname = eng.ss03;
lastChange = "2021-11-11 09:41:25 +0000";
layers = (
{
layerId = "9D27F576-B54C-4464-AC1E-5B62749637F3";
paths = (
{
closed = 1;
nodes = (
"410 -222 OFFCURVE",
"499 -152 OFFCURVE",
"517 -24 CURVE SMOOTH",
"566 328 LINE SMOOTH",
"584 460 OFFCURVE",
"501 546 OFFCURVE",
"352 546 CURVE SMOOTH",
"93 546 LINE",
"17 0 LINE",
"169 0 LINE",
"227 416 LINE",
"341 416 LINE SMOOTH",
"395 416 OFFCURVE",
"423 384 OFFCURVE",
"415 328 CURVE SMOOTH",
"366 -16 LINE SMOOTH",
"359 -64 OFFCURVE",
"323 -92 OFFCURVE",
"262 -92 CURVE SMOOTH",
"254 -92 OFFCURVE",
"243 -92 OFFCURVE",
"232 -90 CURVE",
"222 -216 LINE",
"235 -219 OFFCURVE",
"255 -222 OFFCURVE",
"279 -222 CURVE SMOOTH"
);
}
);
width = 603;
},
{
layerId = "F445EC8D-29E3-46C7-99DD-9E4BBA6B70C5";
paths = (
{
closed = 1;
nodes = (
"360 -220 OFFCURVE",
"445 -163 OFFCURVE",
"461 -52 CURVE SMOOTH",
"514 325 LINE SMOOTH",
"533 458 OFFCURVE",
"460 536 OFFCURVE",
"330 536 CURVE SMOOTH",
"115 536 LINE",
"40 0 LINE",
"116 0 LINE",
"180 461 LINE",
"323 461 LINE SMOOTH",
"408 461 OFFCURVE",
"451 412 OFFCURVE",
"439 329 CURVE SMOOTH",
"386 -48 LINE SMOOTH",
"377 -115 OFFCURVE",
"327 -150 OFFCURVE",
"271 -150 CURVE SMOOTH",
"260 -150 OFFCURVE",
"245 -149 OFFCURVE",
"231 -147 CURVE",
"225 -215 LINE",
"235 -218 OFFCURVE",
"256 -220 OFFCURVE",
"267 -220 CURVE SMOOTH"
);
}
);
width = 572;
},
{
layerId = "1C1CFC13-4213-4775-A214-C31251F9A91A";
paths = (
{
closed = 1;
nodes = (
"365 -220 OFFCURVE",
"433 -170 OFFCURVE",
"448 -64 CURVE SMOOTH",
"504 335 LINE SMOOTH",
"520 448 OFFCURVE",
"452 526 OFFCURVE",
"340 526 CURVE SMOOTH",
"125 526 LINE",
"52 0 LINE",
"97 0 LINE",
"165 486 LINE",
"338 486 LINE SMOOTH",
"420 486 OFFCURVE",
"472 432 OFFCURVE",
"459 339 CURVE SMOOTH",
"403 -60 LINE SMOOTH",
"392 -138 OFFCURVE",
"342 -177 OFFCURVE",
"274 -177 CURVE SMOOTH",
"265 -177 OFFCURVE",
"251 -176 OFFCURVE",
"240 -174 CURVE",
"238 -214 LINE",
"248 -217 OFFCURVE",
"261 -220 OFFCURVE",
"279 -220 CURVE SMOOTH"
);
}
);
width = 571;
}
);
leftKerningGroup = n;
leftMetricsKey = "=n";
rightKerningGroup = n;
rightMetricsKey = "=n";
},
{
color = 4;
glyphname = o;
lastChange = "2021-11-11 09:54:12 +0000";
layers = (
{
anchors = (
{
name = bottom;
position = "{290, 0}";
},
{
name = center;
position = "{328, 273}";
},
{
name = ogonek;
position = "{309, 0}";
},
{
name = top;
position = "{366, 546}";
},
{
name = topright;
position = "{673, 546}";
}
);
layerId = "9D27F576-B54C-4464-AC1E-5B62749637F3";
paths = (
{
closed = 1;
nodes = (
"481 -12 OFFCURVE",
"621 121 OFFCURVE",
"621 289 CURVE SMOOTH",
"621 446 OFFCURVE",
"500 558 OFFCURVE",
"344 558 CURVE SMOOTH",
"174 558 OFFCURVE",
"34 426 OFFCURVE",
"34 257 CURVE SMOOTH",
"34 100 OFFCURVE",
"155 -12 OFFCURVE",
"312 -12 CURVE SMOOTH"
);
},
{
closed = 1;
nodes = (
"238 123 OFFCURVE",
"190 177 OFFCURVE",
"190 255 CURVE SMOOTH",
"190 348 OFFCURVE",
"252 423 OFFCURVE",
"342 423 CURVE SMOOTH",
"417 423 OFFCURVE",
"465 368 OFFCURVE",
"465 291 CURVE SMOOTH",
"465 197 OFFCURVE",
"403 123 OFFCURVE",
"314 123 CURVE SMOOTH"
);
}
);
width = 655;
},
{
anchors = (
{
name = bottom;
position = "{291, 0}";
},
{
name = center;
position = "{329, 268}";
},
{
name = ogonek;
position = "{312, 0}";
},
{
name = top;
position = "{367, 536}";
},
{
name = topright;
position = "{676, 536}";
}
);
layerId = "F445EC8D-29E3-46C7-99DD-9E4BBA6B70C5";
paths = (
{
closed = 1;
nodes = (
"473 -12 OFFCURVE",
"603 122 OFFCURVE",
"603 286 CURVE SMOOTH",
"603 439 OFFCURVE",
"491 548 OFFCURVE",
"344 548 CURVE SMOOTH",
"183 548 OFFCURVE",
"56 416 OFFCURVE",
"56 253 CURVE SMOOTH",
"56 97 OFFCURVE",
"171 -12 OFFCURVE",
"314 -12 CURVE SMOOTH"
);
},
{
closed = 1;
nodes = (
"211 63 OFFCURVE",
"136 143 OFFCURVE",
"136 251 CURVE SMOOTH",
"136 372 OFFCURVE",
"229 473 OFFCURVE",
"345 473 CURVE SMOOTH",
"447 473 OFFCURVE",
"523 394 OFFCURVE",
"523 287 CURVE SMOOTH",
"523 167 OFFCURVE",
"430 63 OFFCURVE",
"313 63 CURVE SMOOTH"
);
}
);
width = 658;
},
{
anchors = (
{
name = bottom;
position = "{295, 0}";
},
{
name = center;
position = "{332, 263}";
},
{
name = ogonek;
position = "{315, 0}";
},
{
name = top;
position = "{369, 526}";
},
{
name = topright;
position = "{681, 526}";
}
);
layerId = "1C1CFC13-4213-4775-A214-C31251F9A91A";
paths = (
{
closed = 1;
nodes = (
"476 -12 OFFCURVE",
"598 121 OFFCURVE",
"598 283 CURVE SMOOTH",
"598 430 OFFCURVE",
"495 538 OFFCURVE",
"350 538 CURVE SMOOTH",
"189 538 OFFCURVE",
"66 406 OFFCURVE",
"66 243 CURVE SMOOTH",
"66 96 OFFCURVE",
"170 -12 OFFCURVE",
"315 -12 CURVE SMOOTH"
);
},
{
closed = 1;
nodes = (
"199 31 OFFCURVE",
"114 122 OFFCURVE",
"114 243 CURVE SMOOTH",
"114 379 OFFCURVE",
"217 495 OFFCURVE",
"351 495 CURVE SMOOTH",
"467 495 OFFCURVE",
"550 405 OFFCURVE",
"550 285 CURVE SMOOTH",
"550 148 OFFCURVE",
"448 31 OFFCURVE",
"314 31 CURVE SMOOTH"
);
}
);
width = 664;
},
{
associatedMasterId = "F445EC8D-29E3-46C7-99DD-9E4BBA6B70C5";
layerId = "AECC9D69-6FA8-4007-86AC-5436E8AE43CC";
name = "Nov 30 20, 14:55";
paths = (
{
closed = 1;
nodes = (
"443 -12 OFFCURVE",
"573 122 OFFCURVE",
"573 286 CURVE SMOOTH",
"573 439 OFFCURVE",
"461 548 OFFCURVE",
"314 548 CURVE SMOOTH",
"153 548 OFFCURVE",
"26 416 OFFCURVE",
"26 253 CURVE SMOOTH",
"26 97 OFFCURVE",
"141 -12 OFFCURVE",
"284 -12 CURVE SMOOTH"
);
},
{
closed = 1;
nodes = (
"181 63 OFFCURVE",
"106 143 OFFCURVE",
"106 251 CURVE SMOOTH",
"106 372 OFFCURVE",
"199 473 OFFCURVE",
"315 473 CURVE SMOOTH",
"417 473 OFFCURVE",
"493 394 OFFCURVE",
"493 287 CURVE SMOOTH",
"493 167 OFFCURVE",
"400 63 OFFCURVE",
"283 63 CURVE SMOOTH"
);
}
);
width = 616;
}
);
leftKerningGroup = o;
rightKerningGroup = o;
unicode = 006F;
},
{
color = 4;
glyphname = ohorn;
lastChange = "2021-11-11 09:42:27 +0000";
layers = (
{
anchors = (
{
name = bottom;
position = "{295, 0}";
},
{
name = center;
position = "{332, 263}";
},
{
name = ogonek;
position = "{364, 30}";
},
{
name = top;
position = "{369, 526}";
},
{
name = topright;
position = "{681, 526}";
}
);
layerId = "1C1CFC13-4213-4775-A214-C31251F9A91A";
paths = (
{
closed = 1;
nodes = (
"476 -12 OFFCURVE",
"598 121 OFFCURVE",
"598 283 CURVE SMOOTH",
"598 383 OFFCURVE",
"551 465 OFFCURVE",
"475 507 CURVE",
"471 498 LINE",
"531 502 OFFCURVE",
"570 543 OFFCURVE",
"570 606 CURVE SMOOTH",
"570 627 OFFCURVE",
"566 649 OFFCURVE",
"560 674 CURVE",
"515 674 LINE",
"520 653 OFFCURVE",
"525 631 OFFCURVE",
"525 610 CURVE SMOOTH",
"525 562 OFFCURVE",
"500 538 OFFCURVE",
"463 538 CURVE SMOOTH",
"350 538 LINE SMOOTH",
"189 538 OFFCURVE",
"66 406 OFFCURVE",
"66 243 CURVE SMOOTH",
"66 96 OFFCURVE",
"170 -12 OFFCURVE",
"315 -12 CURVE SMOOTH"
);
},
{
closed = 1;
nodes = (
"199 31 OFFCURVE",
"114 122 OFFCURVE",
"114 243 CURVE SMOOTH",
"114 379 OFFCURVE",
"217 495 OFFCURVE",
"351 495 CURVE SMOOTH",
"467 495 OFFCURVE",
"550 405 OFFCURVE",
"550 285 CURVE SMOOTH",
"550 148 OFFCURVE",
"448 31 OFFCURVE",
"314 31 CURVE SMOOTH"
);
}
);
width = 664;
},
{
anchors = (
{
name = bottom;
position = "{291, 0}";
},
{
name = center;
position = "{329, 268}";
},
{
name = ogonek;
position = "{360, 40}";
},
{
name = top;
position = "{367, 536}";
},
{
name = topright;
position = "{676, 536}";
}
);
layerId = "F445EC8D-29E3-46C7-99DD-9E4BBA6B70C5";
paths = (
{
closed = 1;
nodes = (
"473 -12 OFFCURVE",
"603 122 OFFCURVE",
"603 286 CURVE SMOOTH",
"603 378 OFFCURVE",
"563 452 OFFCURVE",
"500 499 CURVE",
"494 486 LINE",
"565 498 OFFCURVE",
"609 544 OFFCURVE",
"609 614 CURVE SMOOTH",
"609 636 OFFCURVE",
"603 658 OFFCURVE",
"594 680 CURVE",
"502 680 LINE",
"510 658 OFFCURVE",
"515 636 OFFCURVE",
"515 615 CURVE SMOOTH",
"515 561 OFFCURVE",
"483 548 OFFCURVE",
"456 548 CURVE SMOOTH",
"344 548 LINE SMOOTH",
"183 548 OFFCURVE",
"56 416 OFFCURVE",
"56 253 CURVE SMOOTH",
"56 97 OFFCURVE",
"171 -12 OFFCURVE",
"314 -12 CURVE SMOOTH"
);
},
{
closed = 1;
nodes = (
"211 63 OFFCURVE",
"136 143 OFFCURVE",
"136 251 CURVE SMOOTH",
"136 372 OFFCURVE",
"229 473 OFFCURVE",
"345 473 CURVE SMOOTH",
"449 473 OFFCURVE",
"523 394 OFFCURVE",
"523 287 CURVE SMOOTH",
"523 167 OFFCURVE",
"430 63 OFFCURVE",
"313 63 CURVE SMOOTH"
);
}
);
width = 658;
},
{
anchors = (
{
name = bottom;
position = "{290, 0}";
},
{
name = center;
position = "{328, 273}";
},
{
name = ogonek;
position = "{302, 40}";
},
{
name = top;
position = "{366, 546}";
},
{
name = topright;
position = "{673, 546}";
}
);
layerId = "9D27F576-B54C-4464-AC1E-5B62749637F3";
paths = (
{
closed = 1;
nodes = (
"481 -12 OFFCURVE",
"621 121 OFFCURVE",
"621 289 CURVE SMOOTH",
"621 380 OFFCURVE",
"580 457 OFFCURVE",
"516 504 CURVE",
"503 460 LINE",
"583 475 OFFCURVE",
"631 534 OFFCURVE",
"631 619 CURVE SMOOTH",
"631 640 OFFCURVE",
"626 663 OFFCURVE",
"619 683 CURVE",
"493 683 LINE",
"498 662 OFFCURVE",
"503 640 OFFCURVE",
"503 621 CURVE SMOOTH",
"503 561 OFFCURVE",
"467 558 OFFCURVE",
"448 558 CURVE SMOOTH",
"344 558 LINE SMOOTH",
"174 558 OFFCURVE",
"34 426 OFFCURVE",
"34 257 CURVE SMOOTH",
"34 100 OFFCURVE",
"155 -12 OFFCURVE",
"312 -12 CURVE SMOOTH"
);
},
{
closed = 1;
nodes = (
"238 123 OFFCURVE",
"190 177 OFFCURVE",
"190 255 CURVE SMOOTH",
"190 348 OFFCURVE",
"252 423 OFFCURVE",
"342 423 CURVE SMOOTH",
"417 423 OFFCURVE",
"465 368 OFFCURVE",
"465 291 CURVE SMOOTH",
"465 197 OFFCURVE",
"403 123 OFFCURVE",
"314 123 CURVE SMOOTH"
);
}
);
width = 655;
}
);
leftKerningGroup = o;
leftMetricsKey = "=o";
rightKerningGroup = o;
rightMetricsKey = "=o";
unicode = 01A1;
},
{
color = 4;
glyphname = oe;
lastChange = "2021-11-11 09:41:25 +0000";
layers = (
{
layerId = "9D27F576-B54C-4464-AC1E-5B62749637F3";
paths = (
{
closed = 1;
nodes = (
"413 -12 OFFCURVE",
"504 36 OFFCURVE",
"561 110 CURVE",
"508 111 LINE",
"551 36 OFFCURVE",
"633 -12 OFFCURVE",
"740 -12 CURVE SMOOTH",
"850 -12 OFFCURVE",
"942 39 OFFCURVE",
"981 119 CURVE",
"863 180 LINE",
"840 143 OFFCURVE",
"798 118 OFFCURVE",
"743 118 CURVE SMOOTH",
"672 118 OFFCURVE",
"629 159 OFFCURVE",
"624 231 CURVE",
"1007 231 LINE",
"1014 260 OFFCURVE",
"1018 285 OFFCURVE",
"1018 310 CURVE SMOOTH",
"1018 451 OFFCURVE",
"928 558 OFFCURVE",
"762 558 CURVE SMOOTH",
"663 558 OFFCURVE",
"578 510 OFFCURVE",
"526 435 CURVE",
"580 434 LINE",
"532 511 OFFCURVE",
"445 558 OFFCURVE",
"344 558 CURVE SMOOTH",
"174 558 OFFCURVE",
"34 426 OFFCURVE",
"34 257 CURVE SMOOTH",
"34 100 OFFCURVE",
"155 -12 OFFCURVE",
"312 -12 CURVE SMOOTH"
);
},
{
closed = 1;
nodes = (
"238 123 OFFCURVE",
"190 177 OFFCURVE",
"190 255 CURVE SMOOTH",
"190 348 OFFCURVE",
"252 423 OFFCURVE",
"342 423 CURVE SMOOTH",
"417 423 OFFCURVE",
"465 368 OFFCURVE",
"465 291 CURVE SMOOTH",
"465 197 OFFCURVE",
"403 123 OFFCURVE",
"314 123 CURVE SMOOTH"
);
},
{
closed = 1;
nodes = (
"653 398 OFFCURVE",
"692 438 OFFCURVE",
"761 438 CURVE SMOOTH",
"822 438 OFFCURVE",
"861 398 OFFCURVE",
"862 341 CURVE",
"635 341 LINE"
);
}
);
width = 1048;
},
{
layerId = "F445EC8D-29E3-46C7-99DD-9E4BBA6B70C5";
paths = (
{
closed = 1;
nodes = (
"423 -12 OFFCURVE",
"519 51 OFFCURVE",
"568 144 CURVE",
"546 146 LINE",
"582 50 OFFCURVE",
"668 -12 OFFCURVE",
"777 -12 CURVE SMOOTH",
"885 -12 OFFCURVE",
"975 48 OFFCURVE",
"1013 121 CURVE",
"950 157 LINE",
"913 101 OFFCURVE",
"857 58 OFFCURVE",
"778 58 CURVE SMOOTH",
"678 58 OFFCURVE",
"606 128 OFFCURVE",
"606 245 CURVE",
"1028 245 LINE",
"1031 259 OFFCURVE",
"1036 289 OFFCURVE",
"1036 310 CURVE SMOOTH",
"1036 432 OFFCURVE",
"952 548 OFFCURVE",
"804 548 CURVE SMOOTH",
"695 548 OFFCURVE",
"607 484 OFFCURVE",
"561 393 CURVE",
"583 392 LINE",
"545 487 OFFCURVE",
"454 548 OFFCURVE",
"344 548 CURVE SMOOTH",
"183 548 OFFCURVE",
"56 416 OFFCURVE",
"56 253 CURVE SMOOTH",
"56 97 OFFCURVE",
"171 -12 OFFCURVE",
"314 -12 CURVE SMOOTH"
);
},
{
closed = 1;
nodes = (
"211 63 OFFCURVE",
"136 143 OFFCURVE",
"136 251 CURVE SMOOTH",
"136 372 OFFCURVE",
"229 473 OFFCURVE",
"345 473 CURVE SMOOTH",
"447 473 OFFCURVE",
"523 394 OFFCURVE",
"523 287 CURVE SMOOTH",
"523 167 OFFCURVE",
"430 63 OFFCURVE",
"313 63 CURVE SMOOTH"
);
},
{
closed = 1;
nodes = (
"636 415 OFFCURVE",
"700 478 OFFCURVE",
"803 478 CURVE SMOOTH",
"895 478 OFFCURVE",
"965 407 OFFCURVE",
"957 315 CURVE",
"614 315 LINE"
);
}
);
width = 1089;
},
{
layerId = "1C1CFC13-4213-4775-A214-C31251F9A91A";
paths = (
{
closed = 1;
nodes = (
"439 -12 OFFCURVE",
"539 67 OFFCURVE",
"579 175 CURVE",
"563 177 LINE",
"590 66 OFFCURVE",
"683 -12 OFFCURVE",
"804 -12 CURVE SMOOTH",
"897 -12 OFFCURVE",
"982 35 OFFCURVE",
"1026 112 CURVE",
"989 134 LINE",
"947 69 OFFCURVE",
"880 30 OFFCURVE",
"803 30 CURVE SMOOTH",
"685 30 OFFCURVE",
"600 116 OFFCURVE",
"600 249 CURVE",
"1047 249 LINE",
"1051 266 OFFCURVE",
"1054 287 OFFCURVE",
"1054 306 CURVE SMOOTH",
"1054 439 OFFCURVE",
"960 538 OFFCURVE",
"829 538 CURVE SMOOTH",
"711 538 OFFCURVE",
"614 459 OFFCURVE",
"573 351 CURVE",
"590 350 LINE",
"564 462 OFFCURVE",
"472 538 OFFCURVE",
"350 538 CURVE SMOOTH",
"189 538 OFFCURVE",
"66 406 OFFCURVE",
"66 243 CURVE SMOOTH",
"66 96 OFFCURVE",
"170 -12 OFFCURVE",
"315 -12 CURVE SMOOTH"
);
},
{
closed = 1;
nodes = (
"199 31 OFFCURVE",
"114 122 OFFCURVE",
"114 243 CURVE SMOOTH",
"114 379 OFFCURVE",
"217 495 OFFCURVE",
"351 495 CURVE SMOOTH",
"467 495 OFFCURVE",
"550 405 OFFCURVE",
"550 285 CURVE SMOOTH",
"550 148 OFFCURVE",
"448 31 OFFCURVE",
"314 31 CURVE SMOOTH"
);
},
{
closed = 1;
nodes = (
"624 403 OFFCURVE",
"715 496 OFFCURVE",
"830 496 CURVE SMOOTH",
"940 496 OFFCURVE",
"1016 409 OFFCURVE",
"1007 289 CURVE",
"604 289 LINE"
);
}
);
width = 1116;
}
);
leftKerningGroup = o;
leftMetricsKey = "=o";
rightKerningGroup = e;
rightMetricsKey = "=e";
unicode = 0153;
},
